<?xml version="1.0" encoding="UTF-8" standalone="no"?>
<!-- Created with Inkscape (http://www.inkscape.org/) -->

<svg
   width="210mm"
   height="297mm"
   viewBox="0 0 210 297"
   version="1.1"
   id="svg5"
   inkscape:version="1.1 (1:1.1+202105261517+ce6663b3b7)"
   sodipodi:docname="design.svg"
   xmlns:inkscape="http://www.inkscape.org/namespaces/inkscape"
   xmlns:sodipodi="http://sodipodi.sourceforge.net/DTD/sodipodi-0.dtd"
   xmlns="http://www.w3.org/2000/svg"
   xmlns:svg="http://www.w3.org/2000/svg">
  <sodipodi:namedview
     id="namedview7"
     pagecolor="#ffffff"
     bordercolor="#666666"
     borderopacity="1.0"
     inkscape:pageshadow="2"
     inkscape:pageopacity="0"
     inkscape:pagecheckerboard="0"
     inkscape:document-units="mm"
     showgrid="false"
     inkscape:zoom="1.5207637"
     inkscape:cx="446.81499"
     inkscape:cy="377.44195"
     inkscape:window-width="1920"
     inkscape:window-height="1043"
     inkscape:window-x="0"
     inkscape:window-y="0"
     inkscape:window-maximized="1"
     inkscape:current-layer="text15278"
     inkscape:snap-to-guides="true" />
  <defs
     id="defs2">
    <marker
       style="overflow:visible"
       id="marker72889"
       refX="0.0"
       refY="0.0"
       orient="auto"
       inkscape:stockid="EmptyDiamondS"
       inkscape:isstock="true">
      <path
         transform="scale(0.2)"
         style="fill-rule:evenodd;fill:context-fill;stroke:context-stroke;stroke-width:1.0pt"
         d="M 0,-7.0710768 L -7.0710894,0 L 0,7.0710589 L 7.0710462,0 L 0,-7.0710768 z "
         id="path72887" />
    </marker>
    <marker
       style="overflow:visible"
       id="EmptyDiamondS"
       refX="0.0"
       refY="0.0"
       orient="auto"
       inkscape:stockid="EmptyDiamondS"
       inkscape:isstock="true">
      <path
         transform="scale(0.2)"
         style="fill-rule:evenodd;fill:context-fill;stroke:context-stroke;stroke-width:1.0pt"
         d="M 0,-7.0710768 L -7.0710894,0 L 0,7.0710589 L 7.0710462,0 L 0,-7.0710768 z "
         id="path72681" />
    </marker>
    <marker
       style="overflow:visible"
       id="CurvyCross"
       refX="0.0"
       refY="0.0"
       orient="auto"
       inkscape:stockid="CurvyCross"
       inkscape:isstock="true">
      <g
         transform="scale(0.6)"
         id="g72763">
        <path
           style="fill:none;fill-rule:evenodd;stroke:context-stroke;stroke-width:1.0pt"
           d="M 4.6254930,-5.0456926 C 1.8654930,-5.0456926 -0.37450702,-2.8056926 -0.37450702,-0.045692580 C -0.37450702,2.7143074 1.8654930,4.9543074 4.6254930,4.9543074"
           id="path72759" />
        <path
           style="fill:none;fill-rule:evenodd;stroke:context-stroke;stroke-width:1.0pt"
           d="M -5.4129913,-5.0456926 C -2.6529913,-5.0456926 -0.41299131,-2.8056926 -0.41299131,-0.045692580 C -0.41299131,2.7143074 -2.6529913,4.9543074 -5.4129913,4.9543074"
           id="path72761" />
      </g>
    </marker>
    <marker
       style="overflow:visible"
       id="Arrow1Sstart"
       refX="0.0"
       refY="0.0"
       orient="auto"
       inkscape:stockid="Arrow1Sstart"
       inkscape:isstock="true">
      <path
         transform="scale(0.2) translate(6,0)"
         style="fill-rule:evenodd;fill:context-stroke;stroke:context-stroke;stroke-width:1.0pt"
         d="M 0.0,0.0 L 5.0,-5.0 L -12.5,0.0 L 5.0,5.0 L 0.0,0.0 z "
         id="path72581" />
    </marker>
    <marker
       style="overflow:visible"
       id="Arrow1Lstart"
       refX="0.0"
       refY="0.0"
       orient="auto"
       inkscape:stockid="Arrow1Lstart"
       inkscape:isstock="true">
      <path
         transform="scale(0.8) translate(12.5,0)"
         style="fill-rule:evenodd;fill:context-stroke;stroke:context-stroke;stroke-width:1.0pt"
         d="M 0.0,0.0 L 5.0,-5.0 L -12.5,0.0 L 5.0,5.0 L 0.0,0.0 z "
         id="path72569" />
    </marker>
  </defs>
  <g
     inkscape:label="Layer 1"
     inkscape:groupmode="layer"
     id="layer1">
    <path
       style="fill:#f5cd11;fill-opacity:1;stroke-width:0.218511"
       d="m 47.451777,72.82925 c -0.04724,-0.150227 -0.150069,-1.453101 -0.228519,-2.895277 -0.260999,-4.798369 -1.016712,-7.776704 -2.163952,-8.528409 -0.792967,-0.519568 -1.506297,-0.204385 -2.490197,1.10028 -0.699289,0.927261 -0.947388,1.10163 -1.650568,1.160041 -0.70388,0.05846 -0.933009,-0.04306 -1.532996,-0.679216 -1.570656,-1.665381 -1.631019,-4.852392 -0.112062,-5.916313 0.774163,-0.542243 1.450575,-0.432793 2.617017,0.423454 1.263325,0.927361 2.012835,0.933833 2.689363,0.02324 0.8834,-1.189038 0.435374,-5.603459 -1.083839,-10.679097 -0.293357,-0.980117 -0.53338,-1.908741 -0.53338,-2.063605 0,-0.506548 0.865942,-0.760806 2.578153,-0.756993 1.824131,0.004 3.161636,0.373583 4.464157,1.233333 0.4481,0.29578 0.92466,0.537781 1.059021,0.537781 0.134362,0 0.6851,-0.388014 1.223865,-0.862252 1.256669,-1.106167 2.819264,-1.643408 4.707534,-1.618508 1.678978,0.02213 3.362943,0.709912 4.407404,1.800091 l 0.618131,0.645191 0.686281,-0.418466 c 0.877859,-0.53529 2.737404,-0.556029 3.819384,-0.0426 0.437546,0.207631 1.239054,0.834185 1.781121,1.392347 0.858071,0.883551 1.132053,1.031031 2.11782,1.140007 0.622731,0.06884 1.514406,0.320138 1.981502,0.558434 1.069419,0.545573 2.324502,1.921233 2.699835,2.959196 0.28116,0.777533 0.309123,0.793124 1.186487,0.661556 1.737324,-0.260529 3.485096,0.897687 4.388012,2.907852 0.425983,0.948373 0.611647,1.147185 1.071335,1.147185 1.928135,0 4.038198,2.394401 4.038198,4.582347 0,0.634758 0.474075,1.177392 1.229176,1.406942 1.149067,0.349315 2.704036,2.495114 2.704036,3.73147 0,0.632438 -1.008178,1.021437 -7.409595,2.858953 -7.669013,2.201381 -14.181469,3.143443 -17.216822,2.490506 -1.683643,-0.362169 -1.72962,-0.444648 -0.902147,-1.618581 1.899039,-2.694196 0.04509,-5.479661 -3.642715,-5.473048 -2.822898,0.005 -5.056546,1.555979 -5.295611,3.676959 -0.139282,1.235655 0.342646,2.158477 1.584283,3.033658 0.528921,0.372823 0.911629,0.758839 0.850456,0.857818 -0.55287,0.894562 -9.989079,2.022218 -10.240168,1.223729 z"
       id="path5088" />
    <path
       style="fill:#1894d0;fill-opacity:1;stroke-width:0.218511"
       d="m 30.892628,81.719302 c -1.346209,-0.73044 -1.448179,-1.91952 -0.295182,-3.442197 0.622648,-0.822289 0.708522,-1.152991 0.502047,-1.933442 -0.115598,-0.436945 -0.413852,-0.682874 -1.192499,-0.9833 -1.577246,-0.608556 -7.551673,-0.55457 -11.020186,0.09957 -3.222208,0.607694 -7.587492,1.728922 -12.1338818,3.116603 -1.948235,0.594655 -3.7562211,1.081186 -4.0177502,1.081186 -0.4517179,0 -0.4697382,-0.07169 -0.3603764,-1.434174 0.086392,-1.076298 0.2769644,-1.694533 0.7636986,-2.477524 0.521347,-0.838669 0.669327,-1.361064 0.7543,-2.662911 0.159253,-2.439753 1.204549,-4.190712 3.307329,-5.540061 l 1.074324,-0.689393 0.03849,-1.519007 c 0.06243,-2.464411 1.39856,-4.363092 3.8872528,-5.523872 0.888034,-0.414196 1.317007,-0.758502 1.476127,-1.18478 0.123378,-0.330499 0.344719,-0.92048 0.491872,-1.311068 0.477123,-1.266436 1.928803,-2.485934 3.558385,-2.98926 0.805405,-0.248764 1.896495,-0.452296 2.424655,-0.452296 0.528153,0 0.960281,-0.100529 0.960281,-0.223393 0,-0.496056 1.829384,-2.162641 2.90029,-2.642195 0.933721,-0.418119 1.526934,-0.513501 3.250402,-0.522636 l 2.108223,-0.01117 1.036682,-1.153037 c 0.570172,-0.63417 1.538909,-1.407966 2.152746,-1.719546 1.341766,-0.681076 3.509583,-0.897449 5.120245,-0.511058 l 1.102858,0.264572 0.959835,-1.00174 c 0.990962,-1.034221 1.461798,-1.212579 1.877789,-0.711329 0.387935,0.467431 1.703381,5.547393 1.982707,7.656781 0.222795,1.68246 0.178132,2.939427 -0.122708,3.453467 -0.04741,0.08103 -0.586549,-0.189385 -1.198072,-0.600907 -2.021359,-1.360272 -3.82871,-0.864999 -4.910244,1.345574 -0.510883,1.044209 -0.57208,1.38748 -0.479087,2.687215 0.323741,4.524648 4.638317,6.571004 6.72743,3.190744 0.258638,-0.418483 0.558041,-0.760879 0.665329,-0.760879 0.300683,0 0.782702,1.079044 1.053439,2.358204 0.409731,1.935844 0.75093,7.456763 0.480953,7.782075 -0.159706,0.192423 -1.159917,0.322729 -3.130386,0.407816 -7.367859,0.318151 -10.340305,2.153585 -7.172904,4.429141 0.586276,0.421195 1.124761,0.919046 1.196627,1.106337 0.425753,1.10949 -0.258851,2.29072 -1.709501,2.94957 -1.090437,0.49525 -3.261658,0.53344 -4.111519,0.0723 z"
       id="path5086" />
    <path
       style="fill:#a0ca39;fill-opacity:1;stroke-width:0.218511"
       d="m 50.395838,96.919802 c -0.521438,-0.98854 -1.192779,-6.55535 -0.790556,-6.55535 0.04798,0 0.598714,0.34416 1.223774,0.76479 1.710939,1.15138 3.162438,0.9791 4.428596,-0.52564 2.308167,-2.74311 0.284513,-8.43333 -2.999204,-8.43333 -1.088489,0 -1.903936,0.49653 -2.69645,1.64187 -0.324657,0.46919 -0.688577,0.82436 -0.808708,0.78924 -0.632873,-0.18498 -1.280586,-3.45125 -1.499871,-7.563387 -0.133724,-2.507795 -0.05145,-2.624876 1.843845,-2.624876 0.841777,0 2.48535,-0.104299 3.652378,-0.231775 4.236853,-0.462794 6.382844,-1.346532 6.382844,-2.628508 0,-0.427071 -0.177776,-0.816637 -0.491649,-1.077345 -2.02149,-1.679103 -2.130489,-1.802615 -2.130489,-2.414237 0,-0.387933 0.257647,-0.918738 0.678734,-1.398327 1.444181,-1.644832 4.710208,-1.810922 5.978184,-0.304015 0.73258,0.87062 0.700883,1.236239 -0.223671,2.580307 -1.115056,1.621006 -1.009625,2.340527 0.449868,3.070274 1.022592,0.511295 1.302455,0.545758 4.370232,0.538168 4.719219,-0.01167 9.23866,-0.886685 17.473485,-3.383036 1.974581,-0.598586 3.700832,-1.088338 3.836109,-1.088338 0.343422,0 2.417796,2.293024 2.940541,3.250494 0.321964,0.589725 0.432415,1.210474 0.432504,2.430804 1.33e-4,1.951364 -0.555769,3.377769 -1.758469,4.512054 l -0.782721,0.738202 -0.03593,2.127491 c -0.04115,2.44311 -0.378847,3.35745 -1.720581,4.65955 -0.954325,0.92613 -2.236926,1.32859 -3.631458,1.13949 -0.911297,-0.12357 -0.981009,-0.0901 -1.904555,0.91588 -0.915485,0.99716 -0.999988,1.03861 -1.877375,0.92093 -0.510603,-0.0685 -1.341841,-0.42146 -1.871158,-0.79455 -1.138388,-0.80242 -1.208314,-0.80852 -2.061156,-0.1797 -0.577127,0.42554 -0.935926,0.49166 -2.667916,0.49166 -1.100621,0 -2.121404,0.078 -2.268418,0.17316 -0.147004,0.0952 -0.439156,0.53774 -0.649216,0.98331 -0.621806,1.31896 -2.228015,2.76332 -3.685148,3.31383 -1.06609,0.40276 -1.559118,0.46693 -2.75805,0.35894 l -1.459899,-0.13149 -1.052984,1.11664 c -1.400486,1.48516 -2.551724,2.25434 -4.210311,2.81308 -1.188551,0.40039 -1.783366,0.45373 -4.427637,0.39702 -2.445195,-0.0525 -3.089142,-0.13091 -3.227541,-0.39328 z m 0.829265,-23.96668 c 0.157741,-0.06312 0.346204,-0.05536 0.418815,0.01724 0.07259,0.07261 -0.05649,0.124256 -0.286792,0.114768 -0.254558,-0.01046 -0.306332,-0.06227 -0.132023,-0.132016 z m 18.573478,-1.748091 c 0.157733,-0.06312 0.346205,-0.05536 0.418815,0.01724 0.07259,0.07261 -0.05649,0.124254 -0.2868,0.114767 -0.254558,-0.01046 -0.306331,-0.06227 -0.132015,-0.132016 z"
       id="path5084"
       sodipodi:nodetypes="sssssssssssssssssssssssccssssssscssscsssssssssssssss" />
    <path
       style="fill:#ec0e89;fill-opacity:1;stroke-width:0.218511"
       d="m 32.419456,127.27573 c -1.440227,-0.83887 -1.344855,-3.24445 0.393452,-9.92477 1.509352,-5.80047 1.710394,-7.28076 1.082988,-7.97403 -0.552812,-0.61085 -1.233577,-0.54846 -2.452149,0.2247 -1.698294,1.07757 -3.573489,1.56661 -6.071275,1.5834 -1.900253,0.0128 -2.436358,-0.073 -4.11233,-0.65824 -2.79907,-0.97735 -5.150827,-2.47163 -7.343066,-4.66574 -4.7480168,-4.75207 -5.8179898,-9.632558 -2.962247,-13.511818 0.512189,-0.69575 1.241118,-1.48566 1.619854,-1.75534 l 0.688602,-0.49033 -1.022139,-0.64822 -1.022137,-0.64822 -0.680427,0.64336 c -0.9570168,0.90489 -1.4881588,1.13282 -2.6396778,1.13282 -1.942736,0 -3.586002,-1.11687 -4.661706,-3.16842 -0.7185068,-1.37029 -0.7965108,-3.4841 -0.175423,-4.75404 0.321494,-0.65738 0.348103,-0.88511 0.133609,-1.14357 -0.3305382,-0.39827 -0.2732973,-0.42188 4.586915,-1.89237 7.7733698,-2.351901 13.3942988,-3.463352 17.5151258,-3.463352 2.597345,0 4.554533,0.299401 4.554533,0.696733 0,0.114305 -0.288782,0.627548 -0.641735,1.140543 -1.347786,1.958946 -0.780496,3.973556 1.39748,4.962876 1.023088,0.46472 3.034883,0.53645 4.312223,0.15375 1.049317,-0.31438 2.641181,-1.67649 3.015557,-2.5803 0.348269,-0.8408 0.165768,-2.297333 -0.362483,-2.892972 -0.220499,-0.248628 -0.775756,-0.726382 -1.23389,-1.061671 l -0.832981,-0.609622 0.529076,-0.346668 c 0.851365,-0.557833 3.32103,-0.989095 6.512258,-1.137194 2.157899,-0.10014 3.014872,-0.06815 3.129197,0.116835 0.08659,0.14011 0.241303,1.654124 0.343785,3.364474 0.208953,3.487028 0.651347,5.746428 1.379022,7.042928 0.415758,0.74076 0.613373,0.88431 1.295806,0.94135 0.746182,0.0624 0.863752,-0.0142 1.603088,-1.04327 0.438825,-0.6108 0.989343,-1.21303 1.223369,-1.33828 0.658136,-0.35222 1.626956,-0.0242 2.345405,0.79404 1.141063,1.2996 1.417276,3.23395 0.690394,4.83488 -0.725534,1.59797 -1.811372,1.79808 -3.356178,0.61854 -1.218357,-0.93029 -1.921685,-0.97522 -2.565541,-0.16389 -0.434837,0.54794 -0.46755,0.78387 -0.371129,2.67677 0.10312,2.02448 0.600117,4.39758 1.497715,7.15148 l 0.443582,1.360928 -0.617131,1.13426 c -0.981562,1.80404 -2.340953,3.15944 -3.928729,3.91722 l -1.418466,0.67697 0.141877,0.83978 c 0.261156,1.54576 -1.12467,5.59851 -3.929787,11.49237 -3.157326,6.63387 -5.975607,9.57038 -8.034286,8.37132 z"
       id="path5082" />
    <text
       xml:space="preserve"
       style="font-style:normal;font-weight:normal;font-size:14.5151px;line-height:1.25;font-family:sans-serif;fill:#1a1a1a;fill-opacity:1;stroke:none;stroke-width:0.362878"
       x="81.563179"
       y="89.453094"
       id="text6045"
       inkscape:export-filename="/home/peter/Documents/Projetos/EducaSomar/Eventos/Oficina_do_Cerebro_FE/assets/projectLogo.png"
       inkscape:export-xdpi="129.66"
       inkscape:export-ydpi="129.66"><tspan
         sodipodi:role="line"
         id="tspan6043"
         style="font-style:normal;font-variant:normal;font-weight:normal;font-stretch:normal;font-family:'Concert One';-inkscape-font-specification:'Concert One';fill:#1a1a1a;stroke-width:0.362878"
         x="81.563179"
         y="89.453094">OFICINA DO</tspan></text>
    <g
       aria-label="CÉREBRO"
       id="text15278"
       style="font-size:34.8376px;line-height:1.25;stroke:#000000;stroke-width:0.870936">
      <path
         d="m 55.733108,91.286122 q 2.081278,0 3.576016,0.47302 1.513657,0.47302 2.535376,1.22985 1.040639,0.75682 1.665023,1.72178 0.624384,0.94604 0.946036,1.92992 0.340573,0.98388 0.435177,1.89207 0.113524,0.9082 0.113524,1.570418 0,0.28381 -0.05676,0.70007 -0.03784,0.39733 -0.321653,0.77574 -0.28381,0.37842 -0.908194,0.64331 -0.605462,0.26489 -1.740706,0.26489 -0.378414,0 -0.946036,-0.0378 -0.567621,-0.0567 -1.097401,-0.24598 -0.529781,-0.20813 -0.908195,-0.56762 -0.378415,-0.37842 -0.378415,-1.04064 0,-1.021718 -0.132444,-1.835308 -0.113525,-0.81359 -0.435177,-1.38121 -0.321652,-0.56763 -0.889274,-0.87036 -0.567621,-0.30272 -1.456895,-0.30272 -0.927116,0 -1.437974,0.39733 -0.49194,0.37842 -0.718988,0.83251 -0.26489,0.5487 -0.302732,1.22985 v 11.995728 q 0.03784,0.83252 0.302732,1.4569 0.227048,0.5487 0.718988,1.00279 0.510858,0.45411 1.437974,0.45411 0.889274,0 1.456895,-0.3595 0.567622,-0.37841 0.889274,-1.0028 0.321652,-0.62438 0.435177,-1.43797 0.132444,-0.8136 0.132444,-1.70286 0,-0.28382 0.0946,-0.58655 0.0946,-0.30273 0.435177,-0.54871 0.340573,-0.26488 1.002798,-0.43517 0.662225,-0.17028 1.797468,-0.17028 1.135243,0 1.740706,0.26488 0.624383,0.24597 0.908194,0.58655 0.283812,0.32165 0.321653,0.6433 0.05676,0.30274 0.05676,0.39734 0,2.08128 -0.700066,3.72738 -0.700066,1.62719 -1.986675,2.76243 -1.267689,1.13524 -3.046237,1.7407 -1.759626,0.58655 -3.878747,0.58655 -0.340573,0 -1.116322,-0.0567 -0.756829,-0.0567 -1.702864,-0.30272 -0.946037,-0.24597 -1.948835,-0.73792 -1.002798,-0.49193 -1.83531,-1.36228 -0.81359,-0.88928 -1.343371,-2.19481 -0.52978,-1.32445 -0.52978,-3.21652 V 99.611342 q 0,-1.55149 0.378415,-2.7435 0.378414,-1.192 0.983878,-2.06236 0.624383,-0.88927 1.419054,-1.47581 0.79467,-0.60547 1.627181,-1.0028 1.929913,-0.90819 4.408527,-1.04064 z"
         style="font-family:'Concert One';-inkscape-font-specification:'Concert One';fill:#1894d0;fill-opacity:1;stroke:#000000;stroke-width:0.52916673;stroke-miterlimit:4;stroke-dasharray:1.58750019, 0.52916673;stroke-dashoffset:0;stroke-linejoin:round;stroke-linecap:butt;paint-order:normal"
         id="path30809" />
      <path
         d="m 79.119116,91.437492 q 0.756829,0 1.532579,0.0756 0.775749,0.0756 1.400133,0.35949 0.624384,0.2838 1.021719,0.85143 0.397335,0.54871 0.397335,1.51366 0,0.96496 -0.397335,1.53258 -0.397335,0.5487 -1.021719,0.83252 -0.624384,0.2838 -1.400133,0.35949 -0.77575,0.0756 -1.532579,0.0756 h -4.50313 v 4.919388 h 2.38401 q 0.756829,0 1.513658,0.0567 0.775749,0.0378 1.362291,0.30273 0.605464,0.24597 0.983878,0.77575 0.378415,0.51086 0.378415,1.43798 0,0.94603 -0.378415,1.45689 -0.378414,0.51086 -0.983878,0.77575 -0.586542,0.24597 -1.362291,0.30273 -0.756829,0.0378 -1.513658,0.0378 h -2.38401 v 5.22212 h 4.50313 q 0.756829,0 1.532579,0.0756 0.775749,0.0757 1.400133,0.3595 0.624384,0.28381 1.021719,0.83251 0.397335,0.5487 0.397335,1.49474 0,0.98388 -0.416256,1.5515 -0.397334,0.56762 -1.021719,0.85143 -0.624384,0.28381 -1.400133,0.35949 -0.775749,0.0756 -1.513658,0.0756 h -7.416921 q -1.05956,0 -1.646103,-0.37841 -0.567621,-0.37842 -0.832511,-0.98388 -0.264891,-0.62438 -0.321652,-1.40014 -0.03784,-0.77574 -0.03784,-1.58933 V 95.788832 q 0,-0.81359 0.03784,-1.58934 0.05676,-0.77575 0.321652,-1.38122 0.26489,-0.62437 0.832511,-1.0028 0.586543,-0.37841 1.646103,-0.37841 z m -2.648899,-8.17375 q 0.510858,-0.34057 1.059559,-0.34057 0.491938,0 1.002798,0.17028 0.51086,0.15137 0.889274,0.70006 0.227049,0.34058 0.321652,0.68115 0.0946,0.34057 0.0946,0.60547 0,0.51086 -0.283811,0.94603 -0.28381,0.41626 -0.662225,0.68115 l -4.162559,2.53537 q -0.264889,0.17029 -0.567621,0.24598 -0.28381,0.0567 -0.567622,0.0567 -0.510858,0 -0.964956,-0.15136 -0.435177,-0.17029 -0.813591,-0.719 -0.227049,-0.32164 -0.321652,-0.62437 -0.0946,-0.32165 -0.0946,-0.58655 0,-0.56762 0.28381,-1.0028 0.283811,-0.45409 0.548701,-0.62438 z"
         style="font-family:'Concert One';-inkscape-font-specification:'Concert One';fill:#ec0e89;fill-opacity:1;stroke-width:0.52916673;stroke-miterlimit:4;stroke-dasharray:1.58750019, 0.52916673;stroke-dashoffset:0;stroke-linejoin:round;stroke-linecap:butt;paint-order:normal"
         id="path30811" />
      <path
         d="m 87.557756,95.751412 q 0,-0.81359 0.03784,-1.58933 0.05676,-0.77576 0.321652,-1.38123 0.26489,-0.60545 0.832511,-0.96494 0.586543,-0.37842 1.646107,-0.37842 h 6.243836 q 2.32725,0.11352 4.162558,0.98387 0.77574,0.37843 1.51365,0.94604 0.75683,0.54871 1.34338,1.38121 0.58654,0.8136 0.94604,1.92992 0.35949,1.11632 0.35949,2.59213 0,0.30274 -0.0567,0.813598 -0.0567,0.49194 -0.24597,1.0974 -0.18921,0.58655 -0.51085,1.22984 -0.32166,0.64331 -0.85144,1.22985 -0.52978,0.58655 -1.30554,1.07848 -0.75683,0.49195 -1.79746,0.79467 0.66222,0.26489 1.34337,0.70007 0.68114,0.41626 1.22985,1.07849 0.5487,0.66221 0.88927,1.58933 0.35949,0.92712 0.35949,2.15696 v 2.68674 q 0,0.22706 0.11354,0.37842 0.11352,0.15137 0.22704,0.26489 0.45409,0.45409 0.52978,0.79467 0.0756,0.32165 0.0756,0.52978 0,0.66223 -0.26489,1.11632 -0.2649,0.4541 -0.70007,0.73791 -0.41625,0.28381 -0.96496,0.39733 -0.52978,0.13245 -1.0974,0.13245 -0.62439,0 -1.2677,-0.18921 -0.64329,-0.20812 -1.173078,-0.58653 -0.52977,-0.37843 -0.87034,-0.94604 -0.32166,-0.56763 -0.32166,-1.30553 v -4.0112 q 0,-0.83251 -0.11353,-1.53257 -0.11352,-0.70007 -0.43517,-1.21093 -0.32165,-0.51086 -0.88928,-0.79467 -0.56761,-0.28381 -1.47581,-0.28381 h -2.11912 v 6.31952 q 0,0.83251 -0.0567,1.62718 -0.0378,0.79468 -0.302732,1.41905 -0.264892,0.60547 -0.851427,0.98388 -0.586545,0.35949 -1.665025,0.35949 -1.059564,0 -1.646106,-0.35949 -0.567621,-0.37841 -0.832512,-0.98388 -0.26489,-0.62437 -0.321652,-1.41905 -0.03784,-0.79467 -0.03784,-1.62718 z m 8.287276,7.227718 q 0.94603,-0.0378 1.70286,-0.4541 0.32165,-0.17029 0.62438,-0.43517 0.30274,-0.26489 0.54871,-0.66223 0.24597,-0.39734 0.37841,-0.92711 0.15136,-0.529788 0.15136,-1.229858 0,-0.62437 -0.15136,-1.0974 -0.13244,-0.49193 -0.35949,-0.85142 -0.22705,-0.3595 -0.52979,-0.60547 -0.2838,-0.24597 -0.58653,-0.39733 -0.71899,-0.3595 -1.62719,-0.41626 h -2.72458 v 7.076348 z"
         style="font-family:'Concert One';-inkscape-font-specification:'Concert One';fill:#a0ca39;fill-opacity:1;stroke-width:0.52916673;stroke-miterlimit:4;stroke-dasharray:1.58750019, 0.52916673;stroke-dashoffset:0;stroke-linejoin:round;stroke-linecap:butt;paint-order:normal"
         id="path30813" />
      <path
         d="m 119.38241,91.437492 q 0.75683,0 1.53257,0.0567 0.77576,0.0567 1.40014,0.32164 0.62438,0.26489 1.02172,0.8136 0.39734,0.52977 0.39734,1.49473 0,0.96496 -0.39734,1.51367 -0.39734,0.52977 -1.02172,0.79466 -0.62438,0.2649 -1.40014,0.32166 -0.77574,0.0567 -1.53257,0.0567 h -4.50313 v 5.146438 h 2.38401 q 0.75683,0 1.51365,0.0567 0.77575,0.0378 1.3623,0.30273 0.60546,0.24597 0.98388,0.77575 0.37841,0.51086 0.37841,1.43798 0,0.94603 -0.37841,1.45689 -0.37842,0.51086 -0.98388,0.77575 -0.58655,0.24597 -1.3623,0.30273 -0.75682,0.0378 -1.51365,0.0378 h -2.38401 v 5.44917 h 4.50313 q 0.75683,0 1.53257,0.0567 0.77576,0.0567 1.40014,0.32165 0.62438,0.24597 1.02172,0.79467 0.39734,0.52978 0.39734,1.47581 0,0.98388 -0.41627,1.53259 -0.39733,0.54869 -1.02171,0.81358 -0.62438,0.2649 -1.40014,0.32166 -0.77574,0.0567 -1.51365,0.0567 h -7.41693 q -1.05956,0 -1.64609,-0.37841 -0.56763,-0.37841 -0.83252,-0.98388 -0.26488,-0.62437 -0.32165,-1.40013 -0.0378,-0.77575 -0.0378,-1.58934 V 95.789062 q 0,-0.81358 0.0378,-1.58933 0.0567,-0.77576 0.32165,-1.38122 0.26489,-0.62438 0.83252,-1.0028 0.58653,-0.37842 1.64609,-0.37842 z"
         style="font-family:'Concert One';-inkscape-font-specification:'Concert One';fill:#f5cd11;fill-opacity:1;stroke-width:0.52916673;stroke-miterlimit:4;stroke-dasharray:1.58750019, 0.52916673;stroke-dashoffset:0;stroke-linejoin:round;stroke-linecap:butt;paint-order:normal"
         id="path30815" />
      <path
         d="m 135.76775,91.437492 q 1.68394,0 3.15977,0.43518 1.49473,0.43517 2.59213,1.30553 1.11632,0.87035 1.74071,2.17588 0.6433,1.28661 0.6433,3.0084 0,0.88926 -0.24597,1.62717 -0.22704,0.718998 -0.60547,1.305528 -0.35949,0.58655 -0.81358,1.02172 -0.43518,0.43518 -0.85143,0.75683 -0.41627,0.30273 -0.73792,0.49194 -0.32164,0.17028 -0.45409,0.20812 1.13524,0.32166 1.911,0.83252 0.77574,0.49194 1.2866,1.0974 0.52978,0.58655 0.81359,1.22985 0.30274,0.62438 0.43518,1.22984 0.15136,0.58655 0.17029,1.0974 0.0378,0.49195 0.0378,0.79468 0,1.47582 -0.35949,2.61106 -0.3595,1.11632 -0.94604,1.94883 -0.58655,0.81359 -1.34338,1.40014 -0.75682,0.56761 -1.53257,0.9271 -1.85424,0.87036 -4.18149,0.98388 h -6.20598 q -1.07849,0 -1.66503,-0.35949 -0.58654,-0.37841 -0.85144,-0.98388 -0.26489,-0.62437 -0.32165,-1.40013 -0.0378,-0.77575 -0.0378,-1.60826 V 95.751412 q 0,-0.81359 0.0378,-1.58933 0.0567,-0.77576 0.32165,-1.38123 0.2649,-0.60545 0.85144,-0.96494 0.58654,-0.37842 1.66503,-0.37842 z m -2.61106,14.909528 v 7.11418 h 2.76243 q 0.88927,-0.0378 1.58933,-0.41625 0.30274,-0.15136 0.58655,-0.39733 0.28381,-0.24598 0.51086,-0.60547 0.22705,-0.37841 0.3595,-0.85143 0.13244,-0.49194 0.13244,-1.13524 0,-0.70006 -0.15136,-1.21093 -0.13245,-0.52977 -0.37843,-0.9082 -0.22704,-0.39733 -0.52977,-0.66221 -0.30273,-0.28382 -0.60547,-0.45411 -0.7379,-0.39733 -1.66502,-0.47301 z m 0,-10.444238 v 6.433038 h 2.42186 q 0.81358,-0.0378 1.45689,-0.37841 0.26489,-0.13244 0.52978,-0.3595 0.26489,-0.22705 0.47302,-0.52977 0.20813,-0.32165 0.32165,-0.75684 0.13244,-0.435168 0.13244,-1.002798 0,-0.64329 -0.13244,-1.11632 -0.13245,-0.49193 -0.35949,-0.8325 -0.20813,-0.3595 -0.49195,-0.60547 -0.26488,-0.24597 -0.54869,-0.41625 -0.68115,-0.3595 -1.53259,-0.43518 z"
         style="font-family:'Concert One';-inkscape-font-specification:'Concert One';fill:#1894d0;fill-opacity:1;stroke-width:0.52916673;stroke-miterlimit:4;stroke-dasharray:1.58750019, 0.52916673;stroke-dashoffset:0;stroke-linejoin:round;stroke-linecap:butt;paint-order:normal"
         id="path30817" />
      <path
         d="m 148.70951,95.751412 q 0,-0.81359 0.0378,-1.58933 0.0567,-0.77576 0.32164,-1.38123 0.2649,-0.60545 0.83252,-0.96494 0.58655,-0.37842 1.64611,-0.37842 h 6.24383 q 2.32724,0.11352 4.16256,0.98387 0.77575,0.37843 1.51366,0.94604 0.75682,0.54871 1.34337,1.38121 0.58654,0.8136 0.94604,1.92992 0.35949,1.11632 0.35949,2.59213 0,0.30274 -0.0567,0.813598 -0.0567,0.49194 -0.24597,1.0974 -0.18921,0.58655 -0.51087,1.22984 -0.32165,0.64331 -0.85142,1.22985 -0.52979,0.58655 -1.30553,1.07848 -0.75683,0.49195 -1.79747,0.79467 0.66223,0.26489 1.34337,0.70007 0.68115,0.41626 1.22984,1.07849 0.54871,0.66221 0.88928,1.58933 0.35949,0.92712 0.35949,2.15696 v 2.68674 q 0,0.22706 0.11352,0.37842 0.11354,0.15137 0.22706,0.26489 0.45409,0.45409 0.52978,0.79467 0.0756,0.32165 0.0756,0.52978 0,0.66223 -0.26489,1.11632 -0.2649,0.4541 -0.70007,0.73791 -0.41625,0.28381 -0.96496,0.39733 -0.52977,0.13245 -1.0974,0.13245 -0.62439,0 -1.26769,-0.18921 -0.64331,-0.20812 -1.17308,-0.58653 -0.52979,-0.37843 -0.87036,-0.94604 -0.32165,-0.56763 -0.32165,-1.30553 v -4.0112 q 0,-0.83251 -0.11352,-1.53257 -0.11352,-0.70007 -0.43518,-1.21093 -0.32165,-0.51086 -0.88928,-0.79467 -0.56761,-0.28381 -1.47581,-0.28381 h -2.11912 v 6.31952 q 0,0.83251 -0.0567,1.62718 -0.0378,0.79468 -0.30274,1.41905 -0.26489,0.60547 -0.85144,0.98388 -0.58653,0.35949 -1.66501,0.35949 -1.05956,0 -1.64611,-0.35949 -0.56762,-0.37841 -0.83251,-0.98388 -0.26489,-0.62437 -0.32165,-1.41905 -0.0378,-0.79467 -0.0378,-1.62718 z m 8.28728,7.227718 q 0.94604,-0.0378 1.70286,-0.4541 0.32166,-0.17029 0.62439,-0.43517 0.30273,-0.26489 0.54871,-0.66223 0.24596,-0.39734 0.37841,-0.92711 0.15136,-0.529788 0.15136,-1.229858 0,-0.62437 -0.15136,-1.0974 -0.13245,-0.49193 -0.35949,-0.85142 -0.22706,-0.3595 -0.52979,-0.60547 -0.28381,-0.24597 -0.58653,-0.39733 -0.719,-0.3595 -1.62719,-0.41626 h -2.72458 v 7.076348 z"
         style="font-family:'Concert One';-inkscape-font-specification:'Concert One';fill:#ec0e89;fill-opacity:1;stroke-width:0.52916673;stroke-miterlimit:4;stroke-dasharray:1.58750019, 0.52916673;stroke-dashoffset:0;stroke-linejoin:round;stroke-linecap:butt;paint-order:normal"
         id="path30819" />
      <path
         d="m 169.59799,98.930092 q 0,-1.81639 0.52979,-3.08408 0.52977,-1.2866 1.34337,-2.13804 0.83251,-0.85142 1.81639,-1.32445 1.0028,-0.49193 1.9299,-0.73791 0.94604,-0.24597 1.70287,-0.30273 0.75684,-0.0567 1.11633,-0.0567 h 0.6433 q 0.35949,0 1.11633,0.0567 0.75682,0.0567 1.68394,0.30273 0.92711,0.24598 1.91099,0.73791 1.0028,0.47303 1.79747,1.32445 0.81359,0.85144 1.32445,2.13804 0.52978,1.26769 0.52978,3.08408 v 11.314588 q 0,1.87316 -0.52978,3.17868 -0.51086,1.30553 -1.32445,2.17589 -0.79467,0.87035 -1.79747,1.38121 -0.98388,0.49194 -1.91099,0.73791 -0.92712,0.24596 -1.68394,0.30273 -0.75684,0.0567 -1.11633,0.0567 h -0.6433 q -0.35949,0 -1.11633,-0.0567 -0.75683,-0.0567 -1.70287,-0.30273 -0.9271,-0.24597 -1.9299,-0.73791 -0.98388,-0.51086 -1.81639,-1.38121 -0.8136,-0.87036 -1.34337,-2.17589 -0.52979,-1.30552 -0.52979,-3.17868 z m 6.28168,12.033578 q 0.0378,0.70007 0.32165,1.22985 0.24598,0.47302 0.73791,0.85143 0.51087,0.37841 1.43798,0.37841 0.90819,0 1.40014,-0.37841 0.49193,-0.37841 0.7379,-0.85143 0.26489,-0.52978 0.32166,-1.22985 V 98.627372 q -0.0567,-0.68115 -0.32166,-1.22985 -0.24597,-0.4541 -0.7379,-0.83251 -0.49195,-0.39734 -1.40014,-0.39734 -0.92711,0 -1.43798,0.39734 -0.49193,0.37841 -0.73791,0.83251 -0.28381,0.5487 -0.32165,1.22985 z"
         style="font-family:'Concert One';-inkscape-font-specification:'Concert One';fill:#a0ca39;fill-opacity:1;stroke-width:0.52916673;stroke-miterlimit:4;stroke-dasharray:1.58750019, 0.52916673;stroke-dashoffset:0;stroke-linejoin:round;stroke-linecap:butt;paint-order:normal"
         id="path30821" />
    </g>
    <g
       id="g30807">
      <path
         style="fill:#f5cd11;fill-opacity:1;stroke-width:0.196451"
         d="m 58.718462,218.86286 c -0.04247,-0.13506 -0.134918,-1.3064 -0.205448,-2.60298 -0.23465,-4.31394 -0.914068,-6.99159 -1.945487,-7.66741 -0.712912,-0.46711 -1.354226,-0.18375 -2.238795,0.9892 -0.628691,0.83365 -0.851743,0.99041 -1.483932,1.04293 -0.632819,0.0526 -0.838816,-0.0387 -1.37823,-0.61065 -1.412088,-1.49725 -1.466357,-4.36251 -0.100749,-5.31902 0.696006,-0.4875 1.30413,-0.3891 2.352812,0.38071 1.135784,0.83373 1.809626,0.83955 2.417854,0.0209 0.794215,-1.069 0.39142,-5.03776 -0.974418,-9.60098 -0.263741,-0.88116 -0.479532,-1.71604 -0.479532,-1.85527 0,-0.45541 0.778519,-0.68399 2.317871,-0.68057 1.639973,0.004 2.842448,0.33587 4.013471,1.10882 0.402862,0.26592 0.83131,0.48349 0.952106,0.48349 0.120797,0 0.615935,-0.34884 1.100308,-0.7752 1.1298,-0.99449 2.534641,-1.4775 4.232277,-1.45511 1.509474,0.0199 3.023432,0.63824 3.962448,1.61836 l 0.555726,0.58006 0.616997,-0.37622 c 0.789233,-0.48125 2.461045,-0.4999 3.433792,-0.0383 0.393373,0.18667 1.113963,0.74996 1.601305,1.25178 0.771443,0.79435 1.017765,0.92694 1.904012,1.02491 0.559862,0.0619 1.361517,0.28782 1.781456,0.50206 0.961454,0.49049 2.089828,1.72727 2.427269,2.66044 0.252775,0.69904 0.277915,0.71306 1.066703,0.59477 1.56193,-0.23422 3.133253,0.80706 3.945014,2.61429 0.382977,0.85263 0.549897,1.03137 0.963176,1.03137 1.733477,0 3.630516,2.15267 3.630516,4.11973 0,0.57067 0.426214,1.05852 1.105082,1.2649 1.033061,0.31405 2.431046,2.24321 2.431046,3.35475 0,0.56859 -0.906396,0.91832 -6.661548,2.57032 -6.894775,1.97914 -12.749756,2.8261 -15.47867,2.23908 -1.513668,-0.32561 -1.555003,-0.39976 -0.811069,-1.45518 1.707318,-2.4222 0.04054,-4.92645 -3.274959,-4.92051 -2.537908,0.005 -4.546054,1.3989 -4.760984,3.30575 -0.125221,1.11091 0.308053,1.94056 1.424339,2.72739 0.475523,0.33518 0.819594,0.68223 0.764597,0.77122 -0.497054,0.80425 -8.980616,1.81806 -9.206356,1.10018 z"
         id="path30783" />
      <path
         style="fill:#1894d0;fill-opacity:1;stroke-width:0.196451"
         d="m 43.831069,226.85541 c -1.210301,-0.65671 -1.301976,-1.72574 -0.265382,-3.09469 0.559788,-0.73927 0.636992,-1.03659 0.451362,-1.73825 -0.103927,-0.39283 -0.372071,-0.61393 -1.072108,-0.88403 -1.418013,-0.54712 -6.789282,-0.49858 -9.907626,0.0895 -2.896904,0.54634 -6.821484,1.55438 -10.908886,2.80196 -1.751548,0.53462 -3.377006,0.97204 -3.612132,0.97204 -0.406114,0 -0.422315,-0.0644 -0.323994,-1.28939 0.07767,-0.96764 0.249003,-1.52346 0.686598,-2.2274 0.468714,-0.754 0.601754,-1.22366 0.678149,-2.39407 0.143175,-2.19345 1.082941,-3.76764 2.973432,-4.98076 l 0.965864,-0.61979 0.0346,-1.36566 c 0.05613,-2.21561 1.257367,-3.9226 3.49481,-4.9662 0.798381,-0.37238 1.184046,-0.68192 1.327102,-1.06517 0.110922,-0.29713 0.309917,-0.82755 0.442214,-1.1787 0.428954,-1.13858 1.734078,-2.23496 3.199143,-2.68748 0.724094,-0.22365 1.705031,-0.40663 2.17987,-0.40663 0.474832,0 0.863334,-0.0904 0.863334,-0.20084 0,-0.44598 1.644696,-1.94431 2.607487,-2.37545 0.839455,-0.37591 1.37278,-0.46166 2.922252,-0.46987 l 1.895384,-0.01 0.932022,-1.03663 c 0.51261,-0.57015 1.383546,-1.26582 1.935412,-1.54595 1.206306,-0.61231 3.155268,-0.80684 4.603323,-0.45946 l 0.991517,0.23786 0.862933,-0.90061 c 0.890918,-0.92981 1.31422,-1.09016 1.688214,-0.63951 0.348771,0.42024 1.531414,4.98734 1.78254,6.88378 0.200302,1.5126 0.160148,2.64267 -0.11032,3.10481 -0.04262,0.0728 -0.527333,-0.17026 -1.077119,-0.54024 -1.817289,-1.22294 -3.442176,-0.77767 -4.414522,1.20973 -0.459306,0.93879 -0.514325,1.24741 -0.43072,2.41592 0.291057,4.06786 4.170048,5.90762 6.048251,2.86862 0.232527,-0.37623 0.501703,-0.68406 0.59816,-0.68406 0.270327,0 0.703683,0.97011 0.947087,2.12013 0.368366,1.7404 0.675119,6.70395 0.432398,6.99642 -0.143583,0.173 -1.042816,0.29015 -2.814353,0.36664 -6.624025,0.28603 -9.296383,1.93617 -6.448752,3.98199 0.527088,0.37868 1.011209,0.82627 1.07582,0.99465 0.38277,0.99749 -0.232719,2.05946 -1.536916,2.65179 -0.98035,0.44526 -2.932372,0.47959 -3.696434,0.065 z"
         id="path30785" />
      <path
         style="fill:#a0ca39;fill-opacity:1;stroke-width:0.196451"
         d="m 61.365301,240.52131 c -0.468795,-0.88874 -1.07236,-5.89354 -0.710744,-5.89354 0.04314,0 0.53827,0.30941 1.100226,0.68758 1.538208,1.03514 2.843169,0.88025 3.9815,-0.47258 2.075142,-2.46617 0.255789,-7.58192 -2.696415,-7.58192 -0.978599,0 -1.711721,0.4464 -2.424225,1.47611 -0.291881,0.42182 -0.619061,0.74113 -0.727064,0.70956 -0.56898,-0.16631 -1.151302,-3.10282 -1.348449,-6.79981 -0.120224,-2.25462 -0.04626,-2.35988 1.657697,-2.35988 0.756794,0 2.234437,-0.0938 3.283646,-0.20838 3.809115,-0.41607 5.738454,-1.21059 5.738454,-2.36314 0,-0.38396 -0.159829,-0.73419 -0.442014,-0.96858 -1.817407,-1.50959 -1.915402,-1.62063 -1.915402,-2.1705 0,-0.34877 0.231636,-0.82599 0.610211,-1.25716 1.298382,-1.47878 4.234682,-1.6281 5.374647,-0.27332 0.658621,0.78272 0.630124,1.11143 -0.20109,2.3198 -1.002484,1.45736 -0.907697,2.10424 0.404451,2.76031 0.919355,0.45968 1.170964,0.49066 3.929028,0.48384 4.242783,-0.0105 8.305957,-0.79717 15.709422,-3.0415 1.775234,-0.53815 3.327208,-0.97846 3.448828,-0.97846 0.308751,0 2.173704,2.06153 2.643674,2.92234 0.28946,0.53018 0.38876,1.08827 0.38884,2.18539 1.2e-4,1.75437 -0.49966,3.03677 -1.58094,4.05654 l -0.7037,0.66367 -0.0323,1.91271 c -0.037,2.19647 -0.3406,3.01849 -1.546877,4.18914 -0.85798,0.83263 -2.011094,1.19446 -3.264838,1.02445 -0.819296,-0.1111 -0.88197,-0.081 -1.712278,0.82341 -0.823061,0.89649 -0.899033,0.93376 -1.687842,0.82796 -0.459054,-0.0615 -1.206373,-0.37891 -1.682252,-0.71434 -1.02346,-0.72141 -1.086327,-0.72689 -1.853069,-0.16154 -0.518862,0.38257 -0.841438,0.44202 -2.398572,0.44202 -0.989506,0 -1.907234,0.0701 -2.039406,0.15568 -0.132163,0.0856 -0.39482,0.48344 -0.583673,0.88403 -0.559031,1.1858 -2.003083,2.48434 -3.313108,2.97927 -0.958462,0.3621 -1.401715,0.41979 -2.479607,0.32271 l -1.312513,-0.11822 -0.946678,1.00391 c -1.259098,1.33522 -2.294111,2.02675 -3.785252,2.52908 -1.068559,0.35997 -1.603324,0.40792 -3.980638,0.35694 -2.198337,-0.0472 -2.777273,-0.1177 -2.9017,-0.35358 z m 0.745545,-21.54708 c 0.141816,-0.0567 0.311253,-0.0498 0.376533,0.0155 0.06526,0.0653 -0.05079,0.11171 -0.257838,0.10318 -0.228859,-0.009 -0.275406,-0.056 -0.118695,-0.11869 z m 16.698363,-1.57161 c 0.141809,-0.0568 0.311253,-0.0498 0.376533,0.0155 0.06526,0.0653 -0.05079,0.11171 -0.257846,0.10318 -0.228858,-0.009 -0.275405,-0.056 -0.118687,-0.11869 z"
         id="path30787"
         sodipodi:nodetypes="sssssssssssssssssssssssccssssssscssscsssssssssssssss" />
      <path
         style="fill:#ec0e89;fill-opacity:1;stroke-width:0.196451"
         d="m 45.203753,267.81261 c -1.294826,-0.75418 -1.209083,-2.9169 0.353731,-8.9228 1.356973,-5.21487 1.537718,-6.54572 0.973653,-7.169 -0.497002,-0.54918 -1.109039,-0.49309 -2.204588,0.20202 -1.52684,0.96878 -3.212722,1.40845 -5.45834,1.42354 -1.70841,0.0115 -2.190392,-0.0656 -3.697163,-0.59178 -2.516486,-0.87868 -4.630817,-2.22211 -6.601735,-4.19471 -4.268674,-4.27231 -5.230626,-8.66009 -2.663189,-12.14771 0.46048,-0.62551 1.115819,-1.33566 1.456319,-1.57813 l 0.619083,-0.44082 -0.918947,-0.58278 -0.918946,-0.58278 -0.611733,0.57841 c -0.8604,0.81353 -1.33792,1.01846 -2.373185,1.01846 -1.746604,0 -3.223972,-1.00412 -4.191076,-2.84855 -0.645969,-1.23195 -0.716098,-3.13236 -0.157713,-4.27409 0.289037,-0.59101 0.31296,-0.79576 0.12012,-1.02812 -0.297168,-0.35806 -0.245706,-0.37929 4.123836,-1.70132 6.988597,-2.11446 12.042056,-3.11371 15.746858,-3.11371 2.335126,0 4.094723,0.26918 4.094723,0.6264 0,0.10276 -0.259627,0.56419 -0.576947,1.02539 -1.211719,1.76118 -0.7017,3.5724 1.256395,4.46185 0.9198,0.4178 2.728491,0.48229 3.876875,0.13823 0.943382,-0.28265 2.374537,-1.50724 2.711117,-2.31981 0.313109,-0.75592 0.149033,-2.0654 -0.325888,-2.60091 -0.198238,-0.22352 -0.697438,-0.65304 -1.109321,-0.95448 l -0.748886,-0.54808 0.475663,-0.31167 c 0.765414,-0.50152 2.98575,-0.88924 5.854802,-1.02239 1.940045,-0.09 2.710501,-0.0613 2.813284,0.10504 0.07785,0.12597 0.216942,1.48713 0.309078,3.02481 0.187858,3.13499 0.585589,5.16629 1.2398,6.3319 0.373785,0.66597 0.551449,0.79503 1.164986,0.84631 0.67085,0.0561 0.776551,-0.0128 1.441246,-0.93794 0.394523,-0.54914 0.889462,-1.09057 1.099862,-1.20317 0.591693,-0.31667 1.462704,-0.0217 2.108621,0.71388 1.025865,1.16839 1.274192,2.90745 0.620694,4.34676 -0.652287,1.43664 -1.628502,1.61655 -3.01735,0.55609 -1.095356,-0.83637 -1.727678,-0.87676 -2.306533,-0.14734 -0.390937,0.49263 -0.420347,0.70473 -0.333661,2.40653 0.09271,1.8201 0.539532,3.95362 1.346511,6.42949 l 0.3988,1.22354 -0.554828,1.01975 c -0.882467,1.62191 -2.104618,2.84047 -3.532098,3.52175 l -1.275262,0.60862 0.127553,0.755 c 0.234791,1.38971 -1.011127,5.0333 -3.533049,10.33214 -2.838573,5.96414 -5.37233,8.60419 -7.223172,7.52618 z"
         id="path30789" />
      <text
         xml:space="preserve"
         style="font-style:normal;font-weight:normal;font-size:13.0497px;line-height:1.25;font-family:sans-serif;fill:#1a1a1a;fill-opacity:1;stroke:none;stroke-width:0.326243"
         x="89.386093"
         y="233.80841"
         id="text30793"
         inkscape:export-filename="/home/peter/Documents/Projetos/EducaSomar/Eventos/Oficina_do_Cerebro_FE/assets/projectLogo.png"
         inkscape:export-xdpi="129.66"
         inkscape:export-ydpi="129.66"><tspan
           sodipodi:role="line"
           id="tspan30791"
           style="font-style:normal;font-variant:normal;font-weight:normal;font-stretch:normal;font-family:'Concert One';-inkscape-font-specification:'Concert One';fill:#1a1a1a;stroke-width:0.326243"
           x="89.386093"
           y="233.80841">OFICINA DO</tspan></text>
      <text
         xml:space="preserve"
         style="font-style:normal;font-weight:normal;font-size:34.8376px;line-height:1.25;font-family:sans-serif;fill:#000000;fill-opacity:1;stroke:#000000;stroke-width:0.870936"
         x="56.705872"
         y="259.40726"
         id="text30797"
         inkscape:export-filename="/home/peter/Documents/Projetos/EducaSomar/Eventos/Oficina_do_Cerebro_FE/assets/projectLogo.png"
         inkscape:export-xdpi="129.66"
         inkscape:export-ydpi="129.66"><tspan
           sodipodi:role="line"
           id="tspan30795"
           style="font-style:normal;font-variant:normal;font-weight:normal;font-stretch:normal;font-family:'Concert One';-inkscape-font-specification:'Concert One';fill:#000000;stroke:#000000;stroke-width:0.870936"
           x="56.705872"
           y="259.40726">CÉREBRO</tspan></text>
    </g>
  </g>
</svg>
