<?xml version="1.0" encoding="UTF-8" standalone="no"?>
<!-- Created with Inkscape (http://www.inkscape.org/) -->

<svg
   width="210mm"
   height="297mm"
   viewBox="0 0 210 297"
   version="1.1"
   id="svg5"
   inkscape:version="1.1 (1:1.1+202105261517+ce6663b3b7)"
   sodipodi:docname="design.svg"
   xmlns:inkscape="http://www.inkscape.org/namespaces/inkscape"
   xmlns:sodipodi="http://sodipodi.sourceforge.net/DTD/sodipodi-0.dtd"
   xmlns="http://www.w3.org/2000/svg"
   xmlns:svg="http://www.w3.org/2000/svg">
  <sodipodi:namedview
     id="namedview7"
     pagecolor="#ffffff"
     bordercolor="#666666"
     borderopacity="1.0"
     inkscape:pageshadow="2"
     inkscape:pageopacity="0"
     inkscape:pagecheckerboard="0"
     inkscape:document-units="mm"
     showgrid="false"
     inkscape:zoom="2.1506845"
     inkscape:cx="304.5542"
     inkscape:cy="768.12754"
     inkscape:window-width="1920"
     inkscape:window-height="1043"
     inkscape:window-x="0"
     inkscape:window-y="0"
     inkscape:window-maximized="1"
     inkscape:current-layer="layer1"
     inkscape:snap-to-guides="true" />
  <defs
     id="defs2" />
  <g
     inkscape:label="Layer 1"
     inkscape:groupmode="layer"
     id="layer1">
    <text
       xml:space="preserve"
       style="font-style:normal;font-weight:normal;font-size:10.5833px;line-height:1.25;font-family:sans-serif;fill:#1a1a1a;fill-opacity:1;stroke:none;stroke-width:0.264582"
       x="46.307335"
       y="60.920628"
       id="text6045"><tspan
         sodipodi:role="line"
         id="tspan6043"
         style="font-style:normal;font-variant:normal;font-weight:normal;font-stretch:normal;font-family:'Concert One';-inkscape-font-specification:'Concert One';stroke-width:0.264582;fill:#1a1a1a"
         x="46.307335"
         y="60.920628">OFICINA DO</tspan></text>
    <text
       xml:space="preserve"
       style="font-style:normal;font-weight:normal;font-size:28.2531px;line-height:1.25;font-family:sans-serif;fill:#000000;fill-opacity:1;stroke:#000000;stroke-width:0.706326"
       x="19.803793"
       y="81.681198"
       id="text15278"
       inkscape:export-filename="/home/peter/Documents/Projetos/EducaSomar/Eventos/OficinaCerebro/assets/cerebro.png"
       inkscape:export-xdpi="96"
       inkscape:export-ydpi="96"><tspan
         sodipodi:role="line"
         id="tspan15276"
         style="font-style:normal;font-variant:normal;font-weight:normal;font-stretch:normal;font-family:'Concert One';-inkscape-font-specification:'Concert One';stroke-width:0.706326;stroke:#000000;fill:#000000"
         x="19.803793"
         y="81.681198">CÉREBRO</tspan></text>
    <g
       id="g107690"
       transform="translate(63.09185,80.545325)"
       inkscape:export-filename="/home/peter/Documents/Projetos/EducaSomar/Eventos/OficinaCerebro/assets/logo.png"
       inkscape:export-xdpi="90.160004"
       inkscape:export-ydpi="90.160004">
      <path
         style="color:#000000;fill:#a0ca39;fill-opacity:1;stroke-width:0.999999;-inkscape-stroke:none"
         d="m 74.677734,426.52148 c -4.487179,-0.21868 -11.927381,3.04789 -14.478515,6.94141 -1.29577,1.9776 -2.475835,2.48892 -5.763672,2.50781 -2.27424,0.0121 -6.047264,0.89015 -8.384766,1.95118 -5.11632,2.32236 -5.577351,5.0341 -1.564453,9.22265 3.668202,3.82878 5.580775,3.58197 17.171875,-2.2207 14.24335,-7.1305 20.400214,-14.11792 15.558594,-17.65821 -0.624535,-0.45667 -1.50356,-0.69367 -2.539063,-0.74414 z"
         transform="scale(0.26458333)"
         id="path10974" />
      <path
         style="color:#000000;fill:#a44686;fill-opacity:1;stroke-width:0.999999;-inkscape-stroke:none"
         d="m -72.765625,416.8418 c -5.358671,0.0199 -9.241608,3.04251 -7.798828,8.79101 1.142944,4.55384 10.61214,13.31641 14.390625,13.31641 1.736617,0 4.324978,0.91618 5.75,2.03711 3.53085,2.77735 5.555448,2.12109 6.613281,-2.14649 1.326112,-5.34988 -0.05362,-10.51408 -3.96875,-14.84765 -4.380357,-4.84854 -10.258089,-7.16799 -14.986328,-7.15039 z"
         id="path10972"
         transform="scale(0.26458333)" />
      <path
         id="path10970"
         style="color:#000000;fill:#ec0e89;fill-opacity:1;stroke-width:0.999999;-inkscape-stroke:none"
         d="m -8.6308594,414.2793 c -0.7779224,-0.0172 -1.5962356,0.0277 -2.4648436,0.1289 -14.998481,1.74739 -19.103516,4.01283 -19.103516,10.54102 0,5.19413 -3.277527,8.37018 -12.269531,11.89062 l -2.769531,1.08399 0.263672,9.26172 c 0.144287,5.09461 -0.134326,12.94481 -0.619141,17.44336 -0.80547,7.47386 -0.689782,8.55179 1.341797,12.5 4.399173,8.54936 15.135589,17.23881 26.541015,21.48047 12.4279718,4.62193 21.1677527,2.51329 26.3085942,-6.34766 2.8985308,-4.99601 6.2319428,-8.59428 13.5156248,-14.58984 2.991768,-2.46271 5.692162,-6.0207 7.763672,-10.22852 l 3.177735,-6.45313 -2.648438,-5.41211 C 26.83313,448.27495 24.306446,445.24867 19.910156,443.00586 14.900207,440.44995 8.8285634,433.65942 4.8085938,426.11719 0.26011609,417.58338 -3.1854021,414.3998 -8.6308594,414.2793 Z m -15.1015626,29.17382 c 0.06002,-0.002 0.120239,-0.002 0.179688,0 2.092604,0.071 3.801498,2.50838 2.808593,5.63672 -0.782982,2.46698 -5.077496,2.43397 -6.40625,-0.0488 -0.77162,-1.44182 -0.595987,-2.43207 0.722657,-4.06055 0.837068,-1.03373 1.795028,-1.49968 2.695312,-1.52735 z m 30.2871095,4.53321 c 2.5858531,-0.0444 4.8665215,2.93506 3.2460937,5.96289 -0.588699,1.09999 -1.8652869,2 -2.8359374,2 -3.6069091,0 -5.476612,-4.28902 -2.9648438,-6.80078 0.796835,-0.79684 1.6927365,-1.14731 2.5546875,-1.16211 z m -34.3749995,9.96289 c 0.890568,0 1.53195,1.8531 1.910156,5.51758 2.07374,20.09261 26.9871446,22.70963 31.253906,3.2832 0.732,-3.33275 2.3596709,-4.57367 3.5253906,-2.6875 2.6605604,4.30484 -4.1179005,15.40353 -11.7695312,19.26953 -7.2480534,3.66206 -16.9419494,0.85621 -22.2226564,-6.43359 -4.809815,-6.63976 -6.561466,-18.94922 -2.697265,-18.94922 z"
         transform="scale(0.26458333)" />
      <path
         style="color:#000000;fill:#f5cd11;fill-opacity:1;stroke-width:0.999999;-inkscape-stroke:none"
         d="m 47.671875,386.28711 c -2.558007,0.0691 -4.506458,1.45812 -8.115234,4.96875 -3.008409,2.9266 -5.018058,6.15675 -6.652344,10.69336 -1.287882,3.57502 -3.640423,9.2178 -5.226563,12.53906 -0.71202,1.49092 -1.24663,2.61569 -1.623046,3.53125 0,0 0,0.002 0,0.002 -1.128382,2.74527 -0.830492,3.59821 0.394531,6.7168 0.568651,1.44765 1.273546,2.7295 1.875,3.48828 0,0 0,0.002 0,0.002 0.360465,0.45449 0.684998,0.7207 0.919922,0.7207 0.810511,0 2.659388,-1.57147 4.607421,-3.6543 0,0 0,-0.002 0,-0.002 0.8347,-0.89251 1.689271,-1.87811 2.486329,-2.875 0,0 0,-0.002 0,-0.002 1.594652,-1.99458 2.965664,-4.03076 3.521484,-5.44141 0.65862,-1.67155 2.709472,-4.91401 4.8125,-7.66406 0,0 0,-0.002 0,-0.002 0.300163,-0.39248 0.601985,-0.77423 0.900391,-1.14062 0,0 0,-0.002 0,-0.002 1.409703,-1.73074 2.670683,-3.33152 3.78125,-4.8125 0,0 0,-0.002 0,-0.002 7.775479,-10.36917 8.279877,-14.83179 2.396484,-16.41601 -1.627234,-0.43817 -2.915395,-0.67986 -4.078125,-0.64844 z"
         transform="scale(0.26458333)"
         id="path10968" />
      <path
         style="color:#000000;fill:#1894d0;fill-opacity:1;stroke-width:0.999999;-inkscape-stroke:none"
         d="m -21.417969,355.06055 c -1.476497,-0.0718 -3.051443,1.00285 -5.873047,3.63867 -0.347689,0.3248 -0.678527,0.6473 -0.990234,0.96875 -0.311707,0.32145 -0.604342,0.64084 -0.880859,0.96289 -3.872082,4.50897 -4.333504,9.26876 -2.470703,19.68945 0.897516,5.02076 1.943854,11.89517 2.324218,15.27539 0.750973,6.67386 2.059875,9.00185 5.431641,9.65821 6.694477,1.30314 7.520102,-0.37826 5.646484,-11.48633 -0.213019,-1.26292 -0.37972,-2.55914 -0.501953,-3.91211 -0.06112,-0.67649 -0.111771,-1.36606 -0.15039,-2.07422 -0.11586,-2.12447 -0.131094,-4.4064 -0.04688,-6.92578 0.02807,-0.8398 0.06715,-1.70568 0.117188,-2.60156 0.05004,-0.89589 0.111724,-1.82122 0.183594,-2.7793 0.26829,-3.5765 0.46002,-6.52803 0.570312,-8.95899 0.05515,-1.21547 0.08934,-2.30087 0.103516,-3.26953 0.02836,-1.93731 -0.02658,-3.40736 -0.167969,-4.51562 -0.03535,-0.27707 -0.07679,-0.53018 -0.123047,-0.76367 -0.04626,-0.23349 -0.097,-0.44741 -0.154297,-0.64063 -0.0573,-0.19321 -0.120994,-0.36525 -0.189453,-0.52148 -0.205375,-0.4687 -0.461517,-0.77939 -0.769531,-0.97461 -0.737666,-0.46754 -1.387459,-0.73687 -2.058594,-0.76953 z"
         transform="scale(0.26458333)"
         id="path10966" />
      <path
         style="color:#000000;fill:#ec0e89;fill-opacity:1;stroke-width:0.999999;-inkscape-stroke:none"
         d="m 15.832031,345.94922 c -5.8727506,0 -6.7767673,1.90553 -13.535156,28.55664 -5.8739528,23.1634 -6.4474787,27.73603 -3.8417969,30.61523 2.9782073,3.29091 11.0395242,0.98606 13.2089839,-3.77539 1.84043,-4.03929 5.121726,-18.36524 5.128907,-22.39648 0.0034,-1.92503 0.972779,-8.35473 2.154297,-14.28711 2.666052,-13.38618 1.779276,-18.71289 -3.115235,-18.71289 z"
         transform="scale(0.26458333)"
         id="path9493" />
    </g>
  </g>
</svg>
