<?xml version="1.0" encoding="UTF-8" standalone="no"?>
<!-- Created with Inkscape (http://www.inkscape.org/) -->

<svg
   width="184.99013mm"
   height="84.234833mm"
   version="1.1"
   viewBox="0 0 184.99013 84.234833"
   id="svg30"
   sodipodi:docname="projectLogo.svg"
   inkscape:version="1.1 (1:1.1+202105261517+ce6663b3b7)"
   xmlns:inkscape="http://www.inkscape.org/namespaces/inkscape"
   xmlns:sodipodi="http://sodipodi.sourceforge.net/DTD/sodipodi-0.dtd"
   xmlns="http://www.w3.org/2000/svg"
   xmlns:svg="http://www.w3.org/2000/svg">
  <defs
     id="defs34" />
  <sodipodi:namedview
     id="namedview32"
     pagecolor="#ffffff"
     bordercolor="#666666"
     borderopacity="1.0"
     inkscape:pageshadow="2"
     inkscape:pageopacity="0.0"
     inkscape:pagecheckerboard="0"
     inkscape:document-units="mm"
     showgrid="false"
     inkscape:zoom="0.77593294"
     inkscape:cx="359.56716"
     inkscape:cy="398.23029"
     inkscape:window-width="1920"
     inkscape:window-height="1043"
     inkscape:window-x="0"
     inkscape:window-y="0"
     inkscape:window-maximized="1"
     inkscape:current-layer="svg30" />
  <g
     id="brain"
     transform="translate(-2.3193314,-43.306683)">
    <path
       d="m 30.893,81.719 c -1.3462,-0.73044 -1.4482,-1.9195 -0.29518,-3.4422 0.62265,-0.82229 0.70852,-1.153 0.50205,-1.9334 -0.1156,-0.43694 -0.41385,-0.68287 -1.1925,-0.9833 -1.5772,-0.60856 -7.5517,-0.55457 -11.02,0.09957 -3.2222,0.60769 -7.5875,1.7289 -12.134,3.1166 -1.9482,0.59466 -3.7562,1.0812 -4.0178,1.0812 -0.45172,0 -0.46974,-0.07169 -0.36038,-1.4342 0.086392,-1.0763 0.27696,-1.6945 0.7637,-2.4775 0.52135,-0.83867 0.66933,-1.3611 0.7543,-2.6629 0.15925,-2.4398 1.2045,-4.1907 3.3073,-5.5401 l 1.0743,-0.68939 0.03849,-1.519 c 0.06243,-2.4644 1.3986,-4.3631 3.8873,-5.5239 0.88803,-0.4142 1.317,-0.7585 1.4761,-1.1848 0.12338,-0.3305 0.34472,-0.92048 0.49187,-1.3111 0.47712,-1.2664 1.9288,-2.4859 3.5584,-2.9893 0.8054,-0.24876 1.8965,-0.4523 2.4247,-0.4523 0.52815,0 0.96028,-0.10053 0.96028,-0.22339 0,-0.49606 1.8294,-2.1626 2.9003,-2.6422 0.93372,-0.41812 1.5269,-0.5135 3.2504,-0.52264 l 2.1082,-0.01117 1.0367,-1.153 c 0.57017,-0.63417 1.5389,-1.408 2.1527,-1.7195 1.3418,-0.68108 3.5096,-0.89745 5.1202,-0.51106 l 1.1029,0.26457 0.95984,-1.0017 c 0.99096,-1.0342 1.4618,-1.2126 1.8778,-0.71133 0.38794,0.46743 1.7034,5.5474 1.9827,7.6568 0.2228,1.6825 0.17813,2.9394 -0.12271,3.4535 -0.04741,0.08103 -0.58655,-0.18938 -1.1981,-0.60091 -2.0214,-1.3603 -3.8287,-0.865 -4.9102,1.3456 -0.51088,1.0442 -0.57208,1.3875 -0.47909,2.6872 0.32374,4.5246 4.6383,6.571 6.7274,3.1907 0.25864,-0.41848 0.55804,-0.76088 0.66533,-0.76088 0.30068,0 0.7827,1.079 1.0534,2.3582 0.40973,1.9358 0.75093,7.4568 0.48095,7.7821 -0.15971,0.19242 -1.1599,0.32273 -3.1304,0.40782 -7.3679,0.31815 -10.34,2.1536 -7.1729,4.4291 0.58628,0.4212 1.1248,0.91905 1.1966,1.1063 0.42575,1.1095 -0.25885,2.2907 -1.7095,2.9496 -1.0904,0.49525 -3.2617,0.53344 -4.1115,0.0723 z"
       fill="#1894d0"
       id="brain1"
       style="stroke-width:0.21851" />
    <path
       d="m 47.452,72.829 c -0.04724,-0.15023 -0.15007,-1.4531 -0.22852,-2.8953 -0.261,-4.7984 -1.0167,-7.7767 -2.164,-8.5284 -0.79297,-0.51957 -1.5063,-0.20438 -2.4902,1.1003 -0.69929,0.92726 -0.94739,1.1016 -1.6506,1.16 -0.70388,0.05846 -0.93301,-0.04306 -1.533,-0.67922 -1.5707,-1.6654 -1.631,-4.8524 -0.11206,-5.9163 0.77416,-0.54224 1.4506,-0.43279 2.617,0.42345 1.2633,0.92736 2.0128,0.93383 2.6894,0.02324 0.8834,-1.189 0.43537,-5.6035 -1.0838,-10.679 -0.29336,-0.98012 -0.53338,-1.9087 -0.53338,-2.0636 0,-0.50655 0.86594,-0.76081 2.5782,-0.75699 1.8241,0.004 3.1616,0.37358 4.4642,1.2333 0.4481,0.29578 0.92466,0.53778 1.059,0.53778 0.13436,0 0.6851,-0.38801 1.2239,-0.86225 1.2567,-1.1062 2.8193,-1.6434 4.7075,-1.6185 1.679,0.02213 3.3629,0.70991 4.4074,1.8001 l 0.61813,0.64519 0.68628,-0.41847 c 0.87786,-0.53529 2.7374,-0.55603 3.8194,-0.0426 0.43755,0.20763 1.2391,0.83418 1.7811,1.3923 0.85807,0.88355 1.1321,1.031 2.1178,1.14 0.62273,0.06884 1.5144,0.32014 1.9815,0.55843 1.0694,0.54557 2.3245,1.9212 2.6998,2.9592 0.28116,0.77753 0.30912,0.79312 1.1865,0.66156 1.7373,-0.26053 3.4851,0.89769 4.388,2.9079 0.42598,0.94837 0.61165,1.1472 1.0713,1.1472 1.9281,0 4.0382,2.3944 4.0382,4.5823 0,0.63476 0.47408,1.1774 1.2292,1.4069 1.1491,0.34932 2.704,2.4951 2.704,3.7315 0,0.63244 -1.0082,1.0214 -7.4096,2.859 -7.669,2.2014 -14.181,3.1434 -17.217,2.4905 -1.6836,-0.36217 -1.7296,-0.44465 -0.90215,-1.6186 1.899,-2.6942 0.04509,-5.4797 -3.6427,-5.473 -2.8229,0.005 -5.0565,1.556 -5.2956,3.677 -0.13928,1.2357 0.34265,2.1585 1.5843,3.0337 0.52892,0.37282 0.91163,0.75884 0.85046,0.85782 -0.55287,0.89456 -9.9891,2.0222 -10.24,1.2237 z"
       fill="#f5cd11"
       id="brain2"
       style="stroke-width:0.21851" />
    <path
       d="m 50.396,96.92 c -0.52144,-0.98854 -1.1928,-6.5554 -0.79056,-6.5554 0.04798,0 0.59871,0.34416 1.2238,0.76479 1.7109,1.1514 3.1624,0.9791 4.4286,-0.52564 2.3082,-2.7431 0.28451,-8.4333 -2.9992,-8.4333 -1.0885,0 -1.9039,0.49653 -2.6964,1.6419 -0.32466,0.46919 -0.68858,0.82436 -0.80871,0.78924 -0.63287,-0.18498 -1.2806,-3.4512 -1.4999,-7.5634 -0.13372,-2.5078 -0.05145,-2.6249 1.8438,-2.6249 0.84178,0 2.4854,-0.1043 3.6524,-0.23178 4.2369,-0.46279 6.3828,-1.3465 6.3828,-2.6285 0,-0.42707 -0.17778,-0.81664 -0.49165,-1.0773 -2.0215,-1.6791 -2.1305,-1.8026 -2.1305,-2.4142 0,-0.38793 0.25765,-0.91874 0.67873,-1.3983 1.4442,-1.6448 4.7102,-1.8109 5.9782,-0.30402 0.73258,0.87062 0.70088,1.2362 -0.22367,2.5803 -1.1151,1.621 -1.0096,2.3405 0.44987,3.0703 1.0226,0.5113 1.3025,0.54576 4.3702,0.53817 4.7192,-0.01167 9.2387,-0.88668 17.473,-3.383 1.9746,-0.59859 3.7008,-1.0883 3.8361,-1.0883 0.34342,0 2.4178,2.293 2.9405,3.2505 0.32196,0.58972 0.43242,1.2105 0.4325,2.4308 1.33e-4,1.9514 -0.55577,3.3778 -1.7585,4.5121 l -0.78272,0.7382 -0.03593,2.1275 c -0.04115,2.4431 -0.37885,3.3574 -1.7206,4.6596 -0.95432,0.92613 -2.2369,1.3286 -3.6315,1.1395 -0.9113,-0.12357 -0.98101,-0.0901 -1.9046,0.91588 -0.91548,0.99716 -0.99999,1.0386 -1.8774,0.92093 -0.5106,-0.0685 -1.3418,-0.42146 -1.8712,-0.79455 -1.1384,-0.80242 -1.2083,-0.80852 -2.0612,-0.1797 -0.57713,0.42554 -0.93593,0.49166 -2.6679,0.49166 -1.1006,0 -2.1214,0.078 -2.2684,0.17316 -0.147,0.0952 -0.43916,0.53774 -0.64922,0.98331 -0.62181,1.319 -2.228,2.7633 -3.6851,3.3138 -1.0661,0.40276 -1.5591,0.46693 -2.758,0.35894 l -1.4599,-0.13149 -1.053,1.1166 c -1.4005,1.4852 -2.5517,2.2543 -4.2103,2.8131 -1.1886,0.40039 -1.7834,0.45373 -4.4276,0.39702 -2.4452,-0.0525 -3.0891,-0.13091 -3.2275,-0.39328 z m 0.82926,-23.967 c 0.15774,-0.06312 0.3462,-0.05536 0.41882,0.01724 0.07259,0.07261 -0.05649,0.12426 -0.28679,0.11477 -0.25456,-0.01046 -0.30633,-0.06227 -0.13202,-0.13202 z m 18.573,-1.7481 c 0.15773,-0.06312 0.3462,-0.05536 0.41882,0.01724 0.07259,0.07261 -0.05649,0.12425 -0.2868,0.11477 -0.25456,-0.01046 -0.30633,-0.06227 -0.13202,-0.13202 z"
       fill="#a0ca39"
       id="brain4"
       style="stroke-width:0.21851" />
    <path
       d="m 32.419,127.28 c -1.4402,-0.83887 -1.3449,-3.2444 0.39345,-9.9248 1.5094,-5.8005 1.7104,-7.2808 1.083,-7.974 -0.55281,-0.61085 -1.2336,-0.54846 -2.4521,0.2247 -1.6983,1.0776 -3.5735,1.5666 -6.0713,1.5834 -1.9003,0.0128 -2.4364,-0.073 -4.1123,-0.65824 -2.7991,-0.97735 -5.1508,-2.4716 -7.3431,-4.6657 -4.748,-4.7521 -5.818,-9.6326 -2.9622,-13.512 0.51219,-0.69575 1.2411,-1.4857 1.6199,-1.7553 l 0.6886,-0.49033 -2.0443,-1.2964 -0.68043,0.64336 c -0.95702,0.90489 -1.4882,1.1328 -2.6397,1.1328 -1.9427,0 -3.586,-1.1169 -4.6617,-3.1684 -0.71851,-1.3703 -0.79651,-3.4841 -0.17542,-4.754 0.32149,-0.65738 0.3481,-0.88511 0.13361,-1.1436 -0.33054,-0.39827 -0.2733,-0.42188 4.5869,-1.8924 7.7734,-2.3519 13.394,-3.4634 17.515,-3.4634 2.5973,0 4.5545,0.2994 4.5545,0.69673 0,0.1143 -0.28878,0.62755 -0.64174,1.1405 -1.3478,1.9589 -0.7805,3.9736 1.3975,4.9629 1.0231,0.46472 3.0349,0.53645 4.3122,0.15375 1.0493,-0.31438 2.6412,-1.6765 3.0156,-2.5803 0.34827,-0.8408 0.16577,-2.2973 -0.36248,-2.893 -0.2205,-0.24863 -0.77576,-0.72638 -1.2339,-1.0617 l -0.83298,-0.60962 0.52908,-0.34667 c 0.85136,-0.55783 3.321,-0.9891 6.5123,-1.1372 2.1579,-0.10014 3.0149,-0.06815 3.1292,0.11684 0.08659,0.14011 0.2413,1.6541 0.34378,3.3645 0.20895,3.487 0.65135,5.7464 1.379,7.0429 0.41576,0.74076 0.61337,0.88431 1.2958,0.94135 0.74618,0.0624 0.86375,-0.0142 1.6031,-1.0433 0.43882,-0.6108 0.98934,-1.213 1.2234,-1.3383 0.65814,-0.35222 1.627,-0.0242 2.3454,0.79404 1.1411,1.2996 1.4173,3.234 0.69039,4.8349 -0.72553,1.598 -1.8114,1.7981 -3.3562,0.61854 -1.2184,-0.93029 -1.9217,-0.97522 -2.5655,-0.16389 -0.43484,0.54794 -0.46755,0.78387 -0.37113,2.6768 0.10312,2.0245 0.60012,4.3976 1.4977,7.1515 l 0.44358,1.3609 -0.61713,1.1343 c -0.98156,1.804 -2.341,3.1594 -3.9287,3.9172 l -1.4185,0.67697 0.14188,0.83978 c 0.26116,1.5458 -1.1247,5.5985 -3.9298,11.492 -3.1573,6.6339 -5.9756,9.5704 -8.0343,8.3713 z"
       fill="#ec0e89"
       id="brain3"
       style="stroke-width:0.21851" />
  </g>
  <path
     d="m 83.140009,36.167858 c -0.08977,0 -0.229579,0.007 -0.418566,0.02119 -0.188997,0.01418 -0.401447,0.05174 -0.637691,0.113169 -0.231518,0.06142 -0.47254,0.153621 -0.722938,0.27646 -0.245694,0.118122 -0.47217,0.283471 -0.68005,0.496087 -0.203168,0.212622 -0.371021,0.479684 -0.503311,0.80099 -0.132295,0.31657 -0.198435,0.701375 -0.198435,1.154945 v 4.238571 c 0,0.467778 0.06614,0.864595 0.198435,1.19061 0.132296,0.326016 0.30014,0.59758 0.503311,0.814933 0.207896,0.217344 0.434361,0.390229 0.68005,0.517783 0.250417,0.122845 0.491431,0.214524 0.722938,0.275957 0.236244,0.06142 0.448675,0.09951 0.637691,0.113687 0.188995,0.01418 0.328794,0.02119 0.418566,0.02119 h 0.240807 c 0.08978,0 0.229063,-0.007 0.418063,-0.02119 0.188995,-0.01418 0.399436,-0.05226 0.63097,-0.113687 0.231518,-0.06142 0.470027,-0.153102 0.715716,-0.275957 0.250419,-0.12757 0.474894,-0.300457 0.673329,-0.517783 0.203169,-0.217345 0.368507,-0.488917 0.496088,-0.814933 0.132295,-0.326015 0.198435,-0.722832 0.198435,-1.19061 v -4.238571 c 0,-0.453596 -0.06614,-0.838375 -0.198435,-1.154945 -0.127573,-0.321306 -0.292917,-0.588347 -0.496088,-0.80099 -0.198445,-0.212619 -0.422904,-0.377979 -0.673329,-0.496087 -0.245692,-0.122845 -0.484182,-0.215037 -0.715716,-0.27646 -0.23152,-0.06142 -0.441954,-0.099 -0.63097,-0.113169 -0.189016,-0.01418 -0.328291,-0.02119 -0.418063,-0.02119 z m 19.404821,0 c -0.61895,0.03307 -1.1696,0.162841 -1.65156,0.389647 -0.20789,0.09922 -0.41081,0.224485 -0.60924,0.375677 -0.19845,0.146471 -0.375814,0.330857 -0.531758,0.552919 -0.151199,0.217345 -0.273946,0.474895 -0.368454,0.772547 -0.0945,0.297679 -0.141592,0.639887 -0.141592,1.027311 v 3.954678 c 0,0.472487 0.06614,0.874331 0.198435,1.205082 0.132292,0.326016 0.300139,0.600094 0.50331,0.822156 0.207899,0.217345 0.436879,0.387186 0.687299,0.510031 0.25042,0.122842 0.49395,0.215037 0.73019,0.27646 0.23624,0.06142 0.44867,0.09899 0.63769,0.113168 0.19372,0.01418 0.333,0.0217 0.41806,0.0217 0.52919,0 1.01371,-0.07367 1.45313,-0.220139 0.44415,-0.151194 0.82443,-0.368136 1.141,-0.651634 0.32131,-0.283497 0.56932,-0.628721 0.74413,-1.035063 0.17482,-0.411052 0.262,-0.876554 0.262,-1.396268 0,-0.02363 -0.007,-0.07323 -0.0212,-0.148826 -0.009,-0.08032 -0.0495,-0.160487 -0.1204,-0.240811 -0.0709,-0.08504 -0.1841,-0.158195 -0.34004,-0.219622 -0.15119,-0.06615 -0.36866,-0.09922 -0.65213,-0.09922 -0.2835,0 -0.50797,0.02103 -0.67333,0.06356 -0.16537,0.04253 -0.29065,0.09715 -0.37568,0.163296 -0.0851,0.06142 -0.13918,0.13007 -0.16278,0.205669 -0.0236,0.0756 -0.0357,0.148749 -0.0357,0.219622 0,0.222068 -0.0165,0.43452 -0.0496,0.637691 -0.0284,0.203171 -0.0825,0.38253 -0.16278,0.538473 -0.0803,0.15592 -0.19157,0.281196 -0.33332,0.375678 -0.14174,0.08977 -0.32363,0.134874 -0.5457,0.134874 -0.23151,0 -0.41089,-0.05662 -0.53847,-0.170013 -0.12282,-0.113397 -0.2125,-0.238662 -0.26924,-0.375678 -0.0661,-0.155922 -0.10422,-0.337815 -0.11368,-0.545696 v -4.493626 c 0.009,-0.170096 0.0476,-0.323423 0.11368,-0.460423 0.0567,-0.113399 0.14638,-0.217109 0.26924,-0.311595 0.12757,-0.09922 0.30694,-0.148827 0.53847,-0.148827 0.22208,0 0.40396,0.03757 0.5457,0.113172 0.14175,0.0756 0.25298,0.184327 0.33332,0.326068 0.0803,0.141746 0.13444,0.31411 0.16278,0.51728 0.0331,0.203169 0.0496,0.432139 0.0496,0.687274 0,0.16537 0.0471,0.295641 0.1416,0.390149 0.0945,0.08977 0.20824,0.160415 0.34054,0.212389 0.1323,0.04725 0.26908,0.07781 0.41081,0.09198 0.14175,0.0094 0.26,0.01447 0.35449,0.01447 0.28349,0 0.50095,-0.03307 0.65213,-0.09922 0.15593,-0.06615 0.26916,-0.14631 0.34004,-0.240807 0.0708,-0.0945 0.11094,-0.191712 0.1204,-0.290932 0.0142,-0.103948 0.0212,-0.191125 0.0212,-0.261998 0,-0.16537 -0.014,-0.361787 -0.0424,-0.588585 -0.0236,-0.226792 -0.0777,-0.462777 -0.16278,-0.708466 -0.0803,-0.245694 -0.19858,-0.486694 -0.35448,-0.722938 -0.15592,-0.240969 -0.36385,-0.455924 -0.62372,-0.644914 -0.25515,-0.188994 -0.57181,-0.342313 -0.94979,-0.460422 -0.37327,-0.118122 -0.8197,-0.177247 -1.33944,-0.177247 z m 43.41758,0 c -0.0898,0 -0.22906,0.007 -0.41806,0.02119 -0.189,0.01418 -0.40195,0.05174 -0.63819,0.113169 -0.23152,0.06142 -0.47201,0.153621 -0.72244,0.27646 -0.2457,0.118122 -0.47267,0.283471 -0.68058,0.496087 -0.20317,0.212622 -0.37102,0.479684 -0.50334,0.80099 -0.13229,0.31657 -0.19843,0.701375 -0.19843,1.154945 v 4.238571 c 0,0.467778 0.0661,0.864595 0.19843,1.19061 0.13231,0.326016 0.30014,0.59758 0.50334,0.814933 0.20789,0.217344 0.43487,0.390229 0.68058,0.517783 0.25042,0.122845 0.4909,0.214524 0.72244,0.275957 0.23624,0.06142 0.4492,0.09951 0.63819,0.113687 0.18899,0.01418 0.32829,0.02119 0.41806,0.02119 h 0.24081 c 0.0898,0 0.22958,-0.007 0.41857,-0.02119 0.189,-0.01418 0.39893,-0.05226 0.63044,-0.113687 0.23152,-0.06142 0.47003,-0.153102 0.71572,-0.275957 0.25041,-0.12757 0.47489,-0.300457 0.67332,-0.517783 0.20318,-0.217345 0.36851,-0.488917 0.49609,-0.814933 0.1323,-0.326015 0.19844,-0.722832 0.19844,-1.19061 v -4.238571 c 0,-0.453596 -0.0661,-0.838375 -0.19844,-1.154945 -0.12757,-0.321306 -0.29291,-0.588347 -0.49609,-0.80099 -0.19844,-0.212619 -0.4229,-0.377979 -0.67332,-0.496087 -0.2457,-0.122845 -0.48419,-0.215037 -0.71572,-0.27646 -0.23152,-0.06142 -0.44145,-0.099 -0.63044,-0.113169 -0.18899,-0.01418 -0.32879,-0.02119 -0.41857,-0.02119 z m -56.654512,0.05633 c -0.269316,0 -0.47725,0.04761 -0.623721,0.142109 -0.146474,0.0945 -0.252693,0.219762 -0.318846,0.375677 -0.06615,0.151197 -0.106747,0.323555 -0.120921,0.51728 -0.0094,0.19372 -0.01394,0.392134 -0.01394,0.595305 v 6.662124 c 0,0.207894 0.0045,0.40883 0.01394,0.602529 0.01418,0.19372 0.05478,0.368586 0.120921,0.524503 0.06615,0.151197 0.172369,0.273946 0.318846,0.368454 0.146471,0.08977 0.354405,0.134356 0.623721,0.134356 0.26458,0 0.470026,-0.04458 0.616497,-0.134356 0.146475,-0.0945 0.252695,-0.217252 0.318846,-0.368454 0.07088,-0.15592 0.110957,-0.330778 0.120405,-0.524503 0.01418,-0.193721 0.02119,-0.394648 0.02119,-0.602529 V 42.26259 h 0.892957 c 0.188995,0 0.380387,-0.007 0.574112,-0.02119 0.193721,-0.01418 0.368587,-0.05426 0.524504,-0.120405 0.155919,-0.06615 0.283682,-0.169857 0.382926,-0.311596 0.09924,-0.141738 0.148827,-0.34017 0.148827,-0.595305 0,-0.255145 -0.05212,-0.453569 -0.156063,-0.595305 -0.09922,-0.141748 -0.226996,-0.245977 -0.382927,-0.312125 -0.155922,-0.06615 -0.330275,-0.106231 -0.524,-0.120405 -0.193726,-0.01418 -0.383139,-0.02119 -0.567392,-0.02119 h -0.892958 v -1.842746 h 1.686698 c 0.188995,0 0.380387,-0.0095 0.574112,-0.02842 0.193726,-0.01889 0.368587,-0.06349 0.524503,-0.134359 0.15592,-0.07087 0.283683,-0.175099 0.382927,-0.312125 0.09922,-0.141746 0.148826,-0.333159 0.148826,-0.574112 0,-0.240953 -0.0496,-0.429863 -0.148826,-0.566889 -0.09922,-0.141746 -0.226999,-0.247967 -0.382927,-0.318845 -0.155922,-0.07087 -0.330777,-0.115974 -0.524503,-0.134875 -0.19372,-0.01889 -0.385123,-0.02842 -0.574112,-0.02842 h -2.763538 z m 6.945225,0 c -0.274052,0 -0.488997,0.04761 -0.644914,0.142109 -0.15592,0.0945 -0.274158,0.219762 -0.354484,0.375677 -0.0756,0.151197 -0.1252,0.323555 -0.148827,0.51728 -0.01889,0.19372 -0.02791,0.392134 -0.02791,0.595305 v 6.662124 c 0,0.207894 0.009,0.40883 0.02791,0.602529 0.02363,0.19372 0.07323,0.368586 0.148827,0.524503 0.08032,0.151197 0.198575,0.273946 0.354484,0.368454 0.155922,0.08977 0.370862,0.134356 0.644914,0.134356 0.274052,0 0.488996,-0.04458 0.644913,-0.134356 0.160648,-0.0945 0.278894,-0.217252 0.354485,-0.368454 0.08032,-0.15592 0.129924,-0.330778 0.148826,-0.524503 0.01889,-0.193721 0.02842,-0.394648 0.02842,-0.602529 v -6.662124 c 0,-0.203171 -0.01204,-0.401579 -0.03566,-0.595305 -0.01889,-0.19372 -0.0685,-0.366073 -0.148827,-0.51728 -0.07559,-0.15592 -0.191339,-0.281196 -0.347261,-0.375677 -0.15592,-0.0945 -0.370862,-0.142109 -0.644914,-0.142109 z m 12.587127,0 c -0.27405,0 -0.489,0.04761 -0.64491,0.142109 -0.15593,0.0945 -0.27419,0.219762 -0.35449,0.375677 -0.0756,0.151197 -0.12522,0.323555 -0.14882,0.51728 -0.019,0.19372 -0.0284,0.392134 -0.0284,0.595305 v 6.662124 c 0,0.207894 0.009,0.40883 0.0284,0.602529 0.0236,0.19372 0.0732,0.368586 0.14882,0.524503 0.0803,0.151197 0.19857,0.273946 0.35449,0.368454 0.15592,0.08977 0.37086,0.134356 0.64491,0.134356 0.27405,0 0.489,-0.04458 0.64492,-0.134356 0.16064,-0.0945 0.27889,-0.217252 0.35448,-0.368454 0.0803,-0.15592 0.12989,-0.330778 0.14883,-0.524503 0.0189,-0.193726 0.0284,-0.394648 0.0284,-0.602529 v -6.662124 c 0,-0.203171 -0.0121,-0.401579 -0.0357,-0.595305 -0.0189,-0.19372 -0.0685,-0.366073 -0.14883,-0.51728 -0.0756,-0.15592 -0.19134,-0.281196 -0.34726,-0.375677 -0.15592,-0.0945 -0.37086,-0.142109 -0.64491,-0.142109 z m 4.46479,0 c -0.26461,0 -0.47003,0.04761 -0.6165,0.142109 -0.14176,0.08977 -0.24547,0.212526 -0.31159,0.368454 -0.0661,0.151197 -0.10621,0.326068 -0.12041,0.524503 -0.009,0.19372 -0.0145,0.392134 -0.0145,0.595305 v 7.186522 c 0,0.151197 0.01,0.29498 0.0284,0.432006 0.0189,0.132298 0.064,0.248039 0.13487,0.347262 0.0709,0.09922 0.1771,0.179901 0.31885,0.241326 0.14175,0.0567 0.33565,0.08475 0.58136,0.08475 0.21734,0 0.38719,-0.02805 0.51003,-0.08475 0.12759,-0.06142 0.2223,-0.142104 0.28371,-0.241326 0.0661,-0.09922 0.10819,-0.214964 0.12712,-0.347262 0.0189,-0.13702 0.0284,-0.280825 0.0284,-0.432006 v -5.882672 h 0.17053 l 2.1404,5.797477 c 0.0331,0.0945 0.0777,0.210241 0.13436,0.347262 0.0614,0.13702 0.14159,0.269289 0.24081,0.39687 0.0992,0.122847 0.22249,0.229068 0.36896,0.318845 0.15119,0.08505 0.33757,0.127639 0.55964,0.127639 h 0.93534 c 0.25987,0 0.46079,-0.04458 0.60255,-0.134357 0.14649,-0.0945 0.25073,-0.217252 0.31213,-0.368454 0.0661,-0.15592 0.1037,-0.330778 0.11317,-0.524503 0.0142,-0.19372 0.0212,-0.394648 0.0212,-0.602528 v -7.186522 c 0,-0.151197 -0.009,-0.292996 -0.0284,-0.425286 -0.0189,-0.137024 -0.0635,-0.255275 -0.13436,-0.354484 -0.0709,-0.09922 -0.17709,-0.176875 -0.31884,-0.233574 -0.13702,-0.06142 -0.32644,-0.0925 -0.56739,-0.0925 -0.21735,0 -0.3897,0.03107 -0.51728,0.0925 -0.12287,0.0567 -0.21705,0.134353 -0.28318,0.233574 -0.0614,0.09922 -0.10199,0.217474 -0.12092,0.354484 -0.0189,0.132295 -0.0284,0.274105 -0.0284,0.425286 v 5.882142 h -0.17001 l -2.25359,-6.109152 c -0.0614,-0.16537 -0.14409,-0.311675 -0.24804,-0.439256 -0.0945,-0.108671 -0.21725,-0.20788 -0.36845,-0.297652 -0.14648,-0.0945 -0.33787,-0.142109 -0.57412,-0.142109 h -0.93584 z m 11.08484,0 c -0.26458,0 -0.48206,0.03809 -0.65213,0.113687 -0.17009,0.07087 -0.30938,0.16757 -0.41807,0.290403 -0.10869,0.118122 -0.19638,0.259924 -0.26251,0.425286 -0.0661,0.160645 -0.12275,0.328503 -0.17001,0.503311 -0.23625,0.826865 -0.48427,1.663097 -0.74414,2.508853 -0.25987,0.841021 -0.50788,1.672781 -0.74413,2.49491 -0.005,0.151197 -0.01,0.311517 -0.0145,0.481615 -0.005,0.165371 -0.009,0.333239 -0.0139,0.503337 l -0.0145,0.503311 v 0.467671 0.212387 c 0,0.179546 0.005,0.354405 0.0145,0.524503 0.009,0.165371 0.0451,0.316702 0.10645,0.453702 0.0614,0.132295 0.15812,0.238516 0.29043,0.318845 0.1323,0.08032 0.3212,0.120403 0.56689,0.120403 0.24569,0 0.43457,-0.04008 0.56689,-0.120403 0.13232,-0.08032 0.22953,-0.186545 0.29093,-0.318845 0.0661,-0.132298 0.1037,-0.28363 0.11317,-0.453702 0.0142,-0.170096 0.0212,-0.344959 0.0212,-0.524503 V 43.73678 h 2.83498 v 0.992175 c 0,0.179546 0.005,0.354405 0.0145,0.524503 0.0142,0.170096 0.0518,0.321412 0.11317,0.453702 0.0661,0.132295 0.16535,0.238516 0.29765,0.318845 0.1323,0.08032 0.3212,0.120403 0.56689,0.120403 0.24097,0 0.42788,-0.04008 0.56017,-0.120403 0.13232,-0.08032 0.22902,-0.186545 0.2904,-0.318845 0.0614,-0.137023 0.097,-0.288339 0.10646,-0.453702 0.0142,-0.170096 0.0212,-0.344959 0.0212,-0.524503 v -0.212387 c 0,-0.311834 -0.007,-0.635521 -0.0212,-0.970982 -0.0141,-0.335461 -0.0262,-0.663646 -0.0357,-0.984952 l -1.47379,-5.003737 c -0.052,-0.174821 -0.11112,-0.342684 -0.17725,-0.50331 -0.0614,-0.165371 -0.14661,-0.307178 -0.25528,-0.425286 -0.10867,-0.122847 -0.25047,-0.219543 -0.42529,-0.290403 -0.17009,-0.0756 -0.38504,-0.113688 -0.64491,-0.113688 h -0.70846 z m 11.94896,0 c -0.26931,0 -0.47724,0.04761 -0.62372,0.142109 -0.14648,0.08977 -0.2527,0.210018 -0.31884,0.361204 -0.0661,0.151197 -0.10621,0.323555 -0.12041,0.517281 -0.009,0.19372 -0.0145,0.392134 -0.0145,0.595305 v 6.676411 c 0,0.207894 0.005,0.408829 0.0145,0.602528 0.0142,0.193721 0.0543,0.368587 0.12041,0.524504 0.0661,0.151197 0.17236,0.273946 0.31884,0.368454 0.14648,0.08977 0.35441,0.134356 0.62372,0.134356 h 2.35281 c 0.515,-0.02835 0.97598,-0.151104 1.38232,-0.368454 0.1701,-0.08977 0.33795,-0.205515 0.50334,-0.347261 0.16537,-0.146472 0.31168,-0.321333 0.43926,-0.524504 0.1323,-0.207893 0.23852,-0.450897 0.31884,-0.729658 0.0803,-0.283498 0.12041,-0.609672 0.12041,-0.978232 v -4.39388 c 0,-0.429969 -0.0802,-0.805752 -0.24081,-1.127058 -0.15593,-0.321306 -0.37338,-0.588346 -0.65214,-0.800989 -0.27405,-0.217345 -0.59771,-0.380175 -0.97098,-0.488838 -0.36854,-0.108674 -0.76789,-0.163296 -1.19786,-0.163296 h -2.05515 z m 1.07745,1.658784 h 0.92138 c 0.20317,0.01418 0.38504,0.06577 0.54569,0.155544 0.0662,0.0378 0.13231,0.0874 0.19844,0.148827 0.0661,0.06142 0.12525,0.137084 0.17725,0.226856 0.052,0.08977 0.0921,0.195995 0.1204,0.318845 0.0331,0.118124 0.0496,0.25542 0.0496,0.411343 v 4.181686 c 0,0.141747 -0.0165,0.267015 -0.0496,0.375678 -0.0283,0.108671 -0.0684,0.202861 -0.1204,0.28318 -0.052,0.0756 -0.11112,0.141735 -0.17725,0.198435 -0.0662,0.0567 -0.1323,0.101802 -0.19844,0.134875 -0.16064,0.08504 -0.34252,0.132136 -0.54569,0.14159 h -0.92138 v -6.57667 z M 83.269997,37.99614 c 0.226792,0 0.401659,0.0496 0.524503,0.148826 0.122845,0.0945 0.215038,0.198723 0.27646,0.312125 0.06615,0.137021 0.106231,0.29035 0.120405,0.460422 v 4.62089 c -0.01418,0.174821 -0.05426,0.328661 -0.120405,0.460951 -0.06142,0.118122 -0.153618,0.224343 -0.27646,0.318846 -0.122842,0.0945 -0.297705,0.14159 -0.524503,0.14159 -0.231521,0 -0.410893,-0.04709 -0.538473,-0.14159 -0.122845,-0.0945 -0.215041,-0.200719 -0.27646,-0.318846 -0.07088,-0.132298 -0.11096,-0.286117 -0.120405,-0.460951 v -4.62089 c 0.0094,-0.170096 0.04953,-0.323422 0.120405,-0.460422 0.06142,-0.113396 0.153618,-0.217622 0.27646,-0.312125 0.127572,-0.09922 0.306939,-0.148826 0.538473,-0.148826 z m 62.821873,0 c 0.22679,0 0.40166,0.0496 0.52451,0.148826 0.12286,0.0945 0.21506,0.198723 0.27645,0.312125 0.0661,0.137021 0.10621,0.29035 0.12041,0.460422 v 4.62089 c -0.0142,0.174821 -0.0543,0.328661 -0.12041,0.460951 -0.0614,0.118122 -0.15361,0.224343 -0.27645,0.318846 -0.12285,0.0945 -0.29771,0.14159 -0.52451,0.14159 -0.23151,0 -0.41089,-0.04709 -0.53847,-0.14159 -0.12287,-0.0945 -0.21507,-0.200719 -0.27646,-0.318846 -0.0709,-0.132298 -0.11094,-0.286117 -0.12041,-0.460951 v -4.62089 c 0.009,-0.170096 0.0495,-0.323422 0.12041,-0.460422 0.0614,-0.113396 0.15361,-0.217622 0.27646,-0.312125 0.12757,-0.09922 0.30694,-0.148826 0.53847,-0.148826 z m -21.41801,0.07079 h 0.15606 l 1.049,3.798576 h -2.25409 l 1.04901,-3.798576 z"
     fill="#1a1a1a"
     stroke-width="0.362871"
     id="oficinaWord" />
  <g
     id="cerebroWord"
     transform="translate(-2.3193314,-43.306683)">
    <path
       d="m 55.733,91.286 q 2.0813,0 3.576,0.47302 1.5137,0.47302 2.5354,1.2298 1.0406,0.75682 1.665,1.7218 0.62438,0.94604 0.94604,1.9299 0.34057,0.98388 0.43518,1.8921 0.11352,0.9082 0.11352,1.5704 0,0.28381 -0.05676,0.70007 -0.03784,0.39733 -0.32165,0.77574 -0.28381,0.37842 -0.90819,0.64331 -0.60546,0.26489 -1.7407,0.26489 -0.37841,0 -0.94604,-0.0378 -0.56762,-0.0567 -1.0974,-0.24598 -0.52978,-0.20813 -0.9082,-0.56762 -0.37842,-0.37842 -0.37842,-1.0406 0,-1.0217 -0.13244,-1.8353 -0.11352,-0.81359 -0.43518,-1.3812 -0.32165,-0.56763 -0.88927,-0.87036 -0.56762,-0.30272 -1.4569,-0.30272 -0.92712,0 -1.438,0.39733 -0.49194,0.37842 -0.71899,0.83251 -0.26489,0.5487 -0.30273,1.2298 v 11.996 q 0.03784,0.83252 0.30273,1.4569 0.22705,0.5487 0.71899,1.0028 0.51086,0.45411 1.438,0.45411 0.88927,0 1.4569,-0.3595 0.56762,-0.37841 0.88927,-1.0028 0.32165,-0.62438 0.43518,-1.438 0.13244,-0.8136 0.13244,-1.7029 0,-0.28382 0.0946,-0.58655 0.0946,-0.30273 0.43518,-0.54871 0.34057,-0.26488 1.0028,-0.43517 0.66222,-0.17028 1.7975,-0.17028 1.13528,0 1.7407,0.26488 0.62438,0.24597 0.90819,0.58655 0.28381,0.32165 0.32165,0.6433 0.05676,0.30274 0.05676,0.39734 0,2.0813 -0.70007,3.7274 -0.70007,1.6272 -1.9867,2.7624 -1.2677,1.1352 -3.0462,1.7407 -1.7596,0.58655 -3.8787,0.58655 -0.34057,0 -1.1163,-0.0567 -0.75683,-0.0567 -1.7029,-0.30272 -0.94604,-0.24597 -1.9488,-0.73792 -1.0028,-0.49193 -1.8353,-1.3623 -0.81359,-0.88928 -1.3434,-2.1948 -0.52978,-1.3244 -0.52978,-3.2165 v -10.558 q 0,-1.5515 0.37842,-2.7435 0.37841,-1.192 0.98388,-2.0624 0.62438,-0.88927 1.4191,-1.4758 0.79467,-0.60547 1.6272,-1.0028 1.9299,-0.90819 4.4085,-1.0406 z"
       fill="#1894d0"
       style="stroke:#000000;stroke-width:0.52917;stroke-linejoin:round;stroke-dasharray:1.5875, 0.529167;paint-order:normal"
       id="cLetter" />
    <path
       d="m 79.119,91.437 q 0.75683,0 1.5326,0.0756 0.77575,0.0756 1.4001,0.35949 0.62438,0.2838 1.0217,0.85143 0.39734,0.54871 0.39734,1.5137 0,0.96496 -0.39734,1.5326 -0.39734,0.5487 -1.0217,0.83252 -0.62438,0.2838 -1.4001,0.35949 -0.77575,0.0756 -1.5326,0.0756 h -4.5031 v 4.9194 h 2.384 q 0.75683,0 1.5137,0.0567 0.77575,0.0378 1.3623,0.30273 0.60546,0.24597 0.98388,0.77575 0.37842,0.51086 0.37842,1.438 0,0.94603 -0.37842,1.4569 -0.37841,0.51086 -0.98388,0.77575 -0.58654,0.24597 -1.3623,0.30273 -0.75683,0.0378 -1.5137,0.0378 h -2.384 v 5.2221 h 4.5031 q 0.75683,0 1.5326,0.0756 0.77575,0.0757 1.4001,0.3595 0.62438,0.28381 1.0217,0.83251 0.39732,0.5487 0.39734,1.4947 0,0.98388 -0.41626,1.5515 -0.39733,0.56762 -1.0217,0.85143 -0.62438,0.28381 -1.4001,0.35949 -0.77575,0.0756 -1.5137,0.0756 h -7.4169 q -1.0596,0 -1.6461,-0.37841 -0.56762,-0.37842 -0.83251,-0.98388 -0.26489,-0.62438 -0.32165,-1.4001 -0.03784,-0.77574 -0.03784,-1.5893 v -17.785 q 0,-0.81359 0.03784,-1.5893 0.05676,-0.77575 0.32165,-1.3812 0.26489,-0.62437 0.83251,-1.0028 0.58654,-0.37841 1.6461,-0.37841 z m -2.6489,-8.1738 q 0.51086,-0.34057 1.0596,-0.34057 0.49194,0 1.0028,0.17028 0.51086,0.15137 0.88927,0.70006 0.22705,0.34058 0.32165,0.68115 0.0946,0.34057 0.0946,0.60547 0,0.51086 -0.28381,0.94603 -0.28381,0.41626 -0.66222,0.68115 l -4.1626,2.5354 q -0.26489,0.17029 -0.56762,0.24598 -0.28381,0.0567 -0.56762,0.0567 -0.51086,0 -0.96496,-0.15136 -0.43518,-0.17029 -0.81359,-0.719 -0.22705,-0.32164 -0.32165,-0.62437 -0.0946,-0.32165 -0.0946,-0.58655 0,-0.56762 0.28381,-1.0028 0.28381,-0.45409 0.5487,-0.62438 z"
       fill="#ec0e89"
       style="stroke:#000000;stroke-width:0.52917;stroke-linejoin:round;stroke-dasharray:1.5875, 0.529167;paint-order:normal"
       id="e1Letter" />
    <path
       d="m 87.558,95.751 q 0,-0.81359 0.03784,-1.5893 0.05676,-0.77576 0.32165,-1.3812 0.26489,-0.60545 0.83251,-0.96494 0.58654,-0.37842 1.6461,-0.37842 h 6.2438 q 2.3272,0.11352 4.1626,0.98387 0.77574,0.37843 1.5136,0.94604 0.75683,0.54871 1.3434,1.3812 0.58654,0.8136 0.94604,1.9299 0.35949,1.1163 0.35949,2.5921 0,0.30274 -0.0567,0.8136 -0.0567,0.49194 -0.24597,1.0974 -0.18921,0.58655 -0.51085,1.2298 -0.32166,0.64331 -0.85144,1.2298 -0.52978,0.58655 -1.3055,1.0785 -0.75683,0.49195 -1.7975,0.79467 0.66222,0.26489 1.3434,0.70007 0.68114,0.41626 1.2298,1.0785 0.5487,0.66221 0.88927,1.5893 0.35949,0.92712 0.35949,2.157 v 2.6867 q 0,0.22706 0.11354,0.37842 0.11352,0.15137 0.22704,0.26489 0.45409,0.45409 0.52978,0.79467 0.0756,0.32165 0.0756,0.52978 0,0.66223 -0.26489,1.1163 -0.2649,0.4541 -0.70007,0.73791 -0.41625,0.28381 -0.96496,0.39733 -0.52978,0.13245 -1.0974,0.13245 -0.62439,0 -1.2677,-0.18921 -0.64329,-0.20812 -1.1731,-0.58653 -0.52977,-0.37843 -0.87034,-0.94604 -0.32166,-0.56763 -0.32166,-1.3055 v -4.0112 q 0,-0.83251 -0.11353,-1.5326 -0.11352,-0.70007 -0.43517,-1.2109 -0.32165,-0.51083 -0.88928,-0.79467 -0.56761,-0.28381 -1.4758,-0.28381 h -2.1191 v 6.3195 q 0,0.83251 -0.0567,1.6272 -0.0378,0.79468 -0.30273,1.419 -0.26489,0.60547 -0.85143,0.98388 -0.58654,0.35949 -1.665,0.35949 -1.0596,0 -1.6461,-0.35949 -0.56762,-0.37841 -0.83251,-0.98388 -0.26489,-0.62437 -0.32165,-1.419 -0.03784,-0.79467 -0.03784,-1.6272 z m 8.2873,7.2277 q 0.94603,-0.0378 1.7029,-0.4541 0.32165,-0.17029 0.62438,-0.43517 0.30274,-0.26489 0.54871,-0.66223 0.24597,-0.39734 0.37841,-0.92711 0.15136,-0.52979 0.15136,-1.2299 0,-0.62437 -0.15136,-1.0974 -0.13244,-0.49193 -0.35949,-0.85142 -0.22705,-0.3595 -0.52979,-0.60547 -0.2838,-0.24597 -0.58653,-0.39733 -0.71899,-0.3595 -1.6272,-0.41626 h -2.7246 v 7.0763 z"
       fill="#a0ca39"
       style="stroke:#000000;stroke-width:0.52917;stroke-linejoin:round;stroke-dasharray:1.5875, 0.529167;paint-order:normal"
       id="r1Letter" />
    <path
       d="m 119.38,91.437 q 0.75683,0 1.5326,0.0567 0.77576,0.0567 1.4001,0.32164 0.62438,0.26489 1.0217,0.8136 0.39734,0.52977 0.39734,1.4947 0,0.96493 -0.39734,1.5137 -0.39734,0.52977 -1.0217,0.79466 -0.62438,0.2649 -1.4001,0.32166 -0.77574,0.0567 -1.5326,0.0567 h -4.5031 v 5.1464 h 2.384 q 0.75683,0 1.5136,0.0567 0.77575,0.0378 1.3623,0.30273 0.60546,0.24597 0.98388,0.77575 0.37841,0.51086 0.37841,1.438 0,0.94603 -0.37841,1.4569 -0.37842,0.51086 -0.98388,0.77575 -0.58655,0.24597 -1.3623,0.30273 -0.75682,0.0378 -1.5136,0.0378 h -2.384 v 5.4492 h 4.5031 q 0.75683,0 1.5326,0.0567 0.77576,0.0567 1.4001,0.32165 0.62438,0.24597 1.0217,0.79467 0.39734,0.52978 0.39734,1.4758 0,0.98388 -0.41627,1.5326 -0.39733,0.54869 -1.0217,0.81358 -0.62438,0.2649 -1.4001,0.32166 -0.77574,0.0567 -1.5136,0.0567 h -7.4169 q -1.0596,0 -1.6461,-0.37841 -0.56763,-0.37841 -0.83252,-0.98388 -0.26488,-0.62437 -0.32165,-1.4001 -0.0378,-0.77575 -0.0378,-1.5893 v -17.785 q 0,-0.81358 0.0378,-1.5893 0.0567,-0.77576 0.32165,-1.3812 0.26489,-0.62438 0.83252,-1.0028 0.58653,-0.37842 1.6461,-0.37842 z"
       fill="#f5cd11"
       style="stroke:#000000;stroke-width:0.52917;stroke-linejoin:round;stroke-dasharray:1.5875, 0.529167;paint-order:normal"
       id="e2Letter" />
    <path
       d="m 135.77,91.437 q 1.6839,0 3.1598,0.43518 1.4947,0.43517 2.5921,1.3055 1.1163,0.87035 1.7407,2.1759 0.6433,1.2866 0.6433,3.0084 0,0.88926 -0.24597,1.6272 -0.22704,0.719 -0.60547,1.3055 -0.35949,0.58655 -0.81358,1.0217 -0.43518,0.43518 -0.85143,0.75683 -0.41627,0.30273 -0.73792,0.49194 -0.32164,0.17028 -0.45409,0.20812 1.1352,0.32166 1.911,0.83252 0.77574,0.49194 1.2866,1.0974 0.52978,0.58655 0.81359,1.2298 0.30274,0.62438 0.43518,1.2298 0.15136,0.58655 0.17029,1.0974 0.0378,0.49195 0.0378,0.79468 0,1.4758 -0.35949,2.6111 -0.3595,1.1163 -0.94604,1.9488 -0.58655,0.81359 -1.3434,1.4001 -0.75682,0.56761 -1.5326,0.9271 -1.8542,0.87036 -4.1815,0.98388 h -6.206 q -1.0785,0 -1.665,-0.35949 -0.58654,-0.37841 -0.85144,-0.98388 -0.26489,-0.62437 -0.32165,-1.4001 -0.0378,-0.77575 -0.0378,-1.6083 v -17.823 q 0,-0.81359 0.0378,-1.5893 0.0567,-0.77576 0.32165,-1.3812 0.2649,-0.60545 0.85144,-0.96494 0.58654,-0.37842 1.665,-0.37842 z m -2.6111,14.91 v 7.1142 h 2.7624 q 0.88927,-0.0378 1.5893,-0.41625 0.30274,-0.15136 0.58655,-0.39733 0.28381,-0.24598 0.51086,-0.60547 0.22705,-0.37841 0.3595,-0.85143 0.13244,-0.49194 0.13244,-1.1352 0,-0.70006 -0.15136,-1.2109 -0.13245,-0.52977 -0.37843,-0.9082 -0.22704,-0.39733 -0.52977,-0.66221 -0.30273,-0.28382 -0.60547,-0.45411 -0.7379,-0.39733 -1.665,-0.47301 z m 0,-10.444 v 6.433 h 2.4219 q 0.81358,-0.0378 1.4569,-0.37841 0.26489,-0.13244 0.52978,-0.3595 0.26489,-0.22705 0.47302,-0.52977 0.20813,-0.32165 0.32165,-0.75684 0.13244,-0.43517 0.13244,-1.0028 0,-0.64329 -0.13244,-1.1163 -0.13245,-0.49193 -0.35949,-0.8325 -0.20813,-0.3595 -0.49195,-0.60547 -0.26488,-0.24597 -0.54869,-0.41625 -0.68115,-0.3595 -1.5326,-0.43518 z"
       fill="#1894d0"
       style="stroke:#000000;stroke-width:0.52917;stroke-linejoin:round;stroke-dasharray:1.5875, 0.529167;paint-order:normal"
       id="bLetter" />
    <path
       d="m 148.71,95.751 q 0,-0.81359 0.0378,-1.5893 0.0567,-0.77576 0.32164,-1.3812 0.2649,-0.60545 0.83252,-0.96494 0.58655,-0.37842 1.6461,-0.37842 h 6.2438 q 2.3272,0.11352 4.1626,0.98387 0.77575,0.37843 1.5137,0.94604 0.75682,0.54871 1.3434,1.3812 0.58654,0.8136 0.94604,1.9299 0.35949,1.1163 0.35949,2.5921 0,0.30274 -0.0567,0.8136 -0.0567,0.49194 -0.24597,1.0974 -0.18921,0.58655 -0.51087,1.2298 -0.32165,0.64331 -0.85142,1.2298 -0.52979,0.58655 -1.3055,1.0785 -0.75683,0.49195 -1.7975,0.79467 0.66223,0.26489 1.3434,0.70007 0.68115,0.41626 1.2298,1.0785 0.54871,0.66221 0.88928,1.5893 0.35949,0.92712 0.35949,2.157 v 2.6867 q 0,0.22706 0.11352,0.37842 0.11354,0.15137 0.22706,0.26489 0.45409,0.45409 0.52978,0.79467 0.0756,0.32165 0.0756,0.52978 0,0.66223 -0.26489,1.1163 -0.2649,0.4541 -0.70007,0.73791 -0.41625,0.28381 -0.96496,0.39733 -0.52977,0.13245 -1.0974,0.13245 -0.62439,0 -1.2677,-0.18921 -0.64331,-0.20812 -1.1731,-0.58653 -0.52979,-0.37843 -0.87036,-0.94604 -0.32165,-0.56763 -0.32165,-1.3055 v -4.0112 q 0,-0.83251 -0.11352,-1.5326 -0.11352,-0.70007 -0.43518,-1.2109 -0.32165,-0.51086 -0.88928,-0.79467 -0.56761,-0.28381 -1.4758,-0.28381 h -2.1191 v 6.3195 q 0,0.83251 -0.0567,1.6272 -0.0378,0.79468 -0.30274,1.419 -0.26489,0.60547 -0.85144,0.98388 -0.58653,0.35949 -1.665,0.35949 -1.0596,0 -1.6461,-0.35949 -0.56762,-0.37841 -0.83251,-0.98388 -0.26489,-0.62437 -0.32165,-1.419 -0.0378,-0.79467 -0.0378,-1.6272 z m 8.2873,7.2277 q 0.94604,-0.0378 1.7029,-0.4541 0.32166,-0.17029 0.62439,-0.43517 0.30273,-0.26489 0.54871,-0.66223 0.24596,-0.39734 0.37841,-0.92711 0.15136,-0.52979 0.15136,-1.2299 0,-0.62437 -0.15136,-1.0974 -0.13245,-0.49193 -0.35949,-0.85142 -0.22706,-0.3595 -0.52979,-0.60547 -0.28381,-0.24597 -0.58653,-0.39733 -0.719,-0.3595 -1.6272,-0.41626 h -2.7246 v 7.0763 z"
       fill="#ec0e89"
       style="stroke:#000000;stroke-width:0.52917;stroke-linejoin:round;stroke-dasharray:1.5875, 0.529167;paint-order:normal"
       id="r2Letter" />
    <path
       d="m 169.6,98.93 q 0,-1.8164 0.52979,-3.0841 0.52977,-1.2866 1.3434,-2.138 0.83251,-0.85142 1.8164,-1.3244 1.0028,-0.49193 1.9299,-0.73791 0.94604,-0.24597 1.7029,-0.30273 0.75684,-0.0567 1.1163,-0.0567 h 0.6433 q 0.35949,0 1.1163,0.0567 0.75682,0.0567 1.6839,0.30273 0.92711,0.24598 1.911,0.73791 1.0028,0.47303 1.7975,1.3244 0.81359,0.85144 1.3244,2.138 0.52978,1.2677 0.52978,3.0841 v 11.315 q 0,1.8732 -0.52978,3.1787 -0.51086,1.3055 -1.3244,2.1759 -0.79467,0.87035 -1.7975,1.3812 -0.98388,0.49194 -1.911,0.73791 -0.92712,0.24596 -1.6839,0.30273 -0.75684,0.0567 -1.1163,0.0567 h -0.6433 q -0.35949,0 -1.1163,-0.0567 -0.75683,-0.0567 -1.7029,-0.30273 -0.9271,-0.24597 -1.9299,-0.73791 -0.98388,-0.51086 -1.8164,-1.3812 -0.8136,-0.87036 -1.3434,-2.1759 Q 169.6,112.1182 169.6,110.245 Z m 6.2817,12.034 q 0.0378,0.70007 0.32165,1.2298 0.24598,0.47302 0.73791,0.85143 0.51087,0.37841 1.438,0.37841 0.90819,0 1.4001,-0.37841 0.49193,-0.37841 0.7379,-0.85143 0.26489,-0.52978 0.32166,-1.2298 V 98.628 q -0.0567,-0.68115 -0.32166,-1.2298 -0.24597,-0.4541 -0.7379,-0.83251 -0.49195,-0.39734 -1.4001,-0.39734 -0.92711,0 -1.438,0.39734 -0.49193,0.37841 -0.73791,0.83251 -0.28381,0.5487 -0.32165,1.2298 z"
       fill="#a0ca39"
       style="stroke:#000000;stroke-width:0.52917;stroke-linejoin:round;stroke-dasharray:1.5875, 0.529167;paint-order:normal"
       id="oLetter" />
  </g>
</svg>
