<!-- Created with Inkscape (http://www.inkscape.org/) -->
<svg width="210mm" height="297mm" version="1.1" viewBox="0 0 210 297" xmlns="http://www.w3.org/2000/svg">
 <g>
  <g stroke-width=".21851">
   <path d="m47.452 72.829c-0.04724-0.15023-0.15007-1.4531-0.22852-2.8953-0.261-4.7984-1.0167-7.7767-2.164-8.5284-0.79297-0.51957-1.5063-0.20438-2.4902 1.1003-0.69929 0.92726-0.94739 1.1016-1.6506 1.16-0.70388 0.05846-0.93301-0.04306-1.533-0.67922-1.5707-1.6654-1.631-4.8524-0.11206-5.9163 0.77416-0.54224 1.4506-0.43279 2.617 0.42345 1.2633 0.92736 2.0128 0.93383 2.6894 0.02324 0.8834-1.189 0.43537-5.6035-1.0838-10.679-0.29336-0.98012-0.53338-1.9087-0.53338-2.0636 0-0.50655 0.86594-0.76081 2.5782-0.75699 1.8241 4e-3 3.1616 0.37358 4.4642 1.2333 0.4481 0.29578 0.92466 0.53778 1.059 0.53778 0.13436 0 0.6851-0.38801 1.2239-0.86225 1.2567-1.1062 2.8193-1.6434 4.7075-1.6185 1.679 0.02213 3.3629 0.70991 4.4074 1.8001l0.61813 0.64519 0.68628-0.41847c0.87786-0.53529 2.7374-0.55603 3.8194-0.0426 0.43755 0.20763 1.2391 0.83418 1.7811 1.3923 0.85807 0.88355 1.1321 1.031 2.1178 1.14 0.62273 0.06884 1.5144 0.32014 1.9815 0.55843 1.0694 0.54557 2.3245 1.9212 2.6998 2.9592 0.28116 0.77753 0.30912 0.79312 1.1865 0.66156 1.7373-0.26053 3.4851 0.89769 4.388 2.9079 0.42598 0.94837 0.61165 1.1472 1.0713 1.1472 1.9281 0 4.0382 2.3944 4.0382 4.5823 0 0.63476 0.47408 1.1774 1.2292 1.4069 1.1491 0.34932 2.704 2.4951 2.704 3.7315 0 0.63244-1.0082 1.0214-7.4096 2.859-7.669 2.2014-14.181 3.1434-17.217 2.4905-1.6836-0.36217-1.7296-0.44465-0.90215-1.6186 1.899-2.6942 0.04509-5.4797-3.6427-5.473-2.8229 5e-3 -5.0565 1.556-5.2956 3.677-0.13928 1.2357 0.34265 2.1585 1.5843 3.0337 0.52892 0.37282 0.91163 0.75884 0.85046 0.85782-0.55287 0.89456-9.9891 2.0222-10.24 1.2237z" fill="#f5cd11"/>
   <path d="m30.893 81.719c-1.3462-0.73044-1.4482-1.9195-0.29518-3.4422 0.62265-0.82229 0.70852-1.153 0.50205-1.9334-0.1156-0.43694-0.41385-0.68287-1.1925-0.9833-1.5772-0.60856-7.5517-0.55457-11.02 0.09957-3.2222 0.60769-7.5875 1.7289-12.134 3.1166-1.9482 0.59466-3.7562 1.0812-4.0178 1.0812-0.45172 0-0.46974-0.07169-0.36038-1.4342 0.086392-1.0763 0.27696-1.6945 0.7637-2.4775 0.52135-0.83867 0.66933-1.3611 0.7543-2.6629 0.15925-2.4398 1.2045-4.1907 3.3073-5.5401l1.0743-0.68939 0.03849-1.519c0.06243-2.4644 1.3986-4.3631 3.8873-5.5239 0.88803-0.4142 1.317-0.7585 1.4761-1.1848 0.12338-0.3305 0.34472-0.92048 0.49187-1.3111 0.47712-1.2664 1.9288-2.4859 3.5584-2.9893 0.8054-0.24876 1.8965-0.4523 2.4247-0.4523 0.52815 0 0.96028-0.10053 0.96028-0.22339 0-0.49606 1.8294-2.1626 2.9003-2.6422 0.93372-0.41812 1.5269-0.5135 3.2504-0.52264l2.1082-0.01117 1.0367-1.153c0.57017-0.63417 1.5389-1.408 2.1527-1.7195 1.3418-0.68108 3.5096-0.89745 5.1202-0.51106l1.1029 0.26457 0.95984-1.0017c0.99096-1.0342 1.4618-1.2126 1.8778-0.71133 0.38794 0.46743 1.7034 5.5474 1.9827 7.6568 0.2228 1.6825 0.17813 2.9394-0.12271 3.4535-0.04741 0.08103-0.58655-0.18938-1.1981-0.60091-2.0214-1.3603-3.8287-0.865-4.9102 1.3456-0.51088 1.0442-0.57208 1.3875-0.47909 2.6872 0.32374 4.5246 4.6383 6.571 6.7274 3.1907 0.25864-0.41848 0.55804-0.76088 0.66533-0.76088 0.30068 0 0.7827 1.079 1.0534 2.3582 0.40973 1.9358 0.75093 7.4568 0.48095 7.7821-0.15971 0.19242-1.1599 0.32273-3.1304 0.40782-7.3679 0.31815-10.34 2.1536-7.1729 4.4291 0.58628 0.4212 1.1248 0.91905 1.1966 1.1063 0.42575 1.1095-0.25885 2.2907-1.7095 2.9496-1.0904 0.49525-3.2617 0.53344-4.1115 0.0723z" fill="#1894d0"/>
   <path d="m50.396 96.92c-0.52144-0.98854-1.1928-6.5554-0.79056-6.5554 0.04798 0 0.59871 0.34416 1.2238 0.76479 1.7109 1.1514 3.1624 0.9791 4.4286-0.52564 2.3082-2.7431 0.28451-8.4333-2.9992-8.4333-1.0885 0-1.9039 0.49653-2.6964 1.6419-0.32466 0.46919-0.68858 0.82436-0.80871 0.78924-0.63287-0.18498-1.2806-3.4512-1.4999-7.5634-0.13372-2.5078-0.05145-2.6249 1.8438-2.6249 0.84178 0 2.4854-0.1043 3.6524-0.23178 4.2369-0.46279 6.3828-1.3465 6.3828-2.6285 0-0.42707-0.17778-0.81664-0.49165-1.0773-2.0215-1.6791-2.1305-1.8026-2.1305-2.4142 0-0.38793 0.25765-0.91874 0.67873-1.3983 1.4442-1.6448 4.7102-1.8109 5.9782-0.30402 0.73258 0.87062 0.70088 1.2362-0.22367 2.5803-1.1151 1.621-1.0096 2.3405 0.44987 3.0703 1.0226 0.5113 1.3025 0.54576 4.3702 0.53817 4.7192-0.01167 9.2387-0.88668 17.473-3.383 1.9746-0.59859 3.7008-1.0883 3.8361-1.0883 0.34342 0 2.4178 2.293 2.9405 3.2505 0.32196 0.58972 0.43242 1.2105 0.4325 2.4308 1.33e-4 1.9514-0.55577 3.3778-1.7585 4.5121l-0.78272 0.7382-0.03593 2.1275c-0.04115 2.4431-0.37885 3.3574-1.7206 4.6596-0.95432 0.92613-2.2369 1.3286-3.6315 1.1395-0.9113-0.12357-0.98101-0.0901-1.9046 0.91588-0.91548 0.99716-0.99999 1.0386-1.8774 0.92093-0.5106-0.0685-1.3418-0.42146-1.8712-0.79455-1.1384-0.80242-1.2083-0.80852-2.0612-0.1797-0.57713 0.42554-0.93593 0.49166-2.6679 0.49166-1.1006 0-2.1214 0.078-2.2684 0.17316-0.147 0.0952-0.43916 0.53774-0.64922 0.98331-0.62181 1.319-2.228 2.7633-3.6851 3.3138-1.0661 0.40276-1.5591 0.46693-2.758 0.35894l-1.4599-0.13149-1.053 1.1166c-1.4005 1.4852-2.5517 2.2543-4.2103 2.8131-1.1886 0.40039-1.7834 0.45373-4.4276 0.39702-2.4452-0.0525-3.0891-0.13091-3.2275-0.39328zm0.82926-23.967c0.15774-0.06312 0.3462-0.05536 0.41882 0.01724 0.07259 0.07261-0.05649 0.12426-0.28679 0.11477-0.25456-0.01046-0.30633-0.06227-0.13202-0.13202zm18.573-1.7481c0.15773-0.06312 0.3462-0.05536 0.41882 0.01724 0.07259 0.07261-0.05649 0.12425-0.2868 0.11477-0.25456-0.01046-0.30633-0.06227-0.13202-0.13202z" fill="#a0ca39"/>
   <path d="m32.419 127.28c-1.4402-0.83887-1.3449-3.2444 0.39345-9.9248 1.5094-5.8005 1.7104-7.2808 1.083-7.974-0.55281-0.61085-1.2336-0.54846-2.4521 0.2247-1.6983 1.0776-3.5735 1.5666-6.0713 1.5834-1.9003 0.0128-2.4364-0.073-4.1123-0.65824-2.7991-0.97735-5.1508-2.4716-7.3431-4.6657-4.748-4.7521-5.818-9.6326-2.9622-13.512 0.51219-0.69575 1.2411-1.4857 1.6199-1.7553l0.6886-0.49033-2.0443-1.2964-0.68043 0.64336c-0.95702 0.90489-1.4882 1.1328-2.6397 1.1328-1.9427 0-3.586-1.1169-4.6617-3.1684-0.71851-1.3703-0.79651-3.4841-0.17542-4.754 0.32149-0.65738 0.3481-0.88511 0.13361-1.1436-0.33054-0.39827-0.2733-0.42188 4.5869-1.8924 7.7734-2.3519 13.394-3.4634 17.515-3.4634 2.5973 0 4.5545 0.2994 4.5545 0.69673 0 0.1143-0.28878 0.62755-0.64174 1.1405-1.3478 1.9589-0.7805 3.9736 1.3975 4.9629 1.0231 0.46472 3.0349 0.53645 4.3122 0.15375 1.0493-0.31438 2.6412-1.6765 3.0156-2.5803 0.34827-0.8408 0.16577-2.2973-0.36248-2.893-0.2205-0.24863-0.77576-0.72638-1.2339-1.0617l-0.83298-0.60962 0.52908-0.34667c0.85136-0.55783 3.321-0.9891 6.5123-1.1372 2.1579-0.10014 3.0149-0.06815 3.1292 0.11684 0.08659 0.14011 0.2413 1.6541 0.34378 3.3645 0.20895 3.487 0.65135 5.7464 1.379 7.0429 0.41576 0.74076 0.61337 0.88431 1.2958 0.94135 0.74618 0.0624 0.86375-0.0142 1.6031-1.0433 0.43882-0.6108 0.98934-1.213 1.2234-1.3383 0.65814-0.35222 1.627-0.0242 2.3454 0.79404 1.1411 1.2996 1.4173 3.234 0.69039 4.8349-0.72553 1.598-1.8114 1.7981-3.3562 0.61854-1.2184-0.93029-1.9217-0.97522-2.5655-0.16389-0.43484 0.54794-0.46755 0.78387-0.37113 2.6768 0.10312 2.0245 0.60012 4.3976 1.4977 7.1515l0.44358 1.3609-0.61713 1.1343c-0.98156 1.804-2.341 3.1594-3.9287 3.9172l-1.4185 0.67697 0.14188 0.83978c0.26116 1.5458-1.1247 5.5985-3.9298 11.492-3.1573 6.6339-5.9756 9.5704-8.0343 8.3713z" fill="#ec0e89"/>
  </g>
  <text x="81.563179" y="89.453094" fill="#1a1a1a" font-family="sans-serif" font-size="14.515px" stroke-width=".36288" style="line-height:1.25" xml:space="preserve"><tspan x="81.563179" y="89.453094" fill="#1a1a1a" font-family="'Concert One'" stroke-width=".36288">OFICINA DO</tspan></text>
  <g stroke="#000" stroke-dasharray="1.58750019, 0.52916673" stroke-linejoin="round" stroke-width=".52917" aria-label="CÉREBRO">
   <path d="m55.733 91.286q2.0813 0 3.576 0.47302 1.5137 0.47302 2.5354 1.2298 1.0406 0.75682 1.665 1.7218 0.62438 0.94604 0.94604 1.9299 0.34057 0.98388 0.43518 1.8921 0.11352 0.9082 0.11352 1.5704 0 0.28381-0.05676 0.70007-0.03784 0.39733-0.32165 0.77574-0.28381 0.37842-0.90819 0.64331-0.60546 0.26489-1.7407 0.26489-0.37841 0-0.94604-0.0378-0.56762-0.0567-1.0974-0.24598-0.52978-0.20813-0.9082-0.56762-0.37842-0.37842-0.37842-1.0406 0-1.0217-0.13244-1.8353-0.11352-0.81359-0.43518-1.3812-0.32165-0.56763-0.88927-0.87036-0.56762-0.30272-1.4569-0.30272-0.92712 0-1.438 0.39733-0.49194 0.37842-0.71899 0.83251-0.26489 0.5487-0.30273 1.2298v11.996q0.03784 0.83252 0.30273 1.4569 0.22705 0.5487 0.71899 1.0028 0.51086 0.45411 1.438 0.45411 0.88927 0 1.4569-0.3595 0.56762-0.37841 0.88927-1.0028 0.32165-0.62438 0.43518-1.438 0.13244-0.8136 0.13244-1.7029 0-0.28382 0.0946-0.58655t0.43518-0.54871q0.34057-0.26488 1.0028-0.43517 0.66222-0.17028 1.7975-0.17028t1.7407 0.26488q0.62438 0.24597 0.90819 0.58655 0.28381 0.32165 0.32165 0.6433 0.05676 0.30274 0.05676 0.39734 0 2.0813-0.70007 3.7274-0.70007 1.6272-1.9867 2.7624-1.2677 1.1352-3.0462 1.7407-1.7596 0.58655-3.8787 0.58655-0.34057 0-1.1163-0.0567-0.75683-0.0567-1.7029-0.30272-0.94604-0.24597-1.9488-0.73792-1.0028-0.49193-1.8353-1.3623-0.81359-0.88928-1.3434-2.1948-0.52978-1.3244-0.52978-3.2165v-10.558q0-1.5515 0.37842-2.7435 0.37841-1.192 0.98388-2.0624 0.62438-0.88927 1.4191-1.4758 0.79467-0.60547 1.6272-1.0028 1.9299-0.90819 4.4085-1.0406z" fill="#1894d0" stroke="#000" style="paint-order:normal"/>
   <path d="m79.119 91.437q0.75683 0 1.5326 0.0756 0.77575 0.0756 1.4001 0.35949 0.62438 0.2838 1.0217 0.85143 0.39734 0.54871 0.39734 1.5137 0 0.96496-0.39734 1.5326-0.39734 0.5487-1.0217 0.83252-0.62438 0.2838-1.4001 0.35949-0.77575 0.0756-1.5326 0.0756h-4.5031v4.9194h2.384q0.75683 0 1.5137 0.0567 0.77575 0.0378 1.3623 0.30273 0.60546 0.24597 0.98388 0.77575 0.37842 0.51086 0.37842 1.438 0 0.94603-0.37842 1.4569-0.37841 0.51086-0.98388 0.77575-0.58654 0.24597-1.3623 0.30273-0.75683 0.0378-1.5137 0.0378h-2.384v5.2221h4.5031q0.75683 0 1.5326 0.0756 0.77575 0.0757 1.4001 0.3595 0.62438 0.28381 1.0217 0.83251t0.39734 1.4947q0 0.98388-0.41626 1.5515-0.39733 0.56762-1.0217 0.85143-0.62438 0.28381-1.4001 0.35949-0.77575 0.0756-1.5137 0.0756h-7.4169q-1.0596 0-1.6461-0.37841-0.56762-0.37842-0.83251-0.98388-0.26489-0.62438-0.32165-1.4001-0.03784-0.77574-0.03784-1.5893v-17.785q0-0.81359 0.03784-1.5893 0.05676-0.77575 0.32165-1.3812 0.26489-0.62437 0.83251-1.0028 0.58654-0.37841 1.6461-0.37841zm-2.6489-8.1738q0.51086-0.34057 1.0596-0.34057 0.49194 0 1.0028 0.17028 0.51086 0.15137 0.88927 0.70006 0.22705 0.34058 0.32165 0.68115 0.0946 0.34057 0.0946 0.60547 0 0.51086-0.28381 0.94603-0.28381 0.41626-0.66222 0.68115l-4.1626 2.5354q-0.26489 0.17029-0.56762 0.24598-0.28381 0.0567-0.56762 0.0567-0.51086 0-0.96496-0.15136-0.43518-0.17029-0.81359-0.719-0.22705-0.32164-0.32165-0.62437-0.0946-0.32165-0.0946-0.58655 0-0.56762 0.28381-1.0028 0.28381-0.45409 0.5487-0.62438z" fill="#ec0e89" style="paint-order:normal"/>
   <path d="m87.558 95.751q0-0.81359 0.03784-1.5893 0.05676-0.77576 0.32165-1.3812 0.26489-0.60545 0.83251-0.96494 0.58654-0.37842 1.6461-0.37842h6.2438q2.3272 0.11352 4.1626 0.98387 0.77574 0.37843 1.5136 0.94604 0.75683 0.54871 1.3434 1.3812 0.58654 0.8136 0.94604 1.9299 0.35949 1.1163 0.35949 2.5921 0 0.30274-0.0567 0.8136-0.0567 0.49194-0.24597 1.0974-0.18921 0.58655-0.51085 1.2298-0.32166 0.64331-0.85144 1.2298-0.52978 0.58655-1.3055 1.0785-0.75683 0.49195-1.7975 0.79467 0.66222 0.26489 1.3434 0.70007 0.68114 0.41626 1.2298 1.0785 0.5487 0.66221 0.88927 1.5893 0.35949 0.92712 0.35949 2.157v2.6867q0 0.22706 0.11354 0.37842 0.11352 0.15137 0.22704 0.26489 0.45409 0.45409 0.52978 0.79467 0.0756 0.32165 0.0756 0.52978 0 0.66223-0.26489 1.1163-0.2649 0.4541-0.70007 0.73791-0.41625 0.28381-0.96496 0.39733-0.52978 0.13245-1.0974 0.13245-0.62439 0-1.2677-0.18921-0.64329-0.20812-1.1731-0.58653-0.52977-0.37843-0.87034-0.94604-0.32166-0.56763-0.32166-1.3055v-4.0112q0-0.83251-0.11353-1.5326-0.11352-0.70007-0.43517-1.2109t-0.88928-0.79467q-0.56761-0.28381-1.4758-0.28381h-2.1191v6.3195q0 0.83251-0.0567 1.6272-0.0378 0.79468-0.30273 1.419-0.26489 0.60547-0.85143 0.98388-0.58654 0.35949-1.665 0.35949-1.0596 0-1.6461-0.35949-0.56762-0.37841-0.83251-0.98388-0.26489-0.62437-0.32165-1.419-0.03784-0.79467-0.03784-1.6272zm8.2873 7.2277q0.94603-0.0378 1.7029-0.4541 0.32165-0.17029 0.62438-0.43517 0.30274-0.26489 0.54871-0.66223t0.37841-0.92711q0.15136-0.52979 0.15136-1.2299 0-0.62437-0.15136-1.0974-0.13244-0.49193-0.35949-0.85142-0.22705-0.3595-0.52979-0.60547-0.2838-0.24597-0.58653-0.39733-0.71899-0.3595-1.6272-0.41626h-2.7246v7.0763z" fill="#a0ca39" style="paint-order:normal"/>
   <path d="m119.38 91.437q0.75683 0 1.5326 0.0567 0.77576 0.0567 1.4001 0.32164 0.62438 0.26489 1.0217 0.8136 0.39734 0.52977 0.39734 1.4947t-0.39734 1.5137q-0.39734 0.52977-1.0217 0.79466-0.62438 0.2649-1.4001 0.32166-0.77574 0.0567-1.5326 0.0567h-4.5031v5.1464h2.384q0.75683 0 1.5136 0.0567 0.77575 0.0378 1.3623 0.30273 0.60546 0.24597 0.98388 0.77575 0.37841 0.51086 0.37841 1.438 0 0.94603-0.37841 1.4569-0.37842 0.51086-0.98388 0.77575-0.58655 0.24597-1.3623 0.30273-0.75682 0.0378-1.5136 0.0378h-2.384v5.4492h4.5031q0.75683 0 1.5326 0.0567 0.77576 0.0567 1.4001 0.32165 0.62438 0.24597 1.0217 0.79467 0.39734 0.52978 0.39734 1.4758 0 0.98388-0.41627 1.5326-0.39733 0.54869-1.0217 0.81358-0.62438 0.2649-1.4001 0.32166-0.77574 0.0567-1.5136 0.0567h-7.4169q-1.0596 0-1.6461-0.37841-0.56763-0.37841-0.83252-0.98388-0.26488-0.62437-0.32165-1.4001-0.0378-0.77575-0.0378-1.5893v-17.785q0-0.81358 0.0378-1.5893 0.0567-0.77576 0.32165-1.3812 0.26489-0.62438 0.83252-1.0028 0.58653-0.37842 1.6461-0.37842z" fill="#f5cd11" style="paint-order:normal"/>
   <path d="m135.77 91.437q1.6839 0 3.1598 0.43518 1.4947 0.43517 2.5921 1.3055 1.1163 0.87035 1.7407 2.1759 0.6433 1.2866 0.6433 3.0084 0 0.88926-0.24597 1.6272-0.22704 0.719-0.60547 1.3055-0.35949 0.58655-0.81358 1.0217-0.43518 0.43518-0.85143 0.75683-0.41627 0.30273-0.73792 0.49194-0.32164 0.17028-0.45409 0.20812 1.1352 0.32166 1.911 0.83252 0.77574 0.49194 1.2866 1.0974 0.52978 0.58655 0.81359 1.2298 0.30274 0.62438 0.43518 1.2298 0.15136 0.58655 0.17029 1.0974 0.0378 0.49195 0.0378 0.79468 0 1.4758-0.35949 2.6111-0.3595 1.1163-0.94604 1.9488-0.58655 0.81359-1.3434 1.4001-0.75682 0.56761-1.5326 0.9271-1.8542 0.87036-4.1815 0.98388h-6.206q-1.0785 0-1.665-0.35949-0.58654-0.37841-0.85144-0.98388-0.26489-0.62437-0.32165-1.4001-0.0378-0.77575-0.0378-1.6083v-17.823q0-0.81359 0.0378-1.5893 0.0567-0.77576 0.32165-1.3812 0.2649-0.60545 0.85144-0.96494 0.58654-0.37842 1.665-0.37842zm-2.6111 14.91v7.1142h2.7624q0.88927-0.0378 1.5893-0.41625 0.30274-0.15136 0.58655-0.39733 0.28381-0.24598 0.51086-0.60547 0.22705-0.37841 0.3595-0.85143 0.13244-0.49194 0.13244-1.1352 0-0.70006-0.15136-1.2109-0.13245-0.52977-0.37843-0.9082-0.22704-0.39733-0.52977-0.66221-0.30273-0.28382-0.60547-0.45411-0.7379-0.39733-1.665-0.47301zm0-10.444v6.433h2.4219q0.81358-0.0378 1.4569-0.37841 0.26489-0.13244 0.52978-0.3595 0.26489-0.22705 0.47302-0.52977 0.20813-0.32165 0.32165-0.75684 0.13244-0.43517 0.13244-1.0028 0-0.64329-0.13244-1.1163-0.13245-0.49193-0.35949-0.8325-0.20813-0.3595-0.49195-0.60547-0.26488-0.24597-0.54869-0.41625-0.68115-0.3595-1.5326-0.43518z" fill="#1894d0" style="paint-order:normal"/>
   <path d="m148.71 95.751q0-0.81359 0.0378-1.5893 0.0567-0.77576 0.32164-1.3812 0.2649-0.60545 0.83252-0.96494 0.58655-0.37842 1.6461-0.37842h6.2438q2.3272 0.11352 4.1626 0.98387 0.77575 0.37843 1.5137 0.94604 0.75682 0.54871 1.3434 1.3812 0.58654 0.8136 0.94604 1.9299 0.35949 1.1163 0.35949 2.5921 0 0.30274-0.0567 0.8136-0.0567 0.49194-0.24597 1.0974-0.18921 0.58655-0.51087 1.2298-0.32165 0.64331-0.85142 1.2298-0.52979 0.58655-1.3055 1.0785-0.75683 0.49195-1.7975 0.79467 0.66223 0.26489 1.3434 0.70007 0.68115 0.41626 1.2298 1.0785 0.54871 0.66221 0.88928 1.5893 0.35949 0.92712 0.35949 2.157v2.6867q0 0.22706 0.11352 0.37842 0.11354 0.15137 0.22706 0.26489 0.45409 0.45409 0.52978 0.79467 0.0756 0.32165 0.0756 0.52978 0 0.66223-0.26489 1.1163-0.2649 0.4541-0.70007 0.73791-0.41625 0.28381-0.96496 0.39733-0.52977 0.13245-1.0974 0.13245-0.62439 0-1.2677-0.18921-0.64331-0.20812-1.1731-0.58653-0.52979-0.37843-0.87036-0.94604-0.32165-0.56763-0.32165-1.3055v-4.0112q0-0.83251-0.11352-1.5326-0.11352-0.70007-0.43518-1.2109-0.32165-0.51086-0.88928-0.79467-0.56761-0.28381-1.4758-0.28381h-2.1191v6.3195q0 0.83251-0.0567 1.6272-0.0378 0.79468-0.30274 1.419-0.26489 0.60547-0.85144 0.98388-0.58653 0.35949-1.665 0.35949-1.0596 0-1.6461-0.35949-0.56762-0.37841-0.83251-0.98388-0.26489-0.62437-0.32165-1.419-0.0378-0.79467-0.0378-1.6272zm8.2873 7.2277q0.94604-0.0378 1.7029-0.4541 0.32166-0.17029 0.62439-0.43517 0.30273-0.26489 0.54871-0.66223 0.24596-0.39734 0.37841-0.92711 0.15136-0.52979 0.15136-1.2299 0-0.62437-0.15136-1.0974-0.13245-0.49193-0.35949-0.85142-0.22706-0.3595-0.52979-0.60547-0.28381-0.24597-0.58653-0.39733-0.719-0.3595-1.6272-0.41626h-2.7246v7.0763z" fill="#ec0e89" style="paint-order:normal"/>
   <path d="m169.6 98.93q0-1.8164 0.52979-3.0841 0.52977-1.2866 1.3434-2.138 0.83251-0.85142 1.8164-1.3244 1.0028-0.49193 1.9299-0.73791 0.94604-0.24597 1.7029-0.30273 0.75684-0.0567 1.1163-0.0567h0.6433q0.35949 0 1.1163 0.0567 0.75682 0.0567 1.6839 0.30273 0.92711 0.24598 1.911 0.73791 1.0028 0.47303 1.7975 1.3244 0.81359 0.85144 1.3244 2.138 0.52978 1.2677 0.52978 3.0841v11.315q0 1.8732-0.52978 3.1787-0.51086 1.3055-1.3244 2.1759-0.79467 0.87035-1.7975 1.3812-0.98388 0.49194-1.911 0.73791-0.92712 0.24596-1.6839 0.30273-0.75684 0.0567-1.1163 0.0567h-0.6433q-0.35949 0-1.1163-0.0567-0.75683-0.0567-1.7029-0.30273-0.9271-0.24597-1.9299-0.73791-0.98388-0.51086-1.8164-1.3812-0.8136-0.87036-1.3434-2.1759-0.52979-1.3055-0.52979-3.1787zm6.2817 12.034q0.0378 0.70007 0.32165 1.2298 0.24598 0.47302 0.73791 0.85143 0.51087 0.37841 1.438 0.37841 0.90819 0 1.4001-0.37841 0.49193-0.37841 0.7379-0.85143 0.26489-0.52978 0.32166-1.2298v-12.336q-0.0567-0.68115-0.32166-1.2298-0.24597-0.4541-0.7379-0.83251-0.49195-0.39734-1.4001-0.39734-0.92711 0-1.438 0.39734-0.49193 0.37841-0.73791 0.83251-0.28381 0.5487-0.32165 1.2298z" fill="#a0ca39" style="paint-order:normal"/>
  </g>
  <g stroke-width=".19645">
   <path d="m58.718 218.86c-0.04247-0.13506-0.13492-1.3064-0.20545-2.603-0.23465-4.3139-0.91407-6.9916-1.9455-7.6674-0.71291-0.46711-1.3542-0.18375-2.2388 0.9892-0.62869 0.83365-0.85174 0.99041-1.4839 1.0429-0.63282 0.0526-0.83882-0.0387-1.3782-0.61065-1.4121-1.4972-1.4664-4.3625-0.10075-5.319 0.69601-0.4875 1.3041-0.3891 2.3528 0.38071 1.1358 0.83373 1.8096 0.83955 2.4179 0.0209 0.79422-1.069 0.39142-5.0378-0.97442-9.601-0.26374-0.88116-0.47953-1.716-0.47953-1.8553 0-0.45541 0.77852-0.68399 2.3179-0.68057 1.64 4e-3 2.8424 0.33587 4.0135 1.1088 0.40286 0.26592 0.83131 0.48349 0.95211 0.48349 0.1208 0 0.61594-0.34884 1.1003-0.7752 1.1298-0.99449 2.5346-1.4775 4.2323-1.4551 1.5095 0.0199 3.0234 0.63824 3.9624 1.6184l0.55573 0.58006 0.617-0.37622c0.78923-0.48125 2.461-0.4999 3.4338-0.0383 0.39337 0.18667 1.114 0.74996 1.6013 1.2518 0.77144 0.79435 1.0178 0.92694 1.904 1.0249 0.55986 0.0619 1.3615 0.28782 1.7815 0.50206 0.96145 0.49049 2.0898 1.7273 2.4273 2.6604 0.25278 0.69904 0.27792 0.71306 1.0667 0.59477 1.5619-0.23422 3.1333 0.80706 3.945 2.6143 0.38298 0.85263 0.5499 1.0314 0.96318 1.0314 1.7335 0 3.6305 2.1527 3.6305 4.1197 0 0.57067 0.42621 1.0585 1.1051 1.2649 1.0331 0.31405 2.431 2.2432 2.431 3.3548 0 0.56859-0.9064 0.91832-6.6615 2.5703-6.8948 1.9791-12.75 2.8261-15.479 2.2391-1.5137-0.32561-1.555-0.39976-0.81107-1.4552 1.7073-2.4222 0.04054-4.9264-3.275-4.9205-2.5379 5e-3 -4.5461 1.3989-4.761 3.3058-0.12522 1.1109 0.30805 1.9406 1.4243 2.7274 0.47552 0.33518 0.81959 0.68223 0.7646 0.77122-0.49705 0.80425-8.9806 1.8181-9.2064 1.1002z" fill="#f5cd11"/>
   <path d="m43.831 226.86c-1.2103-0.65671-1.302-1.7257-0.26538-3.0947 0.55979-0.73927 0.63699-1.0366 0.45136-1.7382-0.10393-0.39283-0.37207-0.61393-1.0721-0.88403-1.418-0.54712-6.7893-0.49858-9.9076 0.0895-2.8969 0.54634-6.8215 1.5544-10.909 2.802-1.7515 0.53462-3.377 0.97204-3.6121 0.97204-0.40611 0-0.42232-0.0644-0.32399-1.2894 0.07767-0.96764 0.249-1.5235 0.6866-2.2274 0.46871-0.754 0.60175-1.2237 0.67815-2.3941 0.14318-2.1934 1.0829-3.7676 2.9734-4.9808l0.96586-0.61979 0.0346-1.3657c0.05613-2.2156 1.2574-3.9226 3.4948-4.9662 0.79838-0.37238 1.184-0.68192 1.3271-1.0652 0.11092-0.29713 0.30992-0.82755 0.44221-1.1787 0.42895-1.1386 1.7341-2.235 3.1991-2.6875 0.72409-0.22365 1.705-0.40663 2.1799-0.40663 0.47483 0 0.86333-0.0904 0.86333-0.20084 0-0.44598 1.6447-1.9443 2.6075-2.3754 0.83946-0.37591 1.3728-0.46166 2.9223-0.46987l1.8954-0.01 0.93202-1.0366c0.51261-0.57015 1.3835-1.2658 1.9354-1.546 1.2063-0.61231 3.1553-0.80684 4.6033-0.45946l0.99152 0.23786 0.86293-0.90061c0.89092-0.92981 1.3142-1.0902 1.6882-0.63951 0.34877 0.42024 1.5314 4.9873 1.7825 6.8838 0.2003 1.5126 0.16015 2.6427-0.11032 3.1048-0.04262 0.0728-0.52733-0.17026-1.0771-0.54024-1.8173-1.2229-3.4422-0.77767-4.4145 1.2097-0.45931 0.93879-0.51432 1.2474-0.43072 2.4159 0.29106 4.0679 4.17 5.9076 6.0483 2.8686 0.23253-0.37623 0.5017-0.68406 0.59816-0.68406 0.27033 0 0.70368 0.97011 0.94709 2.1201 0.36837 1.7404 0.67512 6.704 0.4324 6.9964-0.14358 0.173-1.0428 0.29015-2.8144 0.36664-6.624 0.28603-9.2964 1.9362-6.4488 3.982 0.52709 0.37868 1.0112 0.82627 1.0758 0.99465 0.38277 0.99749-0.23272 2.0595-1.5369 2.6518-0.98035 0.44526-2.9324 0.47959-3.6964 0.065z" fill="#1894d0"/>
   <path d="m61.365 240.52c-0.4688-0.88874-1.0724-5.8935-0.71074-5.8935 0.04314 0 0.53827 0.30941 1.1002 0.68758 1.5382 1.0351 2.8432 0.88025 3.9815-0.47258 2.0751-2.4662 0.25579-7.5819-2.6964-7.5819-0.9786 0-1.7117 0.4464-2.4242 1.4761-0.29188 0.42182-0.61906 0.74113-0.72706 0.70956-0.56898-0.16631-1.1513-3.1028-1.3484-6.7998-0.12022-2.2546-0.04626-2.3599 1.6577-2.3599 0.75679 0 2.2344-0.0938 3.2836-0.20838 3.8091-0.41607 5.7385-1.2106 5.7385-2.3631 0-0.38396-0.15983-0.73419-0.44201-0.96858-1.8174-1.5096-1.9154-1.6206-1.9154-2.1705 0-0.34877 0.23164-0.82599 0.61021-1.2572 1.2984-1.4788 4.2347-1.6281 5.3746-0.27332 0.65862 0.78272 0.63012 1.1114-0.20109 2.3198-1.0025 1.4574-0.9077 2.1042 0.40445 2.7603 0.91936 0.45968 1.171 0.49066 3.929 0.48384 4.2428-0.0105 8.306-0.79717 15.709-3.0415 1.7752-0.53815 3.3272-0.97846 3.4488-0.97846 0.30875 0 2.1737 2.0615 2.6437 2.9223 0.28946 0.53018 0.38876 1.0883 0.38884 2.1854 1.2e-4 1.7544-0.49966 3.0368-1.5809 4.0565l-0.7037 0.66367-0.0323 1.9127c-0.037 2.1965-0.3406 3.0185-1.5469 4.1891-0.85798 0.83263-2.0111 1.1945-3.2648 1.0244-0.8193-0.1111-0.88197-0.081-1.7123 0.82341-0.82306 0.89649-0.89903 0.93376-1.6878 0.82796-0.45905-0.0615-1.2064-0.37891-1.6823-0.71434-1.0235-0.72141-1.0863-0.72689-1.8531-0.16154-0.51886 0.38257-0.84144 0.44202-2.3986 0.44202-0.98951 0-1.9072 0.0701-2.0394 0.15568-0.13216 0.0856-0.39482 0.48344-0.58367 0.88403-0.55903 1.1858-2.0031 2.4843-3.3131 2.9793-0.95846 0.3621-1.4017 0.41979-2.4796 0.32271l-1.3125-0.11822-0.94668 1.0039c-1.2591 1.3352-2.2941 2.0268-3.7853 2.5291-1.0686 0.35997-1.6033 0.40792-3.9806 0.35694-2.1983-0.0472-2.7773-0.1177-2.9017-0.35358zm0.74554-21.547c0.14182-0.0567 0.31125-0.0498 0.37653 0.0155 0.06526 0.0653-0.05079 0.11171-0.25784 0.10318-0.22886-9e-3 -0.27541-0.056-0.1187-0.11869zm16.698-1.5716c0.14181-0.0568 0.31125-0.0498 0.37653 0.0155 0.06526 0.0653-0.05079 0.11171-0.25785 0.10318-0.22886-9e-3 -0.2754-0.056-0.11869-0.11869z" fill="#a0ca39"/>
   <path d="m45.204 267.81c-1.2948-0.75418-1.2091-2.9169 0.35373-8.9228 1.357-5.2149 1.5377-6.5457 0.97365-7.169-0.497-0.54918-1.109-0.49309-2.2046 0.20202-1.5268 0.96878-3.2127 1.4084-5.4583 1.4235-1.7084 0.0115-2.1904-0.0656-3.6972-0.59178-2.5165-0.87868-4.6308-2.2221-6.6017-4.1947-4.2687-4.2723-5.2306-8.6601-2.6632-12.148 0.46048-0.62551 1.1158-1.3357 1.4563-1.5781l0.61908-0.44082-1.8379-1.1656-0.61173 0.57841c-0.8604 0.81353-1.3379 1.0185-2.3732 1.0185-1.7466 0-3.224-1.0041-4.1911-2.8486-0.64597-1.232-0.7161-3.1324-0.15771-4.2741 0.28904-0.59101 0.31296-0.79576 0.12012-1.0281-0.29717-0.35806-0.24571-0.37929 4.1238-1.7013 6.9886-2.1145 12.042-3.1137 15.747-3.1137 2.3351 0 4.0947 0.26918 4.0947 0.6264 0 0.10276-0.25963 0.56419-0.57695 1.0254-1.2117 1.7612-0.7017 3.5724 1.2564 4.4618 0.9198 0.4178 2.7285 0.48229 3.8769 0.13823 0.94338-0.28265 2.3745-1.5072 2.7111-2.3198 0.31311-0.75592 0.14903-2.0654-0.32589-2.6009-0.19824-0.22352-0.69744-0.65304-1.1093-0.95448l-0.74889-0.54808 0.47566-0.31167c0.76541-0.50152 2.9858-0.88924 5.8548-1.0224 1.94-0.09 2.7105-0.0613 2.8133 0.10504 0.07785 0.12597 0.21694 1.4871 0.30908 3.0248 0.18786 3.135 0.58559 5.1663 1.2398 6.3319 0.37378 0.66597 0.55145 0.79503 1.165 0.84631 0.67085 0.0561 0.77655-0.0128 1.4412-0.93794 0.39452-0.54914 0.88946-1.0906 1.0999-1.2032 0.59169-0.31667 1.4627-0.0217 2.1086 0.71388 1.0259 1.1684 1.2742 2.9074 0.62069 4.3468-0.65229 1.4366-1.6285 1.6166-3.0174 0.55609-1.0954-0.83637-1.7277-0.87676-2.3065-0.14734-0.39094 0.49263-0.42035 0.70473-0.33366 2.4065 0.09271 1.8201 0.53953 3.9536 1.3465 6.4295l0.3988 1.2235-0.55483 1.0198c-0.88247 1.6219-2.1046 2.8405-3.5321 3.5218l-1.2753 0.60862 0.12755 0.755c0.23479 1.3897-1.0111 5.0333-3.533 10.332-2.8386 5.9641-5.3723 8.6042-7.2232 7.5262z" fill="#ec0e89"/>
  </g>
  <text x="89.386093" y="233.80841" fill="#1a1a1a" font-family="sans-serif" font-size="13.05px" stroke-width=".32624" style="line-height:1.25" xml:space="preserve"><tspan x="89.386093" y="233.80841" fill="#1a1a1a" font-family="'Concert One'" stroke-width=".32624">OFICINA DO</tspan></text>
  <text x="56.705872" y="259.40726" fill="#000000" font-family="sans-serif" font-size="34.838px" stroke="#000000" stroke-width=".87094" style="line-height:1.25" xml:space="preserve"><tspan x="56.705872" y="259.40726" fill="#000000" font-family="'Concert One'" stroke="#000000" stroke-width=".87094">CÉREBRO</tspan></text>
 </g>
</svg>
