<svg width="184.99mm" height="84.235mm" version="1.1" viewBox="0 0 184.99 84.235" xmlns="http://www.w3.org/2000/svg">
 <g id="brain" transform="translate(-2.3193 -43.307)" stroke-width=".21851">
  <path d="m30.893 81.719c-1.3462-0.73044-1.4482-1.9195-0.29518-3.4422 0.62265-0.82229 0.70852-1.153 0.50205-1.9334-0.1156-0.43694-0.41385-0.68287-1.1925-0.9833-1.5772-0.60856-7.5517-0.55457-11.02 0.09957-3.2222 0.60769-7.5875 1.7289-12.134 3.1166-1.9482 0.59466-3.7562 1.0812-4.0178 1.0812-0.45172 0-0.46974-0.07169-0.36038-1.4342 0.086392-1.0763 0.27696-1.6945 0.7637-2.4775 0.52135-0.83867 0.66933-1.3611 0.7543-2.6629 0.15925-2.4398 1.2045-4.1907 3.3073-5.5401l1.0743-0.68939 0.03849-1.519c0.06243-2.4644 1.3986-4.3631 3.8873-5.5239 0.88803-0.4142 1.317-0.7585 1.4761-1.1848 0.12338-0.3305 0.34472-0.92048 0.49187-1.3111 0.47712-1.2664 1.9288-2.4859 3.5584-2.9893 0.8054-0.24876 1.8965-0.4523 2.4247-0.4523 0.52815 0 0.96028-0.10053 0.96028-0.22339 0-0.49606 1.8294-2.1626 2.9003-2.6422 0.93372-0.41812 1.5269-0.5135 3.2504-0.52264l2.1082-0.01117 1.0367-1.153c0.57017-0.63417 1.5389-1.408 2.1527-1.7195 1.3418-0.68108 3.5096-0.89745 5.1202-0.51106l1.1029 0.26457 0.95984-1.0017c0.99096-1.0342 1.4618-1.2126 1.8778-0.71133 0.38794 0.46743 1.7034 5.5474 1.9827 7.6568 0.2228 1.6825 0.17813 2.9394-0.12271 3.4535-0.04741 0.08103-0.58655-0.18938-1.1981-0.60091-2.0214-1.3603-3.8287-0.865-4.9102 1.3456-0.51088 1.0442-0.57208 1.3875-0.47909 2.6872 0.32374 4.5246 4.6383 6.571 6.7274 3.1907 0.25864-0.41848 0.55804-0.76088 0.66533-0.76088 0.30068 0 0.7827 1.079 1.0534 2.3582 0.40973 1.9358 0.75093 7.4568 0.48095 7.7821-0.15971 0.19242-1.1599 0.32273-3.1304 0.40782-7.3679 0.31815-10.34 2.1536-7.1729 4.4291 0.58628 0.4212 1.1248 0.91905 1.1966 1.1063 0.42575 1.1095-0.25885 2.2907-1.7095 2.9496-1.0904 0.49525-3.2617 0.53344-4.1115 0.0723z" fill="#1894d0"/>
  <path d="m47.452 72.829c-0.04724-0.15023-0.15007-1.4531-0.22852-2.8953-0.261-4.7984-1.0167-7.7767-2.164-8.5284-0.79297-0.51957-1.5063-0.20438-2.4902 1.1003-0.69929 0.92726-0.94739 1.1016-1.6506 1.16-0.70388 0.05846-0.93301-0.04306-1.533-0.67922-1.5707-1.6654-1.631-4.8524-0.11206-5.9163 0.77416-0.54224 1.4506-0.43279 2.617 0.42345 1.2633 0.92736 2.0128 0.93383 2.6894 0.02324 0.8834-1.189 0.43537-5.6035-1.0838-10.679-0.29336-0.98012-0.53338-1.9087-0.53338-2.0636 0-0.50655 0.86594-0.76081 2.5782-0.75699 1.8241 4e-3 3.1616 0.37358 4.4642 1.2333 0.4481 0.29578 0.92466 0.53778 1.059 0.53778 0.13436 0 0.6851-0.38801 1.2239-0.86225 1.2567-1.1062 2.8193-1.6434 4.7075-1.6185 1.679 0.02213 3.3629 0.70991 4.4074 1.8001l0.61813 0.64519 0.68628-0.41847c0.87786-0.53529 2.7374-0.55603 3.8194-0.0426 0.43755 0.20763 1.2391 0.83418 1.7811 1.3923 0.85807 0.88355 1.1321 1.031 2.1178 1.14 0.62273 0.06884 1.5144 0.32014 1.9815 0.55843 1.0694 0.54557 2.3245 1.9212 2.6998 2.9592 0.28116 0.77753 0.30912 0.79312 1.1865 0.66156 1.7373-0.26053 3.4851 0.89769 4.388 2.9079 0.42598 0.94837 0.61165 1.1472 1.0713 1.1472 1.9281 0 4.0382 2.3944 4.0382 4.5823 0 0.63476 0.47408 1.1774 1.2292 1.4069 1.1491 0.34932 2.704 2.4951 2.704 3.7315 0 0.63244-1.0082 1.0214-7.4096 2.859-7.669 2.2014-14.181 3.1434-17.217 2.4905-1.6836-0.36217-1.7296-0.44465-0.90215-1.6186 1.899-2.6942 0.04509-5.4797-3.6427-5.473-2.8229 5e-3 -5.0565 1.556-5.2956 3.677-0.13928 1.2357 0.34265 2.1585 1.5843 3.0337 0.52892 0.37282 0.91163 0.75884 0.85046 0.85782-0.55287 0.89456-9.9891 2.0222-10.24 1.2237z" fill="#f5cd11"/>
  <path d="m50.396 96.92c-0.52144-0.98854-1.1928-6.5554-0.79056-6.5554 0.04798 0 0.59871 0.34416 1.2238 0.76479 1.7109 1.1514 3.1624 0.9791 4.4286-0.52564 2.3082-2.7431 0.28451-8.4333-2.9992-8.4333-1.0885 0-1.9039 0.49653-2.6964 1.6419-0.32466 0.46919-0.68858 0.82436-0.80871 0.78924-0.63287-0.18498-1.2806-3.4512-1.4999-7.5634-0.13372-2.5078-0.05145-2.6249 1.8438-2.6249 0.84178 0 2.4854-0.1043 3.6524-0.23178 4.2369-0.46279 6.3828-1.3465 6.3828-2.6285 0-0.42707-0.17778-0.81664-0.49165-1.0773-2.0215-1.6791-2.1305-1.8026-2.1305-2.4142 0-0.38793 0.25765-0.91874 0.67873-1.3983 1.4442-1.6448 4.7102-1.8109 5.9782-0.30402 0.73258 0.87062 0.70088 1.2362-0.22367 2.5803-1.1151 1.621-1.0096 2.3405 0.44987 3.0703 1.0226 0.5113 1.3025 0.54576 4.3702 0.53817 4.7192-0.01167 9.2387-0.88668 17.473-3.383 1.9746-0.59859 3.7008-1.0883 3.8361-1.0883 0.34342 0 2.4178 2.293 2.9405 3.2505 0.32196 0.58972 0.43242 1.2105 0.4325 2.4308 1.33e-4 1.9514-0.55577 3.3778-1.7585 4.5121l-0.78272 0.7382-0.03593 2.1275c-0.04115 2.4431-0.37885 3.3574-1.7206 4.6596-0.95432 0.92613-2.2369 1.3286-3.6315 1.1395-0.9113-0.12357-0.98101-0.0901-1.9046 0.91588-0.91548 0.99716-0.99999 1.0386-1.8774 0.92093-0.5106-0.0685-1.3418-0.42146-1.8712-0.79455-1.1384-0.80242-1.2083-0.80852-2.0612-0.1797-0.57713 0.42554-0.93593 0.49166-2.6679 0.49166-1.1006 0-2.1214 0.078-2.2684 0.17316-0.147 0.0952-0.43916 0.53774-0.64922 0.98331-0.62181 1.319-2.228 2.7633-3.6851 3.3138-1.0661 0.40276-1.5591 0.46693-2.758 0.35894l-1.4599-0.13149-1.053 1.1166c-1.4005 1.4852-2.5517 2.2543-4.2103 2.8131-1.1886 0.40039-1.7834 0.45373-4.4276 0.39702-2.4452-0.0525-3.0891-0.13091-3.2275-0.39328zm0.82926-23.967c0.15774-0.06312 0.3462-0.05536 0.41882 0.01724 0.07259 0.07261-0.05649 0.12426-0.28679 0.11477-0.25456-0.01046-0.30633-0.06227-0.13202-0.13202zm18.573-1.7481c0.15773-0.06312 0.3462-0.05536 0.41882 0.01724 0.07259 0.07261-0.05649 0.12425-0.2868 0.11477-0.25456-0.01046-0.30633-0.06227-0.13202-0.13202z" fill="#a0ca39"/>
  <path d="m32.419 127.28c-1.4402-0.83887-1.3449-3.2444 0.39345-9.9248 1.5094-5.8005 1.7104-7.2808 1.083-7.974-0.55281-0.61085-1.2336-0.54846-2.4521 0.2247-1.6983 1.0776-3.5735 1.5666-6.0713 1.5834-1.9003 0.0128-2.4364-0.073-4.1123-0.65824-2.7991-0.97735-5.1508-2.4716-7.3431-4.6657-4.748-4.7521-5.818-9.6326-2.9622-13.512 0.51219-0.69575 1.2411-1.4857 1.6199-1.7553l0.6886-0.49033-2.0443-1.2964-0.68043 0.64336c-0.95702 0.90489-1.4882 1.1328-2.6397 1.1328-1.9427 0-3.586-1.1169-4.6617-3.1684-0.71851-1.3703-0.79651-3.4841-0.17542-4.754 0.32149-0.65738 0.3481-0.88511 0.13361-1.1436-0.33054-0.39827-0.2733-0.42188 4.5869-1.8924 7.7734-2.3519 13.394-3.4634 17.515-3.4634 2.5973 0 4.5545 0.2994 4.5545 0.69673 0 0.1143-0.28878 0.62755-0.64174 1.1405-1.3478 1.9589-0.7805 3.9736 1.3975 4.9629 1.0231 0.46472 3.0349 0.53645 4.3122 0.15375 1.0493-0.31438 2.6412-1.6765 3.0156-2.5803 0.34827-0.8408 0.16577-2.2973-0.36248-2.893-0.2205-0.24863-0.77576-0.72638-1.2339-1.0617l-0.83298-0.60962 0.52908-0.34667c0.85136-0.55783 3.321-0.9891 6.5123-1.1372 2.1579-0.10014 3.0149-0.06815 3.1292 0.11684 0.08659 0.14011 0.2413 1.6541 0.34378 3.3645 0.20895 3.487 0.65135 5.7464 1.379 7.0429 0.41576 0.74076 0.61337 0.88431 1.2958 0.94135 0.74618 0.0624 0.86375-0.0142 1.6031-1.0433 0.43882-0.6108 0.98934-1.213 1.2234-1.3383 0.65814-0.35222 1.627-0.0242 2.3454 0.79404 1.1411 1.2996 1.4173 3.234 0.69039 4.8349-0.72553 1.598-1.8114 1.7981-3.3562 0.61854-1.2184-0.93029-1.9217-0.97522-2.5655-0.16389-0.43484 0.54794-0.46755 0.78387-0.37113 2.6768 0.10312 2.0245 0.60012 4.3976 1.4977 7.1515l0.44358 1.3609-0.61713 1.1343c-0.98156 1.804-2.341 3.1594-3.9287 3.9172l-1.4185 0.67697 0.14188 0.83978c0.26116 1.5458-1.1247 5.5985-3.9298 11.492-3.1573 6.6339-5.9756 9.5704-8.0343 8.3713z" fill="#ec0e89"/>
 </g>
 <path id="oficinaWord" d="m83.14 36.168c-0.08977 0-0.22958 7e-3 -0.41857 0.02119-0.189 0.01418-0.40145 0.05174-0.63769 0.11317-0.23152 0.06142-0.47254 0.15362-0.72294 0.27646-0.24569 0.11812-0.47217 0.28347-0.68005 0.49609-0.20317 0.21262-0.37102 0.47968-0.50331 0.80099-0.1323 0.31657-0.19844 0.70138-0.19844 1.1549v4.2386c0 0.46778 0.06614 0.8646 0.19844 1.1906 0.1323 0.32602 0.30014 0.59758 0.50331 0.81493 0.2079 0.21734 0.43436 0.39023 0.68005 0.51778 0.25042 0.12284 0.49143 0.21452 0.72294 0.27596 0.23624 0.06142 0.44868 0.09951 0.63769 0.11369 0.189 0.01418 0.32879 0.02119 0.41857 0.02119h0.24081c0.08978 0 0.22906-7e-3 0.41806-0.02119 0.189-0.01418 0.39944-0.05226 0.63097-0.11369 0.23152-0.06142 0.47003-0.1531 0.71572-0.27596 0.25042-0.12757 0.47489-0.30046 0.67333-0.51778 0.20317-0.21734 0.36851-0.48892 0.49609-0.81493 0.1323-0.32602 0.19844-0.72283 0.19844-1.1906v-4.2386c0-0.4536-0.06614-0.83838-0.19844-1.1549-0.12757-0.32131-0.29292-0.58835-0.49609-0.80099-0.19844-0.21262-0.4229-0.37798-0.67333-0.49609-0.24569-0.12284-0.48418-0.21504-0.71572-0.27646-0.23152-0.06142-0.44195-0.099-0.63097-0.11317-0.18902-0.01418-0.32829-0.02119-0.41806-0.02119zm19.405 0c-0.61895 0.03307-1.1696 0.16284-1.6516 0.38965-0.20789 0.09922-0.41081 0.22448-0.60924 0.37568-0.19845 0.14647-0.37581 0.33086-0.53176 0.55292-0.1512 0.21734-0.27395 0.4749-0.36845 0.77255-0.0945 0.29768-0.14159 0.63989-0.14159 1.0273v3.9547c0 0.47249 0.06614 0.87433 0.19844 1.2051 0.13229 0.32602 0.30014 0.60009 0.50331 0.82216 0.2079 0.21734 0.43688 0.38719 0.6873 0.51003 0.25042 0.12284 0.49395 0.21504 0.73019 0.27646 0.23624 0.06142 0.44867 0.09899 0.63769 0.11317 0.19372 0.01418 0.333 0.0217 0.41806 0.0217 0.52919 0 1.0137-0.07367 1.4531-0.22014 0.44415-0.15119 0.82443-0.36814 1.141-0.65163 0.32131-0.2835 0.56932-0.62872 0.74413-1.0351 0.17482-0.41105 0.262-0.87655 0.262-1.3963 0-0.02363-7e-3 -0.07323-0.0212-0.14883-9e-3 -0.08032-0.0495-0.16049-0.1204-0.24081-0.0709-0.08504-0.1841-0.1582-0.34004-0.21962-0.15119-0.06615-0.36866-0.09922-0.65213-0.09922-0.2835 0-0.50797 0.02103-0.67333 0.06356-0.16537 0.04253-0.29065 0.09715-0.37568 0.1633-0.0851 0.06142-0.13918 0.13007-0.16278 0.20567-0.0236 0.0756-0.0357 0.14875-0.0357 0.21962 0 0.22207-0.0165 0.43452-0.0496 0.63769-0.0284 0.20317-0.0825 0.38253-0.16278 0.53847-0.0803 0.15592-0.19157 0.2812-0.33332 0.37568-0.14174 0.08977-0.32363 0.13487-0.5457 0.13487-0.23151 0-0.41089-0.05662-0.53847-0.17001-0.12282-0.1134-0.2125-0.23866-0.26924-0.37568-0.0661-0.15592-0.10422-0.33782-0.11368-0.5457v-4.4936c9e-3 -0.1701 0.0476-0.32342 0.11368-0.46042 0.0567-0.1134 0.14638-0.21711 0.26924-0.3116 0.12757-0.09922 0.30694-0.14883 0.53847-0.14883 0.22208 0 0.40396 0.03757 0.5457 0.11317 0.14175 0.0756 0.25298 0.18433 0.33332 0.32607 0.0803 0.14175 0.13444 0.31411 0.16278 0.51728 0.0331 0.20317 0.0496 0.43214 0.0496 0.68727 0 0.16537 0.0471 0.29564 0.1416 0.39015 0.0945 0.08977 0.20824 0.16042 0.34054 0.21239 0.1323 0.04725 0.26908 0.07781 0.41081 0.09198 0.14175 0.0094 0.26 0.01447 0.35449 0.01447 0.28349 0 0.50095-0.03307 0.65213-0.09922 0.15593-0.06615 0.26916-0.14631 0.34004-0.24081 0.0708-0.0945 0.11094-0.19171 0.1204-0.29093 0.0142-0.10395 0.0212-0.19112 0.0212-0.262 0-0.16537-0.014-0.36179-0.0424-0.58858-0.0236-0.22679-0.0777-0.46278-0.16278-0.70847-0.0803-0.24569-0.19858-0.48669-0.35448-0.72294-0.15592-0.24097-0.36385-0.45592-0.62372-0.64491-0.25515-0.18899-0.57181-0.34231-0.94979-0.46042-0.37327-0.11812-0.8197-0.17725-1.3394-0.17725zm43.418 0c-0.0898 0-0.22906 7e-3 -0.41806 0.02119-0.189 0.01418-0.40195 0.05174-0.63819 0.11317-0.23152 0.06142-0.47201 0.15362-0.72244 0.27646-0.2457 0.11812-0.47267 0.28347-0.68058 0.49609-0.20317 0.21262-0.37102 0.47968-0.50334 0.80099-0.13229 0.31657-0.19843 0.70138-0.19843 1.1549v4.2386c0 0.46778 0.0661 0.8646 0.19843 1.1906 0.13231 0.32602 0.30014 0.59758 0.50334 0.81493 0.20789 0.21734 0.43487 0.39023 0.68058 0.51778 0.25042 0.12284 0.4909 0.21452 0.72244 0.27596 0.23624 0.06142 0.4492 0.09951 0.63819 0.11369 0.18899 0.01418 0.32829 0.02119 0.41806 0.02119h0.24081c0.0898 0 0.22958-7e-3 0.41857-0.02119 0.189-0.01418 0.39893-0.05226 0.63044-0.11369 0.23152-0.06142 0.47003-0.1531 0.71572-0.27596 0.25041-0.12757 0.47489-0.30046 0.67332-0.51778 0.20318-0.21734 0.36851-0.48892 0.49609-0.81493 0.1323-0.32602 0.19844-0.72283 0.19844-1.1906v-4.2386c0-0.4536-0.0661-0.83838-0.19844-1.1549-0.12757-0.32131-0.29291-0.58835-0.49609-0.80099-0.19844-0.21262-0.4229-0.37798-0.67332-0.49609-0.2457-0.12284-0.48419-0.21504-0.71572-0.27646-0.23152-0.06142-0.44145-0.099-0.63044-0.11317-0.18899-0.01418-0.32879-0.02119-0.41857-0.02119zm-56.655 0.05633c-0.26932 0-0.47725 0.04761-0.62372 0.14211-0.14647 0.0945-0.25269 0.21976-0.31885 0.37568-0.06615 0.1512-0.10675 0.32356-0.12092 0.51728-0.0094 0.19372-0.01394 0.39213-0.01394 0.5953v6.6621c0 0.20789 0.0045 0.40883 0.01394 0.60253 0.01418 0.19372 0.05478 0.36859 0.12092 0.5245 0.06615 0.1512 0.17237 0.27395 0.31885 0.36845 0.14647 0.08977 0.3544 0.13436 0.62372 0.13436 0.26458 0 0.47003-0.04458 0.6165-0.13436 0.14648-0.0945 0.2527-0.21725 0.31885-0.36845 0.07088-0.15592 0.11096-0.33078 0.1204-0.5245 0.01418-0.19372 0.02119-0.39465 0.02119-0.60253v-2.2541h0.89296c0.189 0 0.38039-7e-3 0.57411-0.02119 0.19372-0.01418 0.36859-0.05426 0.5245-0.1204 0.15592-0.06615 0.28368-0.16986 0.38293-0.3116 0.09924-0.14174 0.14883-0.34017 0.14883-0.5953 0-0.25514-0.05212-0.45357-0.15606-0.5953-0.09922-0.14175-0.227-0.24598-0.38293-0.31212-0.15592-0.06615-0.33028-0.10623-0.524-0.1204-0.19373-0.01418-0.38314-0.02119-0.56739-0.02119h-0.89296v-1.8427h1.6867c0.189 0 0.38039-0.0095 0.57411-0.02842 0.19373-0.01889 0.36859-0.06349 0.5245-0.13436 0.15592-0.07087 0.28368-0.1751 0.38293-0.31212 0.09922-0.14175 0.14883-0.33316 0.14883-0.57411s-0.0496-0.42986-0.14883-0.56689c-0.09922-0.14175-0.227-0.24797-0.38293-0.31884-0.15592-0.07087-0.33078-0.11597-0.5245-0.13488-0.19372-0.01889-0.38512-0.02842-0.57411-0.02842h-2.7635zm6.9452 0c-0.27405 0-0.489 0.04761-0.64491 0.14211-0.15592 0.0945-0.27416 0.21976-0.35448 0.37568-0.0756 0.1512-0.1252 0.32356-0.14883 0.51728-0.01889 0.19372-0.02791 0.39213-0.02791 0.5953v6.6621c0 0.20789 9e-3 0.40883 0.02791 0.60253 0.02363 0.19372 0.07323 0.36859 0.14883 0.5245 0.08032 0.1512 0.19858 0.27395 0.35448 0.36845 0.15592 0.08977 0.37086 0.13436 0.64491 0.13436s0.489-0.04458 0.64491-0.13436c0.16065-0.0945 0.27889-0.21725 0.35448-0.36845 0.08032-0.15592 0.12992-0.33078 0.14883-0.5245 0.01889-0.19372 0.02842-0.39465 0.02842-0.60253v-6.6621c0-0.20317-0.01204-0.40158-0.03566-0.5953-0.01889-0.19372-0.0685-0.36607-0.14883-0.51728-0.07559-0.15592-0.19134-0.2812-0.34726-0.37568-0.15592-0.0945-0.37086-0.14211-0.64491-0.14211zm12.587 0c-0.27405 0-0.489 0.04761-0.64491 0.14211-0.15593 0.0945-0.27419 0.21976-0.35449 0.37568-0.0756 0.1512-0.12522 0.32356-0.14882 0.51728-0.019 0.19372-0.0284 0.39213-0.0284 0.5953v6.6621c0 0.20789 9e-3 0.40883 0.0284 0.60253 0.0236 0.19372 0.0732 0.36859 0.14882 0.5245 0.0803 0.1512 0.19857 0.27395 0.35449 0.36845 0.15592 0.08977 0.37086 0.13436 0.64491 0.13436s0.489-0.04458 0.64492-0.13436c0.16064-0.0945 0.27889-0.21725 0.35448-0.36845 0.0803-0.15592 0.12989-0.33078 0.14883-0.5245 0.0189-0.19373 0.0284-0.39465 0.0284-0.60253v-6.6621c0-0.20317-0.0121-0.40158-0.0357-0.5953-0.0189-0.19372-0.0685-0.36607-0.14883-0.51728-0.0756-0.15592-0.19134-0.2812-0.34726-0.37568-0.15592-0.0945-0.37086-0.14211-0.64491-0.14211zm4.4648 0c-0.26461 0-0.47003 0.04761-0.6165 0.14211-0.14176 0.08977-0.24547 0.21253-0.31159 0.36845-0.0661 0.1512-0.10621 0.32607-0.12041 0.5245-9e-3 0.19372-0.0145 0.39213-0.0145 0.5953v7.1865c0 0.1512 0.01 0.29498 0.0284 0.43201 0.0189 0.1323 0.064 0.24804 0.13487 0.34726 0.0709 0.09922 0.1771 0.1799 0.31885 0.24133 0.14175 0.0567 0.33565 0.08475 0.58136 0.08475 0.21734 0 0.38719-0.02805 0.51003-0.08475 0.12759-0.06142 0.2223-0.1421 0.28371-0.24133 0.0661-0.09922 0.10819-0.21496 0.12712-0.34726 0.0189-0.13702 0.0284-0.28082 0.0284-0.43201v-5.8827h0.17053l2.1404 5.7975c0.0331 0.0945 0.0777 0.21024 0.13436 0.34726 0.0614 0.13702 0.14159 0.26929 0.24081 0.39687 0.0992 0.12285 0.22249 0.22907 0.36896 0.31884 0.15119 0.08505 0.33757 0.12764 0.55964 0.12764h0.93534c0.25987 0 0.46079-0.04458 0.60255-0.13436 0.14649-0.0945 0.25073-0.21725 0.31213-0.36845 0.0661-0.15592 0.1037-0.33078 0.11317-0.5245 0.0142-0.19372 0.0212-0.39465 0.0212-0.60253v-7.1865c0-0.1512-9e-3 -0.293-0.0284-0.42529-0.0189-0.13702-0.0635-0.25528-0.13436-0.35448-0.0709-0.09922-0.17709-0.17688-0.31884-0.23357-0.13702-0.06142-0.32644-0.0925-0.56739-0.0925-0.21735 0-0.3897 0.03107-0.51728 0.0925-0.12287 0.0567-0.21705 0.13435-0.28318 0.23357-0.0614 0.09922-0.10199 0.21747-0.12092 0.35448-0.0189 0.1323-0.0284 0.2741-0.0284 0.42529v5.8821h-0.17001l-2.2536-6.1092c-0.0614-0.16537-0.14409-0.31168-0.24804-0.43926-0.0945-0.10867-0.21725-0.20788-0.36845-0.29765-0.14648-0.0945-0.33787-0.14211-0.57412-0.14211h-0.93584zm11.085 0c-0.26458 0-0.48206 0.03809-0.65213 0.11369-0.17009 0.07087-0.30938 0.16757-0.41807 0.2904-0.10869 0.11812-0.19638 0.25992-0.26251 0.42529-0.0661 0.16064-0.12275 0.3285-0.17001 0.50331-0.23625 0.82686-0.48427 1.6631-0.74414 2.5089-0.25987 0.84102-0.50788 1.6728-0.74413 2.4949-5e-3 0.1512-0.01 0.31152-0.0145 0.48162-5e-3 0.16537-9e-3 0.33324-0.0139 0.50334l-0.0145 0.50331v0.68006c0 0.17955 5e-3 0.3544 0.0145 0.5245 9e-3 0.16537 0.0451 0.3167 0.10645 0.4537 0.0614 0.1323 0.15812 0.23852 0.29043 0.31884 0.1323 0.08032 0.3212 0.1204 0.56689 0.1204s0.43457-0.04008 0.56689-0.1204c0.13232-0.08032 0.22953-0.18654 0.29093-0.31884 0.0661-0.1323 0.1037-0.28363 0.11317-0.4537 0.0142-0.1701 0.0212-0.34496 0.0212-0.5245v-0.99218h2.835v0.99218c0 0.17955 5e-3 0.3544 0.0145 0.5245 0.0142 0.1701 0.0518 0.32141 0.11317 0.4537 0.0661 0.1323 0.16535 0.23852 0.29765 0.31884 0.1323 0.08032 0.3212 0.1204 0.56689 0.1204 0.24097 0 0.42788-0.04008 0.56017-0.1204 0.13232-0.08032 0.22902-0.18654 0.2904-0.31884 0.0614-0.13702 0.097-0.28834 0.10646-0.4537 0.0142-0.1701 0.0212-0.34496 0.0212-0.5245v-0.21239c0-0.31183-7e-3 -0.63552-0.0212-0.97098-0.0141-0.33546-0.0262-0.66365-0.0357-0.98495l-1.4738-5.0037c-0.052-0.17482-0.11112-0.34268-0.17725-0.50331-0.0614-0.16537-0.14661-0.30718-0.25528-0.42529-0.10867-0.12285-0.25047-0.21954-0.42529-0.2904-0.17009-0.0756-0.38504-0.11369-0.64491-0.11369h-0.70846zm11.949 0c-0.26931 0-0.47724 0.04761-0.62372 0.14211-0.14648 0.08977-0.2527 0.21002-0.31884 0.3612-0.0661 0.1512-0.10621 0.32356-0.12041 0.51728-9e-3 0.19372-0.0145 0.39213-0.0145 0.5953v6.6764c0 0.20789 5e-3 0.40883 0.0145 0.60253 0.0142 0.19372 0.0543 0.36859 0.12041 0.5245 0.0661 0.1512 0.17236 0.27395 0.31884 0.36845 0.14648 0.08977 0.35441 0.13436 0.62372 0.13436h2.3528c0.515-0.02835 0.97598-0.1511 1.3823-0.36845 0.1701-0.08977 0.33795-0.20552 0.50334-0.34726 0.16537-0.14647 0.31168-0.32133 0.43926-0.5245 0.1323-0.20789 0.23852-0.4509 0.31884-0.72966 0.0803-0.2835 0.12041-0.60967 0.12041-0.97823v-4.3939c0-0.42997-0.0802-0.80575-0.24081-1.1271-0.15593-0.32131-0.37338-0.58835-0.65214-0.80099-0.27405-0.21734-0.59771-0.38018-0.97098-0.48884-0.36854-0.10867-0.76789-0.1633-1.1979-0.1633h-2.0552zm1.0774 1.6588h0.92138c0.20317 0.01418 0.38504 0.06577 0.54569 0.15554 0.0662 0.0378 0.13231 0.0874 0.19844 0.14883 0.0661 0.06142 0.12525 0.13708 0.17725 0.22686 0.052 0.08977 0.0921 0.196 0.1204 0.31884 0.0331 0.11812 0.0496 0.25542 0.0496 0.41134v4.1817c0 0.14175-0.0165 0.26702-0.0496 0.37568-0.0283 0.10867-0.0684 0.20286-0.1204 0.28318-0.052 0.0756-0.11112 0.14174-0.17725 0.19844-0.0662 0.0567-0.1323 0.1018-0.19844 0.13488-0.16064 0.08504-0.34252 0.13214-0.54569 0.14159h-0.92138v-6.5767zm-54.146 0.11317c0.22679 0 0.40166 0.0496 0.5245 0.14883 0.12284 0.0945 0.21504 0.19872 0.27646 0.31212 0.06615 0.13702 0.10623 0.29035 0.1204 0.46042v4.6209c-0.01418 0.17482-0.05426 0.32866-0.1204 0.46095-0.06142 0.11812-0.15362 0.22434-0.27646 0.31885-0.12284 0.0945-0.2977 0.14159-0.5245 0.14159-0.23152 0-0.41089-0.04709-0.53847-0.14159-0.12284-0.0945-0.21504-0.20072-0.27646-0.31885-0.07088-0.1323-0.11096-0.28612-0.1204-0.46095v-4.6209c0.0094-0.1701 0.04953-0.32342 0.1204-0.46042 0.06142-0.1134 0.15362-0.21762 0.27646-0.31212 0.12757-0.09922 0.30694-0.14883 0.53847-0.14883zm62.822 0c0.22679 0 0.40166 0.0496 0.52451 0.14883 0.12286 0.0945 0.21506 0.19872 0.27645 0.31212 0.0661 0.13702 0.10621 0.29035 0.12041 0.46042v4.6209c-0.0142 0.17482-0.0543 0.32866-0.12041 0.46095-0.0614 0.11812-0.15361 0.22434-0.27645 0.31885-0.12285 0.0945-0.29771 0.14159-0.52451 0.14159-0.23151 0-0.41089-0.04709-0.53847-0.14159-0.12287-0.0945-0.21507-0.20072-0.27646-0.31885-0.0709-0.1323-0.11094-0.28612-0.12041-0.46095v-4.6209c9e-3 -0.1701 0.0495-0.32342 0.12041-0.46042 0.0614-0.1134 0.15361-0.21762 0.27646-0.31212 0.12757-0.09922 0.30694-0.14883 0.53847-0.14883zm-21.418 0.07079h0.15606l1.049 3.7986h-2.2541l1.049-3.7986z" fill="#1a1a1a" stroke-width=".36287"/>
 <g id="cerebroWord" transform="translate(-2.3193 -43.307)" stroke="#000" stroke-dasharray="1.5875, 0.529167" stroke-linejoin="round" stroke-width=".52917">
  <path id="cLetter" d="m55.733 91.286q2.0813 0 3.576 0.47302 1.5137 0.47302 2.5354 1.2298 1.0406 0.75682 1.665 1.7218 0.62438 0.94604 0.94604 1.9299 0.34057 0.98388 0.43518 1.8921 0.11352 0.9082 0.11352 1.5704 0 0.28381-0.05676 0.70007-0.03784 0.39733-0.32165 0.77574-0.28381 0.37842-0.90819 0.64331-0.60546 0.26489-1.7407 0.26489-0.37841 0-0.94604-0.0378-0.56762-0.0567-1.0974-0.24598-0.52978-0.20813-0.9082-0.56762-0.37842-0.37842-0.37842-1.0406 0-1.0217-0.13244-1.8353-0.11352-0.81359-0.43518-1.3812-0.32165-0.56763-0.88927-0.87036-0.56762-0.30272-1.4569-0.30272-0.92712 0-1.438 0.39733-0.49194 0.37842-0.71899 0.83251-0.26489 0.5487-0.30273 1.2298v11.996q0.03784 0.83252 0.30273 1.4569 0.22705 0.5487 0.71899 1.0028 0.51086 0.45411 1.438 0.45411 0.88927 0 1.4569-0.3595 0.56762-0.37841 0.88927-1.0028 0.32165-0.62438 0.43518-1.438 0.13244-0.8136 0.13244-1.7029 0-0.28382 0.0946-0.58655t0.43518-0.54871q0.34057-0.26488 1.0028-0.43517 0.66222-0.17028 1.7975-0.17028t1.7407 0.26488q0.62438 0.24597 0.90819 0.58655 0.28381 0.32165 0.32165 0.6433 0.05676 0.30274 0.05676 0.39734 0 2.0813-0.70007 3.7274-0.70007 1.6272-1.9867 2.7624-1.2677 1.1352-3.0462 1.7407-1.7596 0.58655-3.8787 0.58655-0.34057 0-1.1163-0.0567-0.75683-0.0567-1.7029-0.30272-0.94604-0.24597-1.9488-0.73792-1.0028-0.49193-1.8353-1.3623-0.81359-0.88928-1.3434-2.1948-0.52978-1.3244-0.52978-3.2165v-10.558q0-1.5515 0.37842-2.7435 0.37841-1.192 0.98388-2.0624 0.62438-0.88927 1.4191-1.4758 0.79467-0.60547 1.6272-1.0028 1.9299-0.90819 4.4085-1.0406z" fill="#1894d0" style="paint-order:normal"/>
  <path id="e1Letter" d="m79.119 91.437q0.75683 0 1.5326 0.0756 0.77575 0.0756 1.4001 0.35949 0.62438 0.2838 1.0217 0.85143 0.39734 0.54871 0.39734 1.5137 0 0.96496-0.39734 1.5326-0.39734 0.5487-1.0217 0.83252-0.62438 0.2838-1.4001 0.35949-0.77575 0.0756-1.5326 0.0756h-4.5031v4.9194h2.384q0.75683 0 1.5137 0.0567 0.77575 0.0378 1.3623 0.30273 0.60546 0.24597 0.98388 0.77575 0.37842 0.51086 0.37842 1.438 0 0.94603-0.37842 1.4569-0.37841 0.51086-0.98388 0.77575-0.58654 0.24597-1.3623 0.30273-0.75683 0.0378-1.5137 0.0378h-2.384v5.2221h4.5031q0.75683 0 1.5326 0.0756 0.77575 0.0757 1.4001 0.3595 0.62438 0.28381 1.0217 0.83251t0.39734 1.4947q0 0.98388-0.41626 1.5515-0.39733 0.56762-1.0217 0.85143-0.62438 0.28381-1.4001 0.35949-0.77575 0.0756-1.5137 0.0756h-7.4169q-1.0596 0-1.6461-0.37841-0.56762-0.37842-0.83251-0.98388-0.26489-0.62438-0.32165-1.4001-0.03784-0.77574-0.03784-1.5893v-17.785q0-0.81359 0.03784-1.5893 0.05676-0.77575 0.32165-1.3812 0.26489-0.62437 0.83251-1.0028 0.58654-0.37841 1.6461-0.37841zm-2.6489-8.1738q0.51086-0.34057 1.0596-0.34057 0.49194 0 1.0028 0.17028 0.51086 0.15137 0.88927 0.70006 0.22705 0.34058 0.32165 0.68115t0.0946 0.60547q0 0.51086-0.28381 0.94603-0.28381 0.41626-0.66222 0.68115l-4.1626 2.5354q-0.26489 0.17029-0.56762 0.24598-0.28381 0.0567-0.56762 0.0567-0.51086 0-0.96496-0.15136-0.43518-0.17029-0.81359-0.719-0.22705-0.32164-0.32165-0.62437-0.0946-0.32165-0.0946-0.58655 0-0.56762 0.28381-1.0028 0.28381-0.45409 0.5487-0.62438z" fill="#ec0e89" style="paint-order:normal"/>
  <path id="r1Letter" d="m87.558 95.751q0-0.81359 0.03784-1.5893 0.05676-0.77576 0.32165-1.3812 0.26489-0.60545 0.83251-0.96494 0.58654-0.37842 1.6461-0.37842h6.2438q2.3272 0.11352 4.1626 0.98387 0.77574 0.37843 1.5136 0.94604 0.75683 0.54871 1.3434 1.3812 0.58654 0.8136 0.94604 1.9299 0.35949 1.1163 0.35949 2.5921 0 0.30274-0.0567 0.8136-0.0567 0.49194-0.24597 1.0974-0.18921 0.58655-0.51085 1.2298-0.32166 0.64331-0.85144 1.2298-0.52978 0.58655-1.3055 1.0785-0.75683 0.49195-1.7975 0.79467 0.66222 0.26489 1.3434 0.70007 0.68114 0.41626 1.2298 1.0785 0.5487 0.66221 0.88927 1.5893 0.35949 0.92712 0.35949 2.157v2.6867q0 0.22706 0.11354 0.37842 0.11352 0.15137 0.22704 0.26489 0.45409 0.45409 0.52978 0.79467 0.0756 0.32165 0.0756 0.52978 0 0.66223-0.26489 1.1163-0.2649 0.4541-0.70007 0.73791-0.41625 0.28381-0.96496 0.39733-0.52978 0.13245-1.0974 0.13245-0.62439 0-1.2677-0.18921-0.64329-0.20812-1.1731-0.58653-0.52977-0.37843-0.87034-0.94604-0.32166-0.56763-0.32166-1.3055v-4.0112q0-0.83251-0.11353-1.5326-0.11352-0.70007-0.43517-1.2109t-0.88928-0.79467q-0.56761-0.28381-1.4758-0.28381h-2.1191v6.3195q0 0.83251-0.0567 1.6272-0.0378 0.79468-0.30273 1.419-0.26489 0.60547-0.85143 0.98388-0.58654 0.35949-1.665 0.35949-1.0596 0-1.6461-0.35949-0.56762-0.37841-0.83251-0.98388-0.26489-0.62437-0.32165-1.419-0.03784-0.79467-0.03784-1.6272zm8.2873 7.2277q0.94603-0.0378 1.7029-0.4541 0.32165-0.17029 0.62438-0.43517 0.30274-0.26489 0.54871-0.66223t0.37841-0.92711q0.15136-0.52979 0.15136-1.2299 0-0.62437-0.15136-1.0974-0.13244-0.49193-0.35949-0.85142-0.22705-0.3595-0.52979-0.60547-0.2838-0.24597-0.58653-0.39733-0.71899-0.3595-1.6272-0.41626h-2.7246v7.0763z" fill="#a0ca39" style="paint-order:normal"/>
  <path id="e2Letter" d="m119.38 91.437q0.75683 0 1.5326 0.0567 0.77576 0.0567 1.4001 0.32164 0.62438 0.26489 1.0217 0.8136 0.39734 0.52977 0.39734 1.4947t-0.39734 1.5137q-0.39734 0.52977-1.0217 0.79466-0.62438 0.2649-1.4001 0.32166-0.77574 0.0567-1.5326 0.0567h-4.5031v5.1464h2.384q0.75683 0 1.5136 0.0567 0.77575 0.0378 1.3623 0.30273 0.60546 0.24597 0.98388 0.77575 0.37841 0.51086 0.37841 1.438 0 0.94603-0.37841 1.4569-0.37842 0.51086-0.98388 0.77575-0.58655 0.24597-1.3623 0.30273-0.75682 0.0378-1.5136 0.0378h-2.384v5.4492h4.5031q0.75683 0 1.5326 0.0567 0.77576 0.0567 1.4001 0.32165 0.62438 0.24597 1.0217 0.79467 0.39734 0.52978 0.39734 1.4758 0 0.98388-0.41627 1.5326-0.39733 0.54869-1.0217 0.81358-0.62438 0.2649-1.4001 0.32166-0.77574 0.0567-1.5136 0.0567h-7.4169q-1.0596 0-1.6461-0.37841-0.56763-0.37841-0.83252-0.98388-0.26488-0.62437-0.32165-1.4001-0.0378-0.77575-0.0378-1.5893v-17.785q0-0.81358 0.0378-1.5893 0.0567-0.77576 0.32165-1.3812 0.26489-0.62438 0.83252-1.0028 0.58653-0.37842 1.6461-0.37842z" fill="#f5cd11" style="paint-order:normal"/>
  <path id="bLetter" d="m135.77 91.437q1.6839 0 3.1598 0.43518 1.4947 0.43517 2.5921 1.3055 1.1163 0.87035 1.7407 2.1759 0.6433 1.2866 0.6433 3.0084 0 0.88926-0.24597 1.6272-0.22704 0.719-0.60547 1.3055-0.35949 0.58655-0.81358 1.0217-0.43518 0.43518-0.85143 0.75683-0.41627 0.30273-0.73792 0.49194-0.32164 0.17028-0.45409 0.20812 1.1352 0.32166 1.911 0.83252 0.77574 0.49194 1.2866 1.0974 0.52978 0.58655 0.81359 1.2298 0.30274 0.62438 0.43518 1.2298 0.15136 0.58655 0.17029 1.0974 0.0378 0.49195 0.0378 0.79468 0 1.4758-0.35949 2.6111-0.3595 1.1163-0.94604 1.9488-0.58655 0.81359-1.3434 1.4001-0.75682 0.56761-1.5326 0.9271-1.8542 0.87036-4.1815 0.98388h-6.206q-1.0785 0-1.665-0.35949-0.58654-0.37841-0.85144-0.98388-0.26489-0.62437-0.32165-1.4001-0.0378-0.77575-0.0378-1.6083v-17.823q0-0.81359 0.0378-1.5893 0.0567-0.77576 0.32165-1.3812 0.2649-0.60545 0.85144-0.96494 0.58654-0.37842 1.665-0.37842zm-2.6111 14.91v7.1142h2.7624q0.88927-0.0378 1.5893-0.41625 0.30274-0.15136 0.58655-0.39733 0.28381-0.24598 0.51086-0.60547 0.22705-0.37841 0.3595-0.85143 0.13244-0.49194 0.13244-1.1352 0-0.70006-0.15136-1.2109-0.13245-0.52977-0.37843-0.9082-0.22704-0.39733-0.52977-0.66221-0.30273-0.28382-0.60547-0.45411-0.7379-0.39733-1.665-0.47301zm0-10.444v6.433h2.4219q0.81358-0.0378 1.4569-0.37841 0.26489-0.13244 0.52978-0.3595 0.26489-0.22705 0.47302-0.52977 0.20813-0.32165 0.32165-0.75684 0.13244-0.43517 0.13244-1.0028 0-0.64329-0.13244-1.1163-0.13245-0.49193-0.35949-0.8325-0.20813-0.3595-0.49195-0.60547-0.26488-0.24597-0.54869-0.41625-0.68115-0.3595-1.5326-0.43518z" fill="#1894d0" style="paint-order:normal"/>
  <path id="r2Letter" d="m148.71 95.751q0-0.81359 0.0378-1.5893 0.0567-0.77576 0.32164-1.3812 0.2649-0.60545 0.83252-0.96494 0.58655-0.37842 1.6461-0.37842h6.2438q2.3272 0.11352 4.1626 0.98387 0.77575 0.37843 1.5137 0.94604 0.75682 0.54871 1.3434 1.3812 0.58654 0.8136 0.94604 1.9299 0.35949 1.1163 0.35949 2.5921 0 0.30274-0.0567 0.8136-0.0567 0.49194-0.24597 1.0974-0.18921 0.58655-0.51087 1.2298-0.32165 0.64331-0.85142 1.2298-0.52979 0.58655-1.3055 1.0785-0.75683 0.49195-1.7975 0.79467 0.66223 0.26489 1.3434 0.70007 0.68115 0.41626 1.2298 1.0785 0.54871 0.66221 0.88928 1.5893 0.35949 0.92712 0.35949 2.157v2.6867q0 0.22706 0.11352 0.37842 0.11354 0.15137 0.22706 0.26489 0.45409 0.45409 0.52978 0.79467 0.0756 0.32165 0.0756 0.52978 0 0.66223-0.26489 1.1163-0.2649 0.4541-0.70007 0.73791-0.41625 0.28381-0.96496 0.39733-0.52977 0.13245-1.0974 0.13245-0.62439 0-1.2677-0.18921-0.64331-0.20812-1.1731-0.58653-0.52979-0.37843-0.87036-0.94604-0.32165-0.56763-0.32165-1.3055v-4.0112q0-0.83251-0.11352-1.5326-0.11352-0.70007-0.43518-1.2109-0.32165-0.51086-0.88928-0.79467-0.56761-0.28381-1.4758-0.28381h-2.1191v6.3195q0 0.83251-0.0567 1.6272-0.0378 0.79468-0.30274 1.419-0.26489 0.60547-0.85144 0.98388-0.58653 0.35949-1.665 0.35949-1.0596 0-1.6461-0.35949-0.56762-0.37841-0.83251-0.98388-0.26489-0.62437-0.32165-1.419-0.0378-0.79467-0.0378-1.6272zm8.2873 7.2277q0.94604-0.0378 1.7029-0.4541 0.32166-0.17029 0.62439-0.43517 0.30273-0.26489 0.54871-0.66223 0.24596-0.39734 0.37841-0.92711 0.15136-0.52979 0.15136-1.2299 0-0.62437-0.15136-1.0974-0.13245-0.49193-0.35949-0.85142-0.22706-0.3595-0.52979-0.60547-0.28381-0.24597-0.58653-0.39733-0.719-0.3595-1.6272-0.41626h-2.7246v7.0763z" fill="#ec0e89" style="paint-order:normal"/>
  <path id="oLetter" d="m169.6 98.93q0-1.8164 0.52979-3.0841 0.52977-1.2866 1.3434-2.138 0.83251-0.85142 1.8164-1.3244 1.0028-0.49193 1.9299-0.73791 0.94604-0.24597 1.7029-0.30273 0.75684-0.0567 1.1163-0.0567h0.6433q0.35949 0 1.1163 0.0567 0.75682 0.0567 1.6839 0.30273 0.92711 0.24598 1.911 0.73791 1.0028 0.47303 1.7975 1.3244 0.81359 0.85144 1.3244 2.138 0.52978 1.2677 0.52978 3.0841v11.315q0 1.8732-0.52978 3.1787-0.51086 1.3055-1.3244 2.1759-0.79467 0.87035-1.7975 1.3812-0.98388 0.49194-1.911 0.73791-0.92712 0.24596-1.6839 0.30273-0.75684 0.0567-1.1163 0.0567h-0.6433q-0.35949 0-1.1163-0.0567-0.75683-0.0567-1.7029-0.30273-0.9271-0.24597-1.9299-0.73791-0.98388-0.51086-1.8164-1.3812-0.8136-0.87036-1.3434-2.1759-0.52979-1.3055-0.52979-3.1787zm6.2817 12.034q0.0378 0.70007 0.32165 1.2298 0.24598 0.47302 0.73791 0.85143 0.51087 0.37841 1.438 0.37841 0.90819 0 1.4001-0.37841 0.49193-0.37841 0.7379-0.85143 0.26489-0.52978 0.32166-1.2298v-12.336q-0.0567-0.68115-0.32166-1.2298-0.24597-0.4541-0.7379-0.83251-0.49195-0.39734-1.4001-0.39734-0.92711 0-1.438 0.39734-0.49193 0.37841-0.73791 0.83251-0.28381 0.5487-0.32165 1.2298z" fill="#a0ca39" style="paint-order:normal"/>
 </g>
</svg>
